<?xml version="1.0" standalone="no"?>
<!DOCTYPE svg PUBLIC "-//W3C//DTD SVG 1.1//EN" "http://www.w3.org/Graphics/SVG/1.1/DTD/svg11.dtd" >
<svg xmlns="http://www.w3.org/2000/svg" xmlns:xlink="http://www.w3.org/1999/xlink" version="1.1">
<metadata>
Created by FontForge 20150102 at Mon Feb  9 17:49:02 2015
 By uniteet7
Digitized data copyright (c) 2012-2014, The Mozilla Foundation and Telefonica S.A.
</metadata>
<defs>
<font id="FiraSansExtraLight" horiz-adv-x="560" >
  <font-face 
    font-family="FiraSansExtraLight"
    font-weight="250"
    font-stretch="normal"
    units-per-em="1000"
    panose-1="2 11 4 3 5 0 0 2 0 4"
    ascent="785"
    descent="-215"
    x-height="522"
    cap-height="684"
    bbox="-167 -350 1360 1050"
    underline-thickness="50"
    underline-position="-50"
    unicode-range="U+000D-1F310"
  />
<missing-glyph horiz-adv-x="666" 
d="M543 -350h-420v1400h420v-1400zM178 998v-1296h311v1296h-311zM324 451q111 0 111 -115q0 -104 -95 -118v-45q0 -11 -7.5 -17.5t-17.5 -6.5t-17.5 6.5t-7.5 17.5v84q53 3 72 19.5t19 57.5q0 33 -13 51t-48 18q-29 0 -52 -11q-8 -3 -13 -3q-24 0 -24 23q0 19 29.5 29
t63.5 10zM315 120q15 0 25 -10t10 -25q0 -16 -10 -26.5t-25 -10.5t-25 10.5t-10 26.5q0 15 10 25t25 10z" />
    <glyph glyph-name="fi" unicode="fi" horiz-adv-x="561" 
d="M257 741q76 0 148 -37l-18 -35q-66 32 -128 32q-50 0 -74.5 -21t-24.5 -73v-85h291v-522h-46v483h-245v-483h-46v483h-87v39h87v90q0 63 37 96t106 33z" />
    <glyph glyph-name="fl" unicode="fl" horiz-adv-x="583" 
d="M548 2q-30 -13 -57 -13q-85 0 -85 96v592q-71 24 -139 24q-55 0 -81 -21.5t-26 -69.5v-88h142l-7 -39h-135v-483h-46v483h-87v39h87v90q0 61 38.5 95t110.5 34q65 0 143 -24l46 6v-639q0 -54 47 -54q17 0 36 7z" />
    <glyph glyph-name=".notdef" horiz-adv-x="666" 
d="M543 -350h-420v1400h420v-1400zM178 998v-1296h311v1296h-311zM324 451q111 0 111 -115q0 -104 -95 -118v-45q0 -11 -7.5 -17.5t-17.5 -6.5t-17.5 6.5t-7.5 17.5v84q53 3 72 19.5t19 57.5q0 33 -13 51t-48 18q-29 0 -52 -11q-8 -3 -13 -3q-24 0 -24 23q0 19 29.5 29
t63.5 10zM315 120q15 0 25 -10t10 -25q0 -16 -10 -26.5t-25 -10.5t-25 10.5t-10 26.5q0 15 10 25t25 10z" />
    <glyph glyph-name=".null" horiz-adv-x="0" 
 />
    <glyph glyph-name="nonmarkingreturn" horiz-adv-x="333" 
 />
    <glyph glyph-name="CR" unicode="&#xd;" horiz-adv-x="284" 
 />
    <glyph glyph-name="space" unicode=" " horiz-adv-x="284" 
 />
    <glyph glyph-name="exclam" unicode="!" horiz-adv-x="240" 
d="M141 214h-43l-3 470h48zM120 69q18 0 29 -11.5t11 -28.5t-11 -28.5t-29 -11.5q-17 0 -28.5 11.5t-11.5 28.5t11.5 28.5t28.5 11.5z" />
    <glyph glyph-name="quotedbl" unicode="&#x22;" horiz-adv-x="349" 
d="M75 684h49l-7 -248h-35zM225 684h49l-6 -248h-36z" />
    <glyph glyph-name="numbersign" unicode="#" horiz-adv-x="498" 
d="M404 454l-30 -229h72v-39h-77l-25 -186h-46l25 186h-188l-25 -186h-45l25 186h-75v39h80l30 229h-73v39h78l23 171h45l-23 -171h188l23 171h46l-23 -171h74v-39h-79zM358 454h-188l-30 -229h188z" />
    <glyph glyph-name="dollar" unicode="$" horiz-adv-x="524" 
d="M465 180q0 -78 -50 -129.5t-133 -59.5v-140h-41v138q-113 3 -197 82l28 30q76 -71 178 -71q75 0 121.5 40t46.5 109q0 62 -35 95t-127 61q-102 32 -144 71.5t-42 106.5q0 66 47 110.5t124 48.5v145h41v-145q89 -5 163 -71l-29 -30q-66 62 -157 62q-64 0 -103 -32.5
t-39 -86.5q0 -53 33.5 -82.5t123.5 -56.5q101 -32 146 -73.5t45 -121.5z" />
    <glyph glyph-name="percent" unicode="%" horiz-adv-x="781" 
d="M644 678l-463 -699l-35 22l463 700zM201 675q65 0 105 -43.5t40 -115.5q0 -74 -39 -118t-106 -44q-65 0 -105 43.5t-40 116.5t39.5 117t105.5 44zM201 640q-52 0 -76.5 -35t-24.5 -91q0 -54 25 -89t76 -35q52 0 76.5 35t24.5 91q0 54 -25 89t-76 35zM580 310
q65 0 105 -43.5t40 -115.5q0 -74 -39 -118t-106 -44q-64 0 -104.5 44t-40.5 116q0 73 39.5 117t105.5 44zM580 275q-51 0 -76 -35.5t-25 -90.5q0 -54 25 -89t76 -35q52 0 76.5 35t24.5 91q0 54 -24.5 89t-76.5 35z" />
    <glyph glyph-name="ampersand" unicode="&#x26;" horiz-adv-x="736" 
d="M301 694q71 0 115.5 -41t44.5 -105q0 -57 -37.5 -98.5t-119.5 -86.5l215 -201q45 92 68 198l43 -13q-29 -121 -83 -213l129 -118l-36 -27l-117 109q-87 -109 -225 -109q-88 0 -146 50t-58 131q0 65 36 111t109 88q-56 52 -79 88.5t-23 85.5q0 65 45.5 108t118.5 43z
M301 657q-53 0 -85.5 -32.5t-32.5 -80.5q0 -39 18 -69.5t75 -84.5q73 39 106 75t33 81q0 52 -32 81.5t-82 29.5zM267 343q-63 -38 -94.5 -78.5t-31.5 -93.5q0 -63 45.5 -102.5t114.5 -39.5q117 0 193 97z" />
    <glyph glyph-name="quotesingle" unicode="'" horiz-adv-x="199" 
d="M75 684h49l-7 -248h-35z" />
    <glyph glyph-name="parenleft" unicode="(" horiz-adv-x="324" 
d="M265 815q-54 -80 -83 -133t-52.5 -140.5t-23.5 -191.5q0 -103 23.5 -191t52.5 -141.5t83 -132.5l-29 -20q-46 64 -70.5 103.5t-53 100.5t-41 129.5t-12.5 151.5t12.5 151.5t41 129.5t53 100.5t70.5 103.5z" />
    <glyph glyph-name="parenright" unicode=")" horiz-adv-x="324" 
d="M88 835q46 -64 70.5 -103.5t53 -100.5t41 -129.5t12.5 -151.5t-12.5 -151.5t-41 -129.5t-53 -100.5t-70.5 -103.5l-29 20q54 79 83 132.5t52.5 141.5t23.5 191q0 104 -23.5 191.5t-52.5 140.5t-83 133z" />
    <glyph glyph-name="asterisk" unicode="*" horiz-adv-x="435" 
d="M244 547l98 -125l-37 -27l-87 131l-88 -131l-37 27l98 124l-152 43l13 41l148 -55l-5 160h45l-5 -158l147 54l14 -42z" />
    <glyph glyph-name="plus" unicode="+" horiz-adv-x="491" 
d="M268 351h151v-41h-151v-153h-45v153h-151v41h151v153h45v-153z" />
    <glyph glyph-name="comma" unicode="," horiz-adv-x="195" 
d="M97 69q18 0 29.5 -11.5t11.5 -28.5q0 -15 -14 -49l-52 -126h-34l40 141q-21 10 -21 34q0 17 11.5 28.5t28.5 11.5z" />
    <glyph glyph-name="hyphen" unicode="-" horiz-adv-x="400" 
d="M71 333h258v-40h-258v40z" />
    <glyph glyph-name="period" unicode="." horiz-adv-x="195" 
d="M97 69q18 0 29.5 -11.5t11.5 -28.5t-11.5 -28.5t-29.5 -11.5q-17 0 -28.5 11.5t-11.5 28.5t11.5 28.5t28.5 11.5z" />
    <glyph glyph-name="slash" unicode="/" horiz-adv-x="520" 
d="M396 791l-232 -889l-40 10l232 889z" />
    <glyph glyph-name="zero" unicode="0" horiz-adv-x="547" 
d="M274 675q99 0 151 -87t52 -257q0 -169 -52 -255.5t-151 -86.5t-151.5 87.5t-52.5 256.5t52 255.5t152 86.5zM274 636q-156 0 -156 -303q0 -304 156 -304q155 0 155 302q0 305 -155 305z" />
    <glyph glyph-name="one" unicode="1" horiz-adv-x="406" 
d="M281 0h-46v612l-167 -105l-22 35l196 122h39v-664z" />
    <glyph glyph-name="two" unicode="2" horiz-adv-x="473" 
d="M224 675q81 0 129 -48.5t48 -123.5q0 -41 -11 -78.5t-27.5 -70t-60 -85.5t-82.5 -96t-121 -131h320l-7 -42h-368v40q198 213 253.5 293t55.5 167q0 62 -35.5 98.5t-95.5 36.5q-90 0 -153 -77l-33 24q77 93 188 93z" />
    <glyph glyph-name="three" unicode="3" horiz-adv-x="482" 
d="M219 675q82 0 130.5 -46.5t48.5 -118.5q0 -66 -37.5 -106.5t-96.5 -49.5q66 -2 109 -46.5t43 -121.5q0 -87 -56.5 -142t-150.5 -55q-111 0 -187 85l30 26q65 -70 156 -70q75 0 117.5 42.5t42.5 112.5q0 147 -155 147h-42l6 38h32q59 0 100.5 35t41.5 103q0 59 -36.5 93
t-97.5 34q-82 0 -151 -63l-25 29q76 74 178 74z" />
    <glyph glyph-name="four" unicode="4" horiz-adv-x="513" 
d="M476 178h-91v-178h-45v178h-293v36l204 461l39 -16l-194 -441h244l5 200h40v-200h91v-40z" />
    <glyph glyph-name="five" unicode="5" horiz-adv-x="482" 
d="M400 624h-273v-238q52 33 116 33q86 0 136 -54.5t50 -150.5q0 -100 -56.5 -162.5t-151.5 -62.5q-108 0 -185 79l31 28q63 -66 155 -66q73 0 116 50t43 135q0 82 -39.5 123.5t-106.5 41.5q-60 0 -116 -34h-37v318h326z" />
    <glyph glyph-name="six" unicode="6" horiz-adv-x="520" 
d="M292 431q76 0 125 -53t49 -155q0 -107 -53.5 -170.5t-136.5 -63.5q-107 0 -156.5 84t-49.5 222q0 177 63 278.5t172 101.5q64 0 119 -38l-21 -33q-47 32 -99 32q-85 0 -134 -85t-53 -223q69 103 175 103zM276 29q69 0 106 53t37 140q0 85 -36 127t-96 42
q-105 0 -170 -115q7 -247 159 -247z" />
    <glyph glyph-name="seven" unicode="7" horiz-adv-x="434" 
d="M397 627l-266 -634l-44 15l261 616h-316v40h365v-37z" />
    <glyph glyph-name="eight" unicode="8" horiz-adv-x="533" 
d="M327 350q79 -32 114.5 -72.5t35.5 -106.5q0 -83 -58.5 -132.5t-153.5 -49.5t-152 50t-57 131q0 133 148 188q-62 27 -90 62t-28 91q0 75 53 119.5t128 44.5t128.5 -43t53.5 -121q0 -53 -29 -90.5t-93 -70.5zM132 510q0 -48 26.5 -77t95.5 -55l37 -14q59 31 85 64.5
t26 80.5q0 61 -37.5 94.5t-97.5 33.5q-59 0 -97 -33.5t-38 -93.5zM266 30q73 0 118 37t45 104q0 61 -33 93.5t-116 64.5l-36 14q-74 -28 -107 -69t-33 -104q0 -67 44 -103.5t118 -36.5z" />
    <glyph glyph-name="nine" unicode="9" horiz-adv-x="515" 
d="M254 675q99 0 148 -70.5t49 -200.5q0 -126 -39.5 -210t-107.5 -130.5t-180 -81.5l-12 36q140 44 212 119.5t80 210.5q-65 -98 -169 -98q-78 0 -128.5 56.5t-50.5 151.5q0 99 55.5 158t142.5 59zM242 290q93 0 162 105q0 122 -35.5 181.5t-113.5 59.5q-70 0 -110.5 -47
t-40.5 -132q0 -79 37.5 -123t100.5 -44z" />
    <glyph glyph-name="colon" unicode=":" horiz-adv-x="195" 
d="M97 468q18 0 29.5 -11.5t11.5 -29.5q0 -16 -11.5 -27.5t-29.5 -11.5q-17 0 -28.5 11.5t-11.5 27.5q0 17 11.5 29t28.5 12zM97 69q18 0 29.5 -11.5t11.5 -28.5t-11.5 -28.5t-29.5 -11.5q-17 0 -28.5 11.5t-11.5 28.5t11.5 28.5t28.5 11.5z" />
    <glyph glyph-name="semicolon" unicode=";" horiz-adv-x="195" 
d="M97 468q18 0 29.5 -11.5t11.5 -29.5q0 -16 -11.5 -27.5t-29.5 -11.5q-17 0 -28.5 11.5t-11.5 27.5q0 17 11.5 29t28.5 12zM97 69q18 0 29.5 -11.5t11.5 -28.5q0 -15 -14 -49l-52 -126h-34l40 141q-21 10 -21 34q0 17 11.5 28.5t28.5 11.5z" />
    <glyph glyph-name="less" unicode="&#x3c;" horiz-adv-x="496" 
d="M427 482l-314 -149l314 -152l-17 -39l-341 171v40l341 168z" />
    <glyph glyph-name="equal" unicode="=" horiz-adv-x="491" 
d="M72 436h347v-42h-347v42zM72 267h347v-41h-347v41z" />
    <glyph glyph-name="greater" unicode="&#x3e;" horiz-adv-x="496" 
d="M427 353v-40l-341 -171l-17 39l314 152l-314 149l17 39z" />
    <glyph glyph-name="question" unicode="?" horiz-adv-x="443" 
d="M233 694q76 0 121 -41t45 -101q0 -35 -13.5 -62.5t-34 -44t-44.5 -34.5t-44.5 -34t-34 -43t-13.5 -62v-58h-45v62q0 39 13.5 69.5t33.5 48t43 35t43 31.5t33.5 37t13.5 53q0 47 -32 75.5t-87 28.5q-47 0 -82.5 -18t-71.5 -57l-32 25q78 90 188 90zM195 69
q18 0 29.5 -11.5t11.5 -28.5t-11.5 -28.5t-29.5 -11.5q-17 0 -28.5 11.5t-11.5 28.5t11.5 28.5t28.5 11.5z" />
    <glyph glyph-name="at" unicode="@" horiz-adv-x="1020" 
d="M526 694q191 0 297.5 -111.5t106.5 -274.5q0 -149 -50 -222t-126 -73q-48 0 -79 31t-40 80q-49 -109 -150 -109q-72 0 -119 57.5t-47 159.5q0 123 57.5 186.5t148.5 63.5q69 0 141 -36v-257q0 -138 88 -138q57 0 93 59.5t36 195.5q0 151 -94.5 249.5t-262.5 98.5
q-172 0 -280.5 -119.5t-108.5 -291.5q0 -186 106 -295.5t282 -109.5q97 0 188 33l12 -38q-104 -36 -201 -36q-193 0 -313.5 120t-120.5 326q0 189 122 320t314 131zM490 54q48 0 82.5 32.5t49.5 79.5v255q-46 23 -96 23q-75 0 -118 -55.5t-43 -156.5q0 -87 34 -132.5
t91 -45.5z" />
    <glyph glyph-name="A" unicode="A" horiz-adv-x="562" 
d="M428 192h-297l-63 -192h-48l231 684h60l231 -684h-51zM415 234l-134 411l-136 -411h270z" />
    <glyph glyph-name="B" unicode="B" horiz-adv-x="594" 
d="M380 363q69 -7 113.5 -49.5t44.5 -125.5q0 -92 -62.5 -140t-175.5 -48h-185v684h149q116 0 178.5 -43t62.5 -127q0 -65 -33.5 -103t-91.5 -48zM162 643v-263h150q65 0 104.5 35t39.5 96q0 132 -187 132h-107zM301 41q187 0 187 147q0 76 -46.5 114t-123.5 38h-156v-299
h139z" />
    <glyph glyph-name="C" unicode="C" horiz-adv-x="547" 
d="M344 694q96 0 171 -61l-26 -32q-66 52 -142 52q-101 0 -164 -76.5t-63 -234.5q0 -152 62.5 -231t161.5 -79q49 0 82.5 14.5t69.5 43.5l27 -32q-74 -69 -181 -69q-121 0 -196.5 92.5t-75.5 260.5q0 169 77.5 260.5t196.5 91.5z" />
    <glyph glyph-name="D" unicode="D" horiz-adv-x="628" 
d="M248 684q50 0 91.5 -7.5t83.5 -30t70.5 -58.5t46.5 -97.5t18 -142.5q0 -82 -18.5 -145t-48 -100.5t-70.5 -61.5t-81 -32.5t-85 -8.5h-140v684h133zM162 643v-602h96q250 0 250 307q0 74 -15.5 129t-39 86t-59 50t-68.5 24.5t-75 5.5h-89z" />
    <glyph glyph-name="E" unicode="E" horiz-adv-x="504" 
d="M448 643h-286v-266h247v-41h-247v-295h298v-41h-345v684h339z" />
    <glyph glyph-name="F" unicode="F" horiz-adv-x="477" 
d="M442 643h-280v-279h242v-40h-242v-324h-47v684h333z" />
    <glyph glyph-name="G" unicode="G" horiz-adv-x="614" 
d="M349 694q57 0 99 -15.5t85 -49.5l-29 -30q-70 54 -154 54q-94 0 -162 -77t-68 -231q0 -156 61.5 -235t169.5 -79q80 0 148 37v256h-138l-6 41h191v-321q-93 -55 -197 -55q-128 0 -203.5 91.5t-75.5 264.5q0 85 24 153.5t64 110t89 63.5t102 22z" />
    <glyph glyph-name="H" unicode="H" horiz-adv-x="667" 
d="M504 339h-342v-339h-47v684h47v-303h342v303h48v-684h-48v339z" />
    <glyph glyph-name="I" unicode="I" horiz-adv-x="277" 
d="M163 0h-48v684h48v-684z" />
    <glyph glyph-name="J" unicode="J" horiz-adv-x="286" 
d="M177 90q0 -84 -31 -125.5t-117 -77.5l-13 35q68 31 90.5 66t22.5 105v591h48v-594z" />
    <glyph glyph-name="K" unicode="K" horiz-adv-x="533" 
d="M162 0h-47v684h47v-684zM224 369l309 -369h-59l-308 367l295 317h55z" />
    <glyph glyph-name="L" unicode="L" horiz-adv-x="466" 
d="M162 44h288l-7 -44h-328v684h47v-640z" />
    <glyph glyph-name="M" unicode="M" horiz-adv-x="772" 
d="M696 0h-46l-34 334q-19 178 -29 305l-180 -557h-46l-186 557q-2 -48 -26 -300l-32 -339h-45l67 684h67l179 -546l174 546h68z" />
    <glyph glyph-name="N" unicode="N" horiz-adv-x="669" 
d="M554 0h-61l-339 631q6 -88 6 -224v-407h-45v684h61l339 -631q-6 99 -6 200v431h45v-684z" />
    <glyph glyph-name="O" unicode="O" horiz-adv-x="691" 
d="M345 694q126 0 201 -92t75 -261q0 -166 -74.5 -259t-201.5 -93q-125 0 -200 92t-75 259q0 166 75.5 260t199.5 94zM345 653q-104 0 -164.5 -79.5t-60.5 -233.5q0 -151 61 -230t164 -79q107 0 166.5 78.5t59.5 231.5q0 154 -60 233t-166 79z" />
    <glyph glyph-name="P" unicode="P" horiz-adv-x="566" 
d="M268 684q249 0 249 -203q0 -109 -67.5 -159t-184.5 -50h-103v-272h-47v684h153zM266 312q96 0 148.5 38.5t52.5 129.5q0 88 -50 125.5t-149 37.5h-106v-331h104z" />
    <glyph glyph-name="Q" unicode="Q" horiz-adv-x="678" 
d="M442 18q126 -2 201 -67l-32 -40q-53 46 -112 63t-154 17q-125 0 -200 91t-75 258q0 166 75.5 260t199.5 94q126 0 201 -92t75 -261q0 -265 -179 -323zM120 340q0 -151 61 -230t164 -79q107 0 166.5 78.5t59.5 231.5q0 154 -60 233t-166 79q-104 0 -164.5 -79.5
t-60.5 -233.5z" />
    <glyph glyph-name="R" unicode="R" horiz-adv-x="584" 
d="M310 313h-148v-313h-47v684h161q237 0 237 -183q0 -75 -39.5 -118t-114.5 -62l189 -321h-58zM283 353q180 0 180 148q0 72 -44.5 107t-145.5 35h-111v-290h121z" />
    <glyph glyph-name="S" unicode="S" horiz-adv-x="537" 
d="M266 694q62 0 105.5 -18.5t85.5 -55.5l-29 -32q-71 65 -161 65q-67 0 -107.5 -33.5t-40.5 -88.5q0 -56 35 -86.5t128 -58.5q103 -31 149.5 -74.5t46.5 -126.5q0 -87 -60.5 -141.5t-159.5 -54.5q-124 0 -214 85l29 31q79 -74 184 -74q77 0 125 41t48 112q0 65 -36 99
t-131 63q-105 32 -148.5 73t-43.5 111q0 71 54 117.5t141 46.5z" />
    <glyph glyph-name="T" unicode="T" horiz-adv-x="487" 
d="M471 641h-204v-641h-47v641h-205v43h462z" />
    <glyph glyph-name="U" unicode="U" horiz-adv-x="648" 
d="M543 211q0 -101 -55.5 -161.5t-163.5 -60.5q-109 0 -164 60.5t-55 161.5v473h47v-469q0 -87 42.5 -135t129.5 -48t129 48.5t42 134.5v469h48v-473z" />
    <glyph glyph-name="V" unicode="V" horiz-adv-x="543" 
d="M299 0h-55l-224 684h51l201 -636l201 636h50z" />
    <glyph glyph-name="W" unicode="W" horiz-adv-x="804" 
d="M617 0h-58l-157 633l-158 -633h-57l-155 684h49l137 -639l157 639h54l159 -639l137 639h46z" />
    <glyph glyph-name="X" unicode="X" horiz-adv-x="502" 
d="M493 0h-54l-190 338l-185 -338h-52l210 368l-189 316h54l163 -285l161 285h52l-185 -313z" />
    <glyph glyph-name="Y" unicode="Y" horiz-adv-x="513" 
d="M281 269v-269h-47v268l-218 416h53l190 -374l186 374h52z" />
    <glyph glyph-name="Z" unicode="Z" horiz-adv-x="514" 
d="M465 644l-373 -601h364l-6 -43h-413v40l375 602h-337v42h390v-40z" />
    <glyph glyph-name="bracketleft" unicode="[" horiz-adv-x="315" 
d="M243 766h-110v-840h110v-37h-152v914h152v-37z" />
    <glyph glyph-name="backslash" unicode="\" horiz-adv-x="520" 
d="M396 -88l-41 -10l-231 889l40 10z" />
    <glyph glyph-name="bracketright" unicode="]" horiz-adv-x="315" 
d="M224 -111h-152v37h110v840h-110v37h152v-914z" />
    <glyph glyph-name="asciicircum" unicode="^" horiz-adv-x="527" 
d="M465 527h-53l-148 254l-148 -254h-54l183 303h37z" />
    <glyph glyph-name="underscore" unicode="_" horiz-adv-x="520" 
d="M33 -73h455v-42h-455v42z" />
    <glyph glyph-name="grave" unicode="`" horiz-adv-x="265" 
d="M235 676l-15 -28l-190 84l21 44z" />
    <glyph glyph-name="a" unicode="a" horiz-adv-x="534" 
d="M425 113q0 -44 10.5 -63t33.5 -28l-11 -33q-34 9 -51.5 30t-21.5 62q-57 -92 -165 -92q-74 0 -117 42.5t-43 113.5q0 80 57 124t155 44h107v54q0 65 -29 95t-96 30q-63 0 -142 -31l-13 37q87 34 159 34q167 0 167 -162v-257zM226 28q101 0 153 99v149h-100
q-82 0 -126 -32.5t-44 -97.5q0 -56 31 -87t86 -31z" />
    <glyph glyph-name="b" unicode="b" horiz-adv-x="576" 
d="M316 532q90 0 139.5 -69.5t49.5 -198.5q0 -128 -51.5 -201.5t-144.5 -73.5q-94 0 -154 80l-5 -69h-40v735l46 6v-294q65 85 160 85zM302 29q74 0 114 60t40 175q0 229 -147 229q-49 0 -84.5 -23.5t-68.5 -68.5v-286q58 -86 146 -86z" />
    <glyph glyph-name="c" unicode="c" horiz-adv-x="466" 
d="M285 532q82 0 143 -51l-24 -32q-51 43 -117 43q-78 0 -124.5 -60t-46.5 -174q0 -112 46 -170t124 -58q67 0 122 47l24 -32q-62 -56 -146 -56q-100 0 -159.5 71.5t-59.5 197.5t59.5 200t158.5 74z" />
    <glyph glyph-name="d" unicode="d" horiz-adv-x="581" 
d="M471 735v-735h-40l-5 82q-54 -93 -160 -93q-89 0 -141.5 72.5t-52.5 197.5q0 123 54.5 198t149.5 75q92 0 149 -73v282zM272 29q53 0 88.5 26t64.5 78v277q-56 83 -143 83q-74 0 -118.5 -62t-43.5 -172t41.5 -170t110.5 -60z" />
    <glyph glyph-name="e" unicode="e" horiz-adv-x="534" 
d="M471 282q0 -21 -2 -41h-354q5 -107 51 -159t120 -52t142 53l23 -30q-77 -64 -167 -64q-101 0 -159 71t-58 197t55.5 200.5t149.5 74.5q97 0 148 -67t51 -183zM426 278v19q0 91 -38 143.5t-114 52.5q-68 0 -111.5 -53.5t-47.5 -161.5h311z" />
    <glyph glyph-name="f" unicode="f" horiz-adv-x="316" 
d="M255 701q-95 0 -95 -91v-88h142l-7 -39h-135v-483h-46v483h-89v39h89v90q0 60 37.5 94.5t101.5 34.5q62 0 120 -28l-17 -35q-52 23 -101 23z" />
    <glyph glyph-name="g" unicode="g" horiz-adv-x="497" 
d="M486 516q-45 -14 -142 -15q88 -42 88 -146q0 -77 -50 -123.5t-135 -46.5q-38 0 -69 11q-44 -24 -44 -64q0 -58 88 -58h86q75 0 119 -35.5t44 -93.5q0 -71 -55 -109.5t-165 -38.5q-114 0 -164.5 34.5t-50.5 112.5h44q1 -59 38 -83t133 -24q173 0 173 105q0 43 -32.5 67
t-90.5 24h-85q-61 0 -94 25.5t-33 64.5q0 51 57 87q-87 46 -87 148q0 78 51 126t136 48q98 -1 140.5 6t84.5 24zM247 495q-70 0 -105.5 -37t-35.5 -100q0 -65 38 -101t102 -36q67 0 103 35t36 100t-35 102t-103 37z" />
    <glyph glyph-name="h" unicode="h" horiz-adv-x="583" 
d="M335 532q70 0 106.5 -42t36.5 -118v-372h-46v366q0 128 -104 128q-95 0 -172 -113v-381h-46v735l46 6v-311q74 102 179 102z" />
    <glyph glyph-name="i" unicode="i" horiz-adv-x="266" 
d="M133 744q16 0 26 -10t10 -25t-10 -25t-26 -10t-26 10t-10 25t10 25t26 10zM156 0h-46v522h46v-522z" />
    <glyph glyph-name="j" unicode="j" horiz-adv-x="266" 
d="M133 744q16 0 26 -10t10 -25t-10 -25t-26 -10t-26 10t-10 25t10 25t26 10zM156 14q0 -96 -29 -138t-102 -76l-13 33q56 28 77 63t21 117v509h46v-508z" />
    <glyph glyph-name="k" unicode="k" horiz-adv-x="480" 
d="M156 0h-46v735l46 6v-741zM217 287l252 -287h-56l-251 285l229 237h54z" />
    <glyph glyph-name="l" unicode="l" horiz-adv-x="281" 
d="M151 84q0 -54 46 -54q17 0 36 7l13 -35q-30 -13 -56 -13q-85 0 -85 96v650l46 6v-657z" />
    <glyph glyph-name="m" unicode="m" horiz-adv-x="851" 
d="M613 532q63 0 98 -42.5t35 -117.5v-372h-46v366q0 128 -94 128q-85 0 -155 -113v-381h-46v366q0 128 -94 128q-85 0 -155 -113v-381h-46v522h40l4 -92q67 102 164 102q50 0 83.5 -28t44.5 -79q70 107 167 107z" />
    <glyph glyph-name="n" unicode="n" horiz-adv-x="583" 
d="M335 532q71 0 107 -41.5t36 -118.5v-372h-46v366q0 128 -104 128q-95 0 -172 -113v-381h-46v522h40l4 -93q74 103 181 103z" />
    <glyph glyph-name="o" unicode="o" horiz-adv-x="567" 
d="M284 532q102 0 159 -70.5t57 -198.5t-58 -201t-159 -73t-158.5 72.5t-57.5 198.5q0 127 58.5 199.5t158.5 72.5zM284 492q-79 0 -124 -59.5t-45 -172.5q0 -111 44 -171t124 -60q79 0 124 60t45 174q0 112 -44 170.5t-124 58.5z" />
    <glyph glyph-name="p" unicode="p" horiz-adv-x="576" 
d="M316 532q93 0 141 -69.5t48 -198.5q0 -128 -51 -201.5t-145 -73.5q-95 0 -153 76v-260l-46 -8v725h40l3 -79q64 89 163 89zM302 30q75 0 114.5 59.5t39.5 174.5q0 229 -146 229q-86 0 -154 -92v-287q56 -84 146 -84z" />
    <glyph glyph-name="q" unicode="q" horiz-adv-x="576" 
d="M466 522v-725l-46 8v274q-55 -90 -158 -90q-90 0 -142.5 72.5t-52.5 197.5q0 123 55 198t150 75q91 0 150 -75l4 65h40zM268 29q53 0 88.5 25.5t63.5 76.5v280q-56 82 -142 82q-74 0 -119 -62t-44 -172t41.5 -170t111.5 -60z" />
    <glyph glyph-name="r" unicode="r" horiz-adv-x="369" 
d="M303 532q34 0 52 -6l-9 -43q-20 6 -46 6q-55 0 -88.5 -39.5t-55.5 -123.5v-326h-46v522h40l3 -121q42 131 150 131z" />
    <glyph glyph-name="s" unicode="s" horiz-adv-x="463" 
d="M233 532q89 0 162 -57l-23 -32q-66 50 -138 50q-55 0 -89 -25.5t-34 -69.5q0 -40 29 -62t103 -42q90 -24 128 -57.5t38 -98.5q0 -68 -51.5 -108.5t-130.5 -40.5q-104 0 -183 67l26 30q71 -57 156 -57q60 0 97.5 28.5t37.5 78.5q0 51 -28.5 75t-112.5 47q-84 22 -120 54.5
t-36 86.5q0 58 48 95.5t121 37.5z" />
    <glyph glyph-name="t" unicode="t" horiz-adv-x="334" 
d="M338 21q-50 -32 -108 -32q-57 0 -89.5 34t-32.5 100v360h-87v39h87v127l46 5v-132h138l-6 -39h-132v-357q0 -96 81 -96q42 0 84 24z" />
    <glyph glyph-name="u" unicode="u" horiz-adv-x="578" 
d="M468 0h-39l-3 97q-61 -108 -173 -108q-71 0 -109.5 41.5t-38.5 118.5v373h46v-369q0 -124 111 -124q96 0 160 112v381h46v-522z" />
    <glyph glyph-name="v" unicode="v" horiz-adv-x="462" 
d="M264 0h-58l-189 522h51l167 -482l160 482h50z" />
    <glyph glyph-name="w" unicode="w" horiz-adv-x="692" 
d="M534 0h-62l-125 478l-125 -478h-61l-134 522h49l117 -484l128 484h54l128 -485l116 485h45z" />
    <glyph glyph-name="x" unicode="x" horiz-adv-x="449" 
d="M437 0h-55l-159 250l-158 -250h-53l184 278l-160 244h54l135 -215l135 215h53l-161 -242z" />
    <glyph glyph-name="y" unicode="y" horiz-adv-x="459" 
d="M261 -2q-31 -91 -73 -135t-129 -64l-6 36q74 20 104.5 53.5t59.5 111.5h-17l-183 522h50l165 -488l160 488h50z" />
    <glyph glyph-name="z" unicode="z" horiz-adv-x="417" 
d="M382 485l-298 -444h295l-5 -41h-345v36l299 445h-275v41h329v-37z" />
    <glyph glyph-name="braceleft" unicode="{" horiz-adv-x="327" 
d="M256 790q-46 0 -65 -19.5t-19 -63.5v-258q0 -49 -17.5 -69.5t-57.5 -30.5q40 -10 57.5 -30.5t17.5 -69.5v-258q0 -44 19 -63.5t65 -19.5v-35q-64 0 -95.5 28t-31.5 89v267q0 72 -78 72v40q78 0 78 73v267q0 61 31.5 89t95.5 28v-36z" />
    <glyph glyph-name="bar" unicode="|" horiz-adv-x="408" 
d="M226 -100h-44v903h44v-903z" />
    <glyph glyph-name="braceright" unicode="}" horiz-adv-x="327" 
d="M71 826q64 0 95.5 -28t31.5 -89v-267q0 -73 78 -73v-40q-78 0 -78 -72v-267q0 -61 -31.5 -89t-95.5 -28v35q46 0 65.5 20t19.5 63v258q0 49 17.5 69.5t57.5 30.5q-40 10 -57.5 30.5t-17.5 69.5v258q0 43 -19.5 63t-65.5 20v36z" />
    <glyph glyph-name="asciitilde" unicode="~" horiz-adv-x="466" 
d="M159 366q33 0 82 -28t71 -28t35 10t31 33l30 -17q-20 -32 -42 -49.5t-56 -17.5q-32 0 -82 28t-71 28q-16 0 -29 -6.5t-20 -14.5t-20 -24l-31 17q21 33 44 51t58 18z" />
    <glyph glyph-name="uni00A0" unicode="&#xa0;" horiz-adv-x="285" 
 />
    <glyph glyph-name="exclamdown" unicode="&#xa1;" horiz-adv-x="240" 
d="M120 468q18 0 29 -11.5t11 -28.5t-11 -28.5t-29 -11.5t-29 11.5t-11 28.5t11 28.5t29 11.5zM145 -195h-48l3 445h42z" />
    <glyph glyph-name="cent" unicode="&#xa2;" horiz-adv-x="466" 
d="M432 45q-56 -49 -127 -55v-139h-41v139q-91 8 -144 78.5t-53 189.5t53.5 192t144.5 81v148h40v-148q69 -4 123 -50l-24 -32q-51 43 -117 43q-78 0 -124.5 -60t-46.5 -174q0 -112 46 -170t124 -58q67 0 122 47z" />
    <glyph glyph-name="sterling" unicode="&#xa3;" horiz-adv-x="510" 
d="M184 159q0 -48 -15.5 -73.5t-52.5 -44.5h331l-6 -41h-386v40q47 22 65 46t18 72v177h-65v36h65v131q0 76 43 124.5t123 48.5q94 0 156 -72l-31 -26q-50 58 -124 58q-58 0 -89.5 -36.5t-31.5 -97.5v-130h216v-36h-216v-176z" />
    <glyph glyph-name="currency" unicode="&#xa4;" 
d="M466 341q0 -75 -42 -126l80 -79l-29 -29l-81 79q-48 -35 -114 -35q-67 0 -114 36l-81 -80l-29 29l81 80q-41 52 -41 125q0 71 41 123l-81 80l29 29l81 -80q48 37 114 37q68 0 115 -36l80 79l29 -29l-80 -78q42 -51 42 -125zM281 189q68 0 104 41.5t36 110.5t-36 110
t-104 41t-104 -41t-36 -110t36 -110.5t104 -41.5z" />
    <glyph glyph-name="yen" unicode="&#xa5;" horiz-adv-x="503" 
d="M293 336h118v-37h-135v-107h135v-37h-135v-155h-47v155h-134v37h134v107h-134v37h117l-196 328h53l185 -320l182 320h51z" />
    <glyph glyph-name="brokenbar" unicode="&#xa6;" horiz-adv-x="408" 
d="M226 663v-622h-44v622h44z" />
    <glyph glyph-name="section" unicode="&#xa7;" horiz-adv-x="532" 
d="M366 164q54 -35 54 -98q0 -61 -46.5 -97t-120.5 -36q-87 0 -161 46l21 34q60 -41 141 -41q55 0 87 25t32 65t-24 62t-100 48q-88 30 -124 60t-36 87q0 71 80 127q-54 33 -54 96q0 60 45.5 96t113.5 36q81 0 154 -47l-21 -32q-62 40 -134 40q-50 0 -81 -26t-31 -65
t25.5 -61t106.5 -49q83 -28 117 -60.5t34 -87.5q0 -72 -78 -122zM135 323q0 -43 25 -65.5t102 -49.5q46 -16 73 -28q63 42 63 103q0 41 -23.5 65.5t-97.5 49.5q-51 18 -78 31q-64 -46 -64 -106z" />
    <glyph glyph-name="dieresis" unicode="&#xa8;" horiz-adv-x="310" 
d="M64 732q15 0 24.5 -9.5t9.5 -23.5t-9.5 -23.5t-24.5 -9.5t-24.5 9.5t-9.5 23.5t9.5 23.5t24.5 9.5zM246 732q14 0 23.5 -9.5t9.5 -23.5t-9.5 -23.5t-23.5 -9.5q-15 0 -24.5 9.5t-9.5 23.5t9.5 23.5t24.5 9.5z" />
    <glyph glyph-name="copyright" unicode="&#xa9;" horiz-adv-x="810" 
d="M405 732q124 0 207.5 -84.5t83.5 -212.5t-83.5 -212.5t-207.5 -84.5q-125 0 -208 84t-83 213q0 128 83.5 212.5t207.5 84.5zM406 697q-110 0 -181.5 -74t-71.5 -188q0 -116 71.5 -189t181.5 -73q109 0 180 74t71 188q0 115 -71 188.5t-180 73.5zM407 612q53 0 96 -32
l-21 -28q-32 24 -74 24q-41 0 -71.5 -33t-30.5 -107q0 -69 28 -105t74 -36t84 28l18 -28q-44 -37 -103 -37q-64 0 -103.5 48t-39.5 130q0 85 42.5 130.5t100.5 45.5z" />
    <glyph glyph-name="ordfeminine" unicode="&#xaa;" horiz-adv-x="500" 
d="M337 520v37q0 47 -21.5 67.5t-75.5 20.5q-49 0 -112 -22l-12 35q71 26 128 26q139 0 139 -123v-190q0 -31 7.5 -44t25.5 -21l-10 -31q-54 12 -62 64q-46 -64 -130 -64q-61 0 -95.5 31.5t-34.5 85.5q0 61 46 94.5t125 33.5h82zM220 313q77 0 117 69v103h-75
q-130 0 -130 -91q0 -40 23.5 -60.5t64.5 -20.5zM431 41v-41h-347v41h347z" />
    <glyph glyph-name="guillemotleft" unicode="&#xab;" horiz-adv-x="548" 
d="M266 495l-138 -207l138 -207l-29 -19l-160 210v31l160 211zM471 495l-138 -207l138 -207l-29 -19l-159 210v31l159 211z" />
    <glyph glyph-name="logicalnot" unicode="&#xac;" horiz-adv-x="499" 
d="M427 178h-45v122h-310v42h355v-164z" />
    <glyph glyph-name="softhyphen" unicode="&#xad;" horiz-adv-x="400" 
d="M71 333h258v-40h-258v40z" />
    <glyph glyph-name="registered" unicode="&#xae;" horiz-adv-x="639" 
d="M319 732q99 0 167.5 -67t68.5 -166q0 -98 -68.5 -167t-167.5 -69t-167 67t-68 166q0 98 68.5 167t166.5 69zM319 295q84 0 142.5 59.5t58.5 144.5q0 86 -57.5 143.5t-143.5 57.5q-83 0 -141.5 -59.5t-58.5 -144.5q0 -86 58 -143.5t142 -57.5zM415 556q0 -56 -62 -72
l74 -118h-45l-66 113h-40v-113h-37v270h66q110 0 110 -80zM276 510h42q60 0 60 46q0 27 -16.5 38t-50.5 11h-35v-95z" />
    <glyph glyph-name="macron" unicode="&#xaf;" horiz-adv-x="289" 
d="M30 679v39h229v-39h-229z" />
    <glyph glyph-name="degree" unicode="&#xb0;" horiz-adv-x="520" 
d="M219 400q-59 0 -102 40.5t-43 107.5q0 65 43.5 105.5t101.5 40.5q62 0 104 -40t42 -107q0 -66 -42 -106.5t-104 -40.5zM219 437q46 0 74.5 30t28.5 80t-28 80t-75 30q-44 0 -73.5 -30t-29.5 -79t29.5 -80t73.5 -31z" />
    <glyph glyph-name="plusminus" unicode="&#xb1;" horiz-adv-x="491" 
d="M268 357h151v-41h-151v-153h-44v153h-152v41h152v153h44v-153zM72 41h347v-41h-347v41z" />
    <glyph glyph-name="twosuperior" unicode="&#xb2;" horiz-adv-x="400" 
d="M197 741q56 0 88.5 -31t32.5 -79q0 -57 -36.5 -106.5t-153.5 -164.5h202l-7 -37h-245v35q125 125 160.5 173t35.5 97q0 37 -21 57t-58 20q-56 0 -95 -45l-30 21q51 60 127 60z" />
    <glyph glyph-name="threesuperior" unicode="&#xb3;" horiz-adv-x="400" 
d="M200 743q55 0 88 -28.5t33 -74.5q0 -40 -23.5 -65.5t-61.5 -31.5q42 -2 69 -29.5t27 -74.5q0 -55 -38 -89.5t-102 -34.5q-75 0 -125 55l26 23q42 -42 97 -42q48 0 73.5 24t25.5 64q0 84 -95 84h-28l5 34h20q36 0 62 20t26 59q0 34 -22 53t-59 19q-52 0 -97 -38l-23 26
q55 47 122 47z" />
    <glyph glyph-name="acute" unicode="&#xb4;" horiz-adv-x="267" 
d="M235 732l-190 -84l-15 28l184 100z" />
    <glyph glyph-name="uni00B5" unicode="&#xb5;" horiz-adv-x="584" 
d="M452 -8q-21 52 -26 115q-67 -118 -165 -118q-88 0 -114 70q9 -59 9 -133v-121l-46 -5v722h46v-374q0 -61 30 -89t75 -28q98 0 159 124v367h46v-346q0 -98 28 -179z" />
    <glyph glyph-name="paragraph" unicode="&#xb6;" horiz-adv-x="699" 
d="M544 684v-879l-43 -8v847h-134v-839l-43 -8v501q-115 4 -167 56.5t-52 136.5q0 92 59.5 142t167.5 50z" />
    <glyph glyph-name="periodcentered" unicode="&#xb7;" horiz-adv-x="195" 
d="M97 361q19 0 30 -11.5t11 -28.5t-11.5 -28t-29.5 -11q-17 0 -28.5 11t-11.5 28t11.5 28.5t28.5 11.5z" />
    <glyph glyph-name="cedilla" unicode="&#xb8;" horiz-adv-x="235" 
d="M113 -67q92 -7 92 -73q0 -38 -28.5 -60t-70.5 -22q-43 0 -76 20l16 30q28 -15 59 -15q25 0 41 12t16 35q0 45 -89 45l9 111h31v-83z" />
    <glyph glyph-name="onesuperior" unicode="&#xb9;" horiz-adv-x="400" 
d="M252 323h-41v366l-105 -61l-19 30l131 78h34v-413z" />
    <glyph glyph-name="ordmasculine" unicode="&#xba;" horiz-adv-x="500" 
d="M249 684q83 0 129.5 -53t46.5 -150q0 -96 -47.5 -151t-129.5 -55t-129 54.5t-47 149.5t48 150t129 55zM250 645q-61 0 -95.5 -42t-34.5 -124q0 -80 34 -123t95 -43t95 42.5t34 125.5q0 81 -33 122.5t-95 41.5zM75 41h347v-41h-347v41z" />
    <glyph glyph-name="guillemotright" unicode="&#xbb;" horiz-adv-x="539" 
d="M266 303v-31l-160 -210l-29 19l138 207l-138 207l29 19zM461 303v-31l-159 -210l-29 19l138 207l-138 207l29 19z" />
    <glyph glyph-name="onequarter" unicode="&#xbc;" horiz-adv-x="908" 
d="M675 730l-408 -798l-34 16l408 798zM211 271v366l-105 -61l-19 30l131 78h34v-413h-41zM851 106h-57v-106h-41v106h-189v31l130 283l36 -14l-122 -265h145l5 119h36v-119h57v-35z" />
    <glyph glyph-name="onehalf" unicode="&#xbd;" horiz-adv-x="908" 
d="M675 730l-408 -798l-34 16l408 798zM252 271h-41v366l-105 -61l-19 30l131 78h34v-413zM705 418q56 0 88.5 -31t32.5 -79q0 -57 -36.5 -106.5t-153.5 -164.5h202l-7 -37h-245v35q125 125 160.5 173t35.5 97q0 37 -21 57t-58 20q-56 0 -95 -45l-30 21q51 60 127 60z" />
    <glyph glyph-name="threequarters" unicode="&#xbe;" horiz-adv-x="908" 
d="M675 730l-408 -798l-34 16l408 798zM332 387q0 -55 -38 -89.5t-102 -34.5q-75 0 -125 55l26 23q42 -42 97 -42q48 0 73.5 24t25.5 64q0 84 -95 84h-28l5 34h20q36 0 62 20t26 59q0 34 -22 53t-59 19q-52 0 -97 -38l-23 26q55 47 122 47q55 0 88 -28.5t33 -74.5
q0 -40 -23.5 -65.5t-61.5 -31.5q42 -2 69 -29.5t27 -74.5zM851 106h-57v-106h-41v106h-189v31l130 283l36 -14l-122 -265h145l5 119h36v-119h57v-35z" />
    <glyph glyph-name="questiondown" unicode="&#xbf;" horiz-adv-x="443" 
d="M248 388q-18 0 -29 11.5t-11 28.5t11 28.5t29 11.5q17 0 28.5 -11.5t11.5 -28.5t-11.5 -28.5t-28.5 -11.5zM211 -203q-76 0 -121 40.5t-45 96.5q0 42 18.5 72.5t45.5 49.5t54 37.5t45.5 46t18.5 63.5v47h45v-50q0 -42 -18.5 -73.5t-45 -50.5t-52.5 -37t-44.5 -43.5
t-18.5 -60.5q0 -43 33 -70.5t86 -27.5q86 0 154 75l33 -25q-80 -90 -188 -90z" />
    <glyph glyph-name="Agrave" unicode="&#xc0;" horiz-adv-x="562" 
d="M364 759l-192 77l22 44l183 -92zM428 192h-297l-63 -192h-48l231 684h60l231 -684h-51zM415 234l-134 411l-136 -411h270z" />
    <glyph glyph-name="Aacute" unicode="&#xc1;" horiz-adv-x="562" 
d="M196 759l-13 29l183 92l22 -44zM428 192h-297l-63 -192h-48l231 684h60l231 -684h-51zM415 234l-134 411l-136 -411h270z" />
    <glyph glyph-name="Acircumflex" unicode="&#xc2;" horiz-adv-x="562" 
d="M161 763l-21 25l128 99h27l127 -99l-21 -25l-119 80zM428 192h-297l-63 -192h-48l231 684h60l231 -684h-51zM415 234l-134 411l-136 -411h270z" />
    <glyph glyph-name="Atilde" unicode="&#xc3;" horiz-adv-x="562" 
d="M222 840q-20 0 -30.5 -7.5t-26.5 -29.5l-29 15q37 60 86 60q22 0 60 -22t58 -22q27 0 56 43l29 -15q-32 -66 -82 -66q-31 0 -68.5 22t-52.5 22zM428 192h-297l-63 -192h-48l231 684h60l231 -684h-51zM415 234l-134 411l-136 -411h270z" />
    <glyph glyph-name="Adieresis" unicode="&#xc4;" horiz-adv-x="562" 
d="M190 792q-15 0 -24.5 9.5t-9.5 23.5t9.5 23.5t24.5 9.5t24.5 -9.5t9.5 -23.5t-9.5 -23.5t-24.5 -9.5zM372 792q-15 0 -24.5 9.5t-9.5 23.5t9.5 23.5t24.5 9.5q14 0 23.5 -9.5t9.5 -23.5t-9.5 -23.5t-23.5 -9.5zM428 192h-297l-63 -192h-48l231 684h60l231 -684h-51z
M415 234l-134 411l-136 -411h270z" />
    <glyph glyph-name="Aring" unicode="&#xc5;" horiz-adv-x="562" 
d="M281 762q-41 0 -67 25t-26 65t26 64.5t67 24.5t67 -24.5t26 -64.5t-26 -65t-67 -25zM281 911q-27 0 -41.5 -15.5t-14.5 -43.5q0 -59 56 -59t56 59q0 28 -14.5 43.5t-41.5 15.5zM428 192h-297l-63 -192h-48l231 684h60l231 -684h-51zM415 234l-134 411l-136 -411h270z" />
    <glyph glyph-name="AE" unicode="&#xc6;" horiz-adv-x="772" 
d="M729 41v-41h-267l-48 188h-291l-71 -188h-48l265 684h410l-6 -41h-330l69 -266h259v-41h-248l76 -295h230zM404 229l-107 417l-158 -417h265z" />
    <glyph glyph-name="Ccedilla" unicode="&#xc7;" horiz-adv-x="547" 
d="M353 -67q92 -7 92 -73q0 -38 -28.5 -60t-70.5 -22q-43 0 -76 20l16 30q28 -15 59 -15q25 0 41 12t16 35q0 45 -89 45l7 85q-112 9 -181 100.5t-69 251.5q0 169 77.5 260.5t196.5 91.5q96 0 171 -61l-26 -32q-66 52 -142 52q-101 0 -164 -76.5t-63 -234.5
q0 -152 62.5 -231t161.5 -79q49 0 82.5 14.5t69.5 43.5l27 -32q-70 -65 -170 -69v-56z" />
    <glyph glyph-name="Egrave" unicode="&#xc8;" horiz-adv-x="504" 
d="M384 788l-13 -29l-192 77l22 44zM448 643h-286v-266h247v-41h-247v-295h298v-41h-345v684h339z" />
    <glyph glyph-name="Eacute" unicode="&#xc9;" horiz-adv-x="504" 
d="M396 836l-192 -77l-13 29l183 92zM448 643h-286v-266h247v-41h-247v-295h298v-41h-345v684h339z" />
    <glyph glyph-name="Ecircumflex" unicode="&#xca;" horiz-adv-x="504" 
d="M289 843l-121 -80l-21 25l128 99h27l127 -99l-21 -25zM448 643h-286v-266h247v-41h-247v-295h298v-41h-345v684h339z" />
    <glyph glyph-name="Edieresis" unicode="&#xcb;" horiz-adv-x="504" 
d="M197 858q15 0 24.5 -9.5t9.5 -23.5t-9.5 -23.5t-24.5 -9.5t-24.5 9.5t-9.5 23.5t9.5 23.5t24.5 9.5zM379 858q14 0 23.5 -9.5t9.5 -23.5t-9.5 -23.5t-23.5 -9.5q-15 0 -24.5 9.5t-9.5 23.5t9.5 23.5t24.5 9.5zM448 643h-286v-266h247v-41h-247v-295h298v-41h-345v684h339
z" />
    <glyph glyph-name="Igrave" unicode="&#xcc;" horiz-adv-x="277" 
d="M234 788l-13 -29l-192 77l22 44zM163 0h-48v684h48v-684z" />
    <glyph glyph-name="Iacute" unicode="&#xcd;" horiz-adv-x="277" 
d="M245 836l-192 -77l-13 29l183 92zM163 0h-48v684h48v-684z" />
    <glyph glyph-name="Icircumflex" unicode="&#xce;" horiz-adv-x="277" 
d="M139 843l-121 -80l-21 25l128 99h27l127 -99l-21 -25zM163 0h-48v684h48v-684z" />
    <glyph glyph-name="Idieresis" unicode="&#xcf;" horiz-adv-x="277" 
d="M47 858q15 0 24.5 -9.5t9.5 -23.5t-9.5 -23.5t-24.5 -9.5t-24.5 9.5t-9.5 23.5t9.5 23.5t24.5 9.5zM229 858q14 0 23.5 -9.5t9.5 -23.5t-9.5 -23.5t-23.5 -9.5q-15 0 -24.5 9.5t-9.5 23.5t9.5 23.5t24.5 9.5zM163 0h-48v684h48v-684z" />
    <glyph glyph-name="Eth" unicode="&#xd0;" horiz-adv-x="628" 
d="M248 684q50 0 91.5 -7.5t83.5 -30t70.5 -58.5t46.5 -97.5t18 -142.5q0 -82 -18.5 -145t-48 -100.5t-70.5 -61.5t-81 -32.5t-85 -8.5h-140v334h-91v38h91v312h133zM258 41q250 0 250 307q0 74 -15.5 129t-39 86t-59 50t-68.5 24.5t-75 5.5h-89v-271h182v-38h-182v-293h96z
" />
    <glyph glyph-name="Ntilde" unicode="&#xd1;" horiz-adv-x="669" 
d="M405 796q-31 0 -68.5 22t-52.5 22q-20 0 -30.5 -7.5t-26.5 -29.5l-29 15q37 60 86 60q22 0 60 -22t58 -22q27 0 56 43l29 -15q-32 -66 -82 -66zM554 0h-61l-339 631q6 -88 6 -224v-407h-45v684h61l339 -631q-6 99 -6 200v431h45v-684z" />
    <glyph glyph-name="Ograve" unicode="&#xd2;" horiz-adv-x="691" 
d="M431 788l-13 -29l-192 77l22 44zM345 694q126 0 201 -92t75 -261q0 -166 -74.5 -259t-201.5 -93q-125 0 -200 92t-75 259q0 166 75.5 260t199.5 94zM345 653q-104 0 -164.5 -79.5t-60.5 -233.5q0 -151 61 -230t164 -79q107 0 166.5 78.5t59.5 231.5q0 154 -60 233
t-166 79z" />
    <glyph glyph-name="Oacute" unicode="&#xd3;" horiz-adv-x="691" 
d="M442 836l-192 -77l-13 29l183 92zM345 694q126 0 201 -92t75 -261q0 -166 -74.5 -259t-201.5 -93q-125 0 -200 92t-75 259q0 166 75.5 260t199.5 94zM345 653q-104 0 -164.5 -79.5t-60.5 -233.5q0 -151 61 -230t164 -79q107 0 166.5 78.5t59.5 231.5q0 154 -60 233
t-166 79z" />
    <glyph glyph-name="Ocircumflex" unicode="&#xd4;" horiz-adv-x="691" 
d="M336 843l-121 -80l-21 25l128 99h27l127 -99l-21 -25zM345 694q126 0 201 -92t75 -261q0 -166 -74.5 -259t-201.5 -93q-125 0 -200 92t-75 259q0 166 75.5 260t199.5 94zM345 653q-104 0 -164.5 -79.5t-60.5 -233.5q0 -151 61 -230t164 -79q107 0 166.5 78.5t59.5 231.5
q0 154 -60 233t-166 79z" />
    <glyph glyph-name="Otilde" unicode="&#xd5;" horiz-adv-x="691" 
d="M397 796q-31 0 -68.5 22t-52.5 22q-20 0 -30.5 -7.5t-26.5 -29.5l-29 15q37 60 86 60q22 0 60 -22t58 -22q27 0 56 43l29 -15q-32 -66 -82 -66zM345 694q126 0 201 -92t75 -261q0 -166 -74.5 -259t-201.5 -93q-125 0 -200 92t-75 259q0 166 75.5 260t199.5 94zM345 653
q-104 0 -164.5 -79.5t-60.5 -233.5q0 -151 61 -230t164 -79q107 0 166.5 78.5t59.5 231.5q0 154 -60 233t-166 79z" />
    <glyph glyph-name="Odieresis" unicode="&#xd6;" horiz-adv-x="691" 
d="M244 858q15 0 24.5 -9.5t9.5 -23.5t-9.5 -23.5t-24.5 -9.5t-24.5 9.5t-9.5 23.5t9.5 23.5t24.5 9.5zM426 858q14 0 23.5 -9.5t9.5 -23.5t-9.5 -23.5t-23.5 -9.5q-15 0 -24.5 9.5t-9.5 23.5t9.5 23.5t24.5 9.5zM345 694q126 0 201 -92t75 -261q0 -166 -74.5 -259
t-201.5 -93q-125 0 -200 92t-75 259q0 166 75.5 260t199.5 94zM345 653q-104 0 -164.5 -79.5t-60.5 -233.5q0 -151 61 -230t164 -79q107 0 166.5 78.5t59.5 231.5q0 154 -60 233t-166 79z" />
    <glyph glyph-name="multiply" unicode="&#xd7;" horiz-adv-x="491" 
d="M402 436l-128 -129l128 -129l-31 -29l-126 129l-125 -129l-31 29l127 129l-127 129l31 30l125 -130l126 130z" />
    <glyph glyph-name="Oslash" unicode="&#xd8;" horiz-adv-x="691" 
d="M462 669q75 -35 117 -118.5t42 -209.5q0 -166 -74.5 -259t-201.5 -93q-43 0 -81 12l-33 -118l-43 12l38 120q-74 37 -115 120t-41 205q0 166 75.5 260t199.5 94q41 0 79 -11l35 124l43 -12zM120 340q0 -217 122 -284l173 587q-30 10 -70 10q-104 0 -164.5 -79.5
t-60.5 -233.5zM345 31q107 0 166.5 78.5t59.5 231.5q0 225 -124 289l-174 -588q35 -11 72 -11z" />
    <glyph glyph-name="Ugrave" unicode="&#xd9;" horiz-adv-x="648" 
d="M422 788l-13 -29l-192 77l22 44zM543 211q0 -101 -55.5 -161.5t-163.5 -60.5q-109 0 -164 60.5t-55 161.5v473h47v-469q0 -87 42.5 -135t129.5 -48t129 48.5t42 134.5v469h48v-473z" />
    <glyph glyph-name="Uacute" unicode="&#xda;" horiz-adv-x="648" 
d="M434 836l-192 -77l-13 29l183 92zM543 211q0 -101 -55.5 -161.5t-163.5 -60.5q-109 0 -164 60.5t-55 161.5v473h47v-469q0 -87 42.5 -135t129.5 -48t129 48.5t42 134.5v469h48v-473z" />
    <glyph glyph-name="Ucircumflex" unicode="&#xdb;" horiz-adv-x="648" 
d="M327 843l-121 -80l-21 25l128 99h27l127 -99l-21 -25zM543 211q0 -101 -55.5 -161.5t-163.5 -60.5q-109 0 -164 60.5t-55 161.5v473h47v-469q0 -87 42.5 -135t129.5 -48t129 48.5t42 134.5v469h48v-473z" />
    <glyph glyph-name="Udieresis" unicode="&#xdc;" horiz-adv-x="648" 
d="M235 858q15 0 24.5 -9.5t9.5 -23.5t-9.5 -23.5t-24.5 -9.5t-24.5 9.5t-9.5 23.5t9.5 23.5t24.5 9.5zM417 858q14 0 23.5 -9.5t9.5 -23.5t-9.5 -23.5t-23.5 -9.5q-15 0 -24.5 9.5t-9.5 23.5t9.5 23.5t24.5 9.5zM543 211q0 -101 -55.5 -161.5t-163.5 -60.5
q-109 0 -164 60.5t-55 161.5v473h47v-469q0 -87 42.5 -135t129.5 -48t129 48.5t42 134.5v469h48v-473z" />
    <glyph glyph-name="Yacute" unicode="&#xdd;" horiz-adv-x="513" 
d="M361 836l-192 -77l-13 29l183 92zM281 269v-269h-47v268l-218 416h53l190 -374l186 374h52z" />
    <glyph glyph-name="Thorn" unicode="&#xde;" horiz-adv-x="566" 
d="M268 560q249 0 249 -204q0 -216 -252 -216h-103v-140h-47v684h47v-124h106zM266 180q96 0 148.5 39.5t52.5 135.5q0 88 -50 126t-149 38h-106v-339h104z" />
    <glyph glyph-name="germandbls" unicode="&#xdf;" horiz-adv-x="578" 
d="M293 741q70 0 114.5 -37t44.5 -95q0 -30 -12.5 -54t-30 -39.5t-34.5 -29t-29.5 -29.5t-12.5 -34q0 -23 20 -43.5t48.5 -39t57 -41t48.5 -60t20 -86.5q0 -74 -43.5 -119t-113.5 -45q-53 0 -95 23l16 33q36 -16 76 -16q51 0 82 32.5t31 91.5q0 44 -20 77t-48 53.5t-56 39
t-48 43t-20 55.5q0 28 18.5 51.5t40.5 37.5t40.5 40t18.5 58q0 43 -31.5 68.5t-81.5 25.5q-63 0 -100 -41t-37 -123v-538h-46v540q0 96 50 148.5t133 52.5z" />
    <glyph glyph-name="agrave" unicode="&#xe0;" horiz-adv-x="534" 
d="M351 648l-190 84l21 44l184 -100zM425 113q0 -44 10.5 -63t33.5 -28l-11 -33q-34 9 -51.5 30t-21.5 62q-57 -92 -165 -92q-74 0 -117 42.5t-43 113.5q0 80 57 124t155 44h107v54q0 65 -29 95t-96 30q-63 0 -142 -31l-13 37q87 34 159 34q167 0 167 -162v-257zM226 28
q101 0 153 99v149h-100q-82 0 -126 -32.5t-44 -97.5q0 -56 31 -87t86 -31z" />
    <glyph glyph-name="aacute" unicode="&#xe1;" horiz-adv-x="534" 
d="M159 648l-15 28l184 100l21 -44zM425 113q0 -44 10.5 -63t33.5 -28l-11 -33q-34 9 -51.5 30t-21.5 62q-57 -92 -165 -92q-74 0 -117 42.5t-43 113.5q0 80 57 124t155 44h107v54q0 65 -29 95t-96 30q-63 0 -142 -31l-13 37q87 34 159 34q167 0 167 -162v-257zM226 28
q101 0 153 99v149h-100q-82 0 -126 -32.5t-44 -97.5q0 -56 31 -87t86 -31z" />
    <glyph glyph-name="acircumflex" unicode="&#xe2;" horiz-adv-x="534" 
d="M140 647l-21 25l127 103h27l128 -103l-21 -25l-120 84zM425 113q0 -44 10.5 -63t33.5 -28l-11 -33q-34 9 -51.5 30t-21.5 62q-57 -92 -165 -92q-74 0 -117 42.5t-43 113.5q0 80 57 124t155 44h107v54q0 65 -29 95t-96 30q-63 0 -142 -31l-13 37q87 34 159 34
q167 0 167 -162v-257zM226 28q101 0 153 99v149h-100q-82 0 -126 -32.5t-44 -97.5q0 -56 31 -87t86 -31z" />
    <glyph glyph-name="atilde" unicode="&#xe3;" horiz-adv-x="534" 
d="M199 714q-20 0 -30.5 -7.5t-26.5 -29.5l-29 15q37 60 86 60q22 0 60 -22t58 -22q27 0 56 43l29 -15q-32 -66 -82 -66q-31 0 -68.5 22t-52.5 22zM425 113q0 -44 10.5 -63t33.5 -28l-11 -33q-34 9 -51.5 30t-21.5 62q-57 -92 -165 -92q-74 0 -117 42.5t-43 113.5
q0 80 57 124t155 44h107v54q0 65 -29 95t-96 30q-63 0 -142 -31l-13 37q87 34 159 34q167 0 167 -162v-257zM226 28q101 0 153 99v149h-100q-82 0 -126 -32.5t-44 -97.5q0 -56 31 -87t86 -31z" />
    <glyph glyph-name="adieresis" unicode="&#xe4;" horiz-adv-x="534" 
d="M166 666q-15 0 -24.5 9.5t-9.5 23.5t9.5 23.5t24.5 9.5t24.5 -9.5t9.5 -23.5t-9.5 -23.5t-24.5 -9.5zM348 666q-15 0 -24.5 9.5t-9.5 23.5t9.5 23.5t24.5 9.5q14 0 23.5 -9.5t9.5 -23.5t-9.5 -23.5t-23.5 -9.5zM425 113q0 -44 10.5 -63t33.5 -28l-11 -33q-34 9 -51.5 30
t-21.5 62q-57 -92 -165 -92q-74 0 -117 42.5t-43 113.5q0 80 57 124t155 44h107v54q0 65 -29 95t-96 30q-63 0 -142 -31l-13 37q87 34 159 34q167 0 167 -162v-257zM226 28q101 0 153 99v149h-100q-82 0 -126 -32.5t-44 -97.5q0 -56 31 -87t86 -31z" />
    <glyph glyph-name="aring" unicode="&#xe5;" horiz-adv-x="534" 
d="M257 636q-41 0 -67 25t-26 65t26 64.5t67 24.5t67 -24.5t26 -64.5t-26 -65t-67 -25zM257 785q-27 0 -41.5 -15.5t-14.5 -43.5q0 -59 56 -59t56 59q0 28 -14.5 43.5t-41.5 15.5zM425 113q0 -44 10.5 -63t33.5 -28l-11 -33q-34 9 -51.5 30t-21.5 62q-57 -92 -165 -92
q-74 0 -117 42.5t-43 113.5q0 80 57 124t155 44h107v54q0 65 -29 95t-96 30q-63 0 -142 -31l-13 37q87 34 159 34q167 0 167 -162v-257zM226 28q101 0 153 99v149h-100q-82 0 -126 -32.5t-44 -97.5q0 -56 31 -87t86 -31z" />
    <glyph glyph-name="ae" unicode="&#xe6;" horiz-adv-x="847" 
d="M784 282q0 -21 -2 -41h-354q5 -107 51 -159t120 -52t142 53l23 -30q-77 -64 -167 -64q-129 0 -185 112q-42 -60 -87 -86t-104 -26q-75 0 -118 42.5t-43 113.5q0 80 57 124t156 44h107v54q0 65 -29 95t-96 30q-63 0 -142 -31l-13 37q85 34 159 34q132 0 160 -109
q54 109 169 109q95 0 145.5 -67t50.5 -183zM739 278v19q0 91 -38 143.5t-112 52.5q-69 0 -113 -53.5t-48 -161.5h311zM227 28q51 0 91 26.5t79 84.5q-17 53 -17 117v1v19h-100q-82 0 -126 -32.5t-44 -97.5q0 -56 31 -87t86 -31z" />
    <glyph glyph-name="ccedilla" unicode="&#xe7;" horiz-adv-x="466" 
d="M295 -67q92 -7 92 -73q0 -38 -28.5 -60t-70.5 -22q-43 0 -76 20l16 30q28 -15 59 -15q25 0 41 12t16 35q0 45 -89 45l7 85q-90 9 -142.5 79.5t-52.5 188.5q0 126 59.5 200t158.5 74q82 0 143 -51l-24 -32q-51 43 -117 43q-78 0 -124.5 -60t-46.5 -174q0 -112 46 -170
t124 -58q67 0 122 47l24 -32q-60 -53 -137 -56v-56z" />
    <glyph glyph-name="egrave" unicode="&#xe8;" horiz-adv-x="534" 
d="M369 648l-190 84l21 44l184 -100zM471 282q0 -21 -2 -41h-354q5 -107 51 -159t120 -52t142 53l23 -30q-77 -64 -167 -64q-101 0 -159 71t-58 197t55.5 200.5t149.5 74.5q97 0 148 -67t51 -183zM426 278v19q0 91 -38 143.5t-114 52.5q-68 0 -111.5 -53.5t-47.5 -161.5h311
z" />
    <glyph glyph-name="eacute" unicode="&#xe9;" horiz-adv-x="534" 
d="M177 648l-15 28l184 100l21 -44zM471 282q0 -21 -2 -41h-354q5 -107 51 -159t120 -52t142 53l23 -30q-77 -64 -167 -64q-101 0 -159 71t-58 197t55.5 200.5t149.5 74.5q97 0 148 -67t51 -183zM426 278v19q0 91 -38 143.5t-114 52.5q-68 0 -111.5 -53.5t-47.5 -161.5h311z
" />
    <glyph glyph-name="ecircumflex" unicode="&#xea;" horiz-adv-x="534" 
d="M158 647l-21 25l127 103h27l128 -103l-21 -25l-120 84zM471 282q0 -21 -2 -41h-354q5 -107 51 -159t120 -52t142 53l23 -30q-77 -64 -167 -64q-101 0 -159 71t-58 197t55.5 200.5t149.5 74.5q97 0 148 -67t51 -183zM426 278v19q0 91 -38 143.5t-114 52.5
q-68 0 -111.5 -53.5t-47.5 -161.5h311z" />
    <glyph glyph-name="edieresis" unicode="&#xeb;" horiz-adv-x="534" 
d="M184 666q-15 0 -24.5 9.5t-9.5 23.5t9.5 23.5t24.5 9.5t24.5 -9.5t9.5 -23.5t-9.5 -23.5t-24.5 -9.5zM366 666q-15 0 -24.5 9.5t-9.5 23.5t9.5 23.5t24.5 9.5q14 0 23.5 -9.5t9.5 -23.5t-9.5 -23.5t-23.5 -9.5zM471 282q0 -21 -2 -41h-354q5 -107 51 -159t120 -52t142 53
l23 -30q-77 -64 -167 -64q-101 0 -159 71t-58 197t55.5 200.5t149.5 74.5q97 0 148 -67t51 -183zM426 278v19q0 91 -38 143.5t-114 52.5q-68 0 -111.5 -53.5t-47.5 -161.5h311z" />
    <glyph glyph-name="igrave" unicode="&#xec;" horiz-adv-x="266" 
d="M241 676l-15 -28l-190 84l21 44zM156 0h-46v522h46v-522z" />
    <glyph glyph-name="iacute" unicode="&#xed;" horiz-adv-x="266" 
d="M225 732l-190 -84l-15 28l184 100zM156 0h-46v522h46v-522z" />
    <glyph glyph-name="icircumflex" unicode="&#xee;" horiz-adv-x="266" 
d="M-6 672l127 103h27l128 -103l-21 -25l-120 84l-120 -84zM156 0h-46v522h46v-522z" />
    <glyph glyph-name="idieresis" unicode="&#xef;" horiz-adv-x="266" 
d="M42 732q15 0 24.5 -9.5t9.5 -23.5t-9.5 -23.5t-24.5 -9.5t-24.5 9.5t-9.5 23.5t9.5 23.5t24.5 9.5zM224 732q14 0 23.5 -9.5t9.5 -23.5t-9.5 -23.5t-23.5 -9.5q-15 0 -24.5 9.5t-9.5 23.5t9.5 23.5t24.5 9.5zM156 0h-46v522h46v-522z" />
    <glyph glyph-name="eth" unicode="&#xf0;" horiz-adv-x="558" 
d="M318 664q82 -62 121.5 -152t39.5 -227q0 -145 -56 -220.5t-152 -75.5q-95 0 -149.5 65.5t-54.5 177.5q0 97 51.5 165.5t140.5 68.5q97 0 168 -85q-18 157 -138 254l-78 -79l-35 15l83 84q-58 35 -125 49l10 38q76 -15 144 -57l68 72l29 -25zM271 29q76 0 118.5 66.5
t42.5 192.5q0 32 -1 44q-72 95 -166 95q-72 0 -111 -55t-39 -140q0 -97 41 -150t115 -53z" />
    <glyph glyph-name="ntilde" unicode="&#xf1;" horiz-adv-x="583" 
d="M239 714q-20 0 -30.5 -7.5t-26.5 -29.5l-29 15q37 60 86 60q22 0 60 -22t58 -22q27 0 56 43l29 -15q-32 -66 -82 -66q-31 0 -68.5 22t-52.5 22zM335 532q71 0 107 -41.5t36 -118.5v-372h-46v366q0 128 -104 128q-95 0 -172 -113v-381h-46v522h40l4 -93q74 103 181 103z
" />
    <glyph glyph-name="ograve" unicode="&#xf2;" horiz-adv-x="567" 
d="M392 676l-15 -28l-190 84l21 44zM284 532q102 0 159 -70.5t57 -198.5t-58 -201t-159 -73t-158.5 72.5t-57.5 198.5q0 127 58.5 199.5t158.5 72.5zM284 492q-79 0 -124 -59.5t-45 -172.5q0 -111 44 -171t124 -60q79 0 124 60t45 174q0 112 -44 170.5t-124 58.5z" />
    <glyph glyph-name="oacute" unicode="&#xf3;" horiz-adv-x="567" 
d="M376 732l-190 -84l-15 28l184 100zM284 532q102 0 159 -70.5t57 -198.5t-58 -201t-159 -73t-158.5 72.5t-57.5 198.5q0 127 58.5 199.5t158.5 72.5zM284 492q-79 0 -124 -59.5t-45 -172.5q0 -111 44 -171t124 -60q79 0 124 60t45 174q0 112 -44 170.5t-124 58.5z" />
    <glyph glyph-name="ocircumflex" unicode="&#xf4;" horiz-adv-x="567" 
d="M145 672l127 103h27l128 -103l-21 -25l-120 84l-120 -84zM284 532q102 0 159 -70.5t57 -198.5t-58 -201t-159 -73t-158.5 72.5t-57.5 198.5q0 127 58.5 199.5t158.5 72.5zM284 492q-79 0 -124 -59.5t-45 -172.5q0 -111 44 -171t124 -60q79 0 124 60t45 174
q0 112 -44 170.5t-124 58.5z" />
    <glyph glyph-name="otilde" unicode="&#xf5;" horiz-adv-x="567" 
d="M346 670q-31 0 -68.5 22t-52.5 22q-20 0 -30.5 -7.5t-26.5 -29.5l-29 15q37 60 86 60q22 0 60 -22t58 -22q27 0 56 43l29 -15q-32 -66 -82 -66zM284 532q102 0 159 -70.5t57 -198.5t-58 -201t-159 -73t-158.5 72.5t-57.5 198.5q0 127 58.5 199.5t158.5 72.5zM284 492
q-79 0 -124 -59.5t-45 -172.5q0 -111 44 -171t124 -60q79 0 124 60t45 174q0 112 -44 170.5t-124 58.5z" />
    <glyph glyph-name="odieresis" unicode="&#xf6;" horiz-adv-x="567" 
d="M193 732q15 0 24.5 -9.5t9.5 -23.5t-9.5 -23.5t-24.5 -9.5t-24.5 9.5t-9.5 23.5t9.5 23.5t24.5 9.5zM375 732q14 0 23.5 -9.5t9.5 -23.5t-9.5 -23.5t-23.5 -9.5q-15 0 -24.5 9.5t-9.5 23.5t9.5 23.5t24.5 9.5zM284 532q102 0 159 -70.5t57 -198.5t-58 -201t-159 -73
t-158.5 72.5t-57.5 198.5q0 127 58.5 199.5t158.5 72.5zM284 492q-79 0 -124 -59.5t-45 -172.5q0 -111 44 -171t124 -60q79 0 124 60t45 174q0 112 -44 170.5t-124 58.5z" />
    <glyph glyph-name="divide" unicode="&#xf7;" horiz-adv-x="491" 
d="M246 586q18 0 29 -11.5t11 -28.5t-11 -28t-29 -11t-29.5 11t-11.5 28t11.5 28.5t29.5 11.5zM72 352h347v-42h-347v42zM246 155q18 0 29 -11.5t11 -28.5t-11 -28t-29 -11t-29.5 11t-11.5 28t11.5 28.5t29.5 11.5z" />
    <glyph glyph-name="oslash" unicode="&#xf8;" horiz-adv-x="567" 
d="M389 507q111 -61 111 -244q0 -128 -58 -201t-159 -73q-36 0 -66 9l-41 -121l-39 11l43 126q-113 63 -113 246q0 127 58.5 199.5t158.5 72.5q37 0 67 -9l39 123l40 -12zM115 260q0 -157 82 -209l144 433q-29 8 -57 8q-79 0 -124 -59.5t-45 -172.5zM283 29q79 0 124 60
t45 174q0 156 -81 207l-143 -433q27 -8 55 -8z" />
    <glyph glyph-name="ugrave" unicode="&#xf9;" horiz-adv-x="578" 
d="M395 676l-15 -28l-190 84l21 44zM468 0h-39l-3 97q-61 -108 -173 -108q-71 0 -109.5 41.5t-38.5 118.5v373h46v-369q0 -124 111 -124q96 0 160 112v381h46v-522z" />
    <glyph glyph-name="uacute" unicode="&#xfa;" horiz-adv-x="578" 
d="M379 732l-190 -84l-15 28l184 100zM468 0h-39l-3 97q-61 -108 -173 -108q-71 0 -109.5 41.5t-38.5 118.5v373h46v-369q0 -124 111 -124q96 0 160 112v381h46v-522z" />
    <glyph glyph-name="ucircumflex" unicode="&#xfb;" horiz-adv-x="578" 
d="M148 672l127 103h27l128 -103l-21 -25l-120 84l-120 -84zM468 0h-39l-3 97q-61 -108 -173 -108q-71 0 -109.5 41.5t-38.5 118.5v373h46v-369q0 -124 111 -124q96 0 160 112v381h46v-522z" />
    <glyph glyph-name="udieresis" unicode="&#xfc;" horiz-adv-x="578" 
d="M196 732q15 0 24.5 -9.5t9.5 -23.5t-9.5 -23.5t-24.5 -9.5t-24.5 9.5t-9.5 23.5t9.5 23.5t24.5 9.5zM378 732q14 0 23.5 -9.5t9.5 -23.5t-9.5 -23.5t-23.5 -9.5q-15 0 -24.5 9.5t-9.5 23.5t9.5 23.5t24.5 9.5zM468 0h-39l-3 97q-61 -108 -173 -108q-71 0 -109.5 41.5
t-38.5 118.5v373h46v-369q0 -124 111 -124q96 0 160 112v381h46v-522z" />
    <glyph glyph-name="yacute" unicode="&#xfd;" horiz-adv-x="459" 
d="M316 732l-190 -84l-15 28l184 100zM261 -2q-31 -91 -73 -135t-129 -64l-6 36q74 20 104.5 53.5t59.5 111.5h-17l-183 522h50l165 -488l160 488h50z" />
    <glyph glyph-name="thorn" unicode="&#xfe;" horiz-adv-x="576" 
d="M316 532q93 0 141 -69.5t48 -198.5q0 -128 -51 -201.5t-145 -73.5q-95 0 -153 76v-259l-46 -9v938l46 6v-295q63 86 160 86zM302 30q75 0 114.5 59.5t39.5 174.5q0 229 -146 229q-86 0 -154 -92v-287q56 -84 146 -84z" />
    <glyph glyph-name="ydieresis" unicode="&#xff;" horiz-adv-x="459" 
d="M133 732q15 0 24.5 -9.5t9.5 -23.5t-9.5 -23.5t-24.5 -9.5t-24.5 9.5t-9.5 23.5t9.5 23.5t24.5 9.5zM315 732q14 0 23.5 -9.5t9.5 -23.5t-9.5 -23.5t-23.5 -9.5q-15 0 -24.5 9.5t-9.5 23.5t9.5 23.5t24.5 9.5zM261 -2q-31 -91 -73 -135t-129 -64l-6 36q74 20 104.5 53.5
t59.5 111.5h-17l-183 522h50l165 -488l160 488h50z" />
    <glyph glyph-name="Amacron" unicode="&#x100;" horiz-adv-x="562" 
d="M395 803h-229v39h229v-39zM428 192h-297l-63 -192h-48l231 684h60l231 -684h-51zM415 234l-134 411l-136 -411h270z" />
    <glyph glyph-name="amacron" unicode="&#x101;" horiz-adv-x="534" 
d="M372 679h-229v39h229v-39zM425 113q0 -44 10.5 -63t33.5 -28l-11 -33q-34 9 -51.5 30t-21.5 62q-57 -92 -165 -92q-74 0 -117 42.5t-43 113.5q0 80 57 124t155 44h107v54q0 65 -29 95t-96 30q-63 0 -142 -31l-13 37q87 34 159 34q167 0 167 -162v-257zM226 28
q101 0 153 99v149h-100q-82 0 -126 -32.5t-44 -97.5q0 -56 31 -87t86 -31z" />
    <glyph glyph-name="Abreve" unicode="&#x102;" horiz-adv-x="562" 
d="M281 767q-48 0 -82 26.5t-41 65.5l32 8q22 -61 91 -61t91 61l32 -8q-7 -39 -41 -65.5t-82 -26.5zM428 192h-297l-63 -192h-48l231 684h60l231 -684h-51zM415 234l-134 411l-136 -411h270z" />
    <glyph glyph-name="abreve" unicode="&#x103;" horiz-adv-x="534" 
d="M257 656q-49 0 -82.5 28t-40.5 75l32 7q20 -70 91 -70t91 70l32 -7q-7 -46 -40.5 -74.5t-82.5 -28.5zM425 113q0 -44 10.5 -63t33.5 -28l-11 -33q-34 9 -51.5 30t-21.5 62q-57 -92 -165 -92q-74 0 -117 42.5t-43 113.5q0 80 57 124t155 44h107v54q0 65 -29 95t-96 30
q-63 0 -142 -31l-13 37q87 34 159 34q167 0 167 -162v-257zM226 28q101 0 153 99v149h-100q-82 0 -126 -32.5t-44 -97.5q0 -56 31 -87t86 -31z" />
    <glyph glyph-name="Aogonek" unicode="&#x104;" horiz-adv-x="562" 
d="M410 -119q0 -53 67 -53q23 0 56 6l-5 -40q-35 -7 -56 -7q-52 0 -79.5 25t-27.5 64q0 42 30.5 73.5t92.5 59.5l-60 183h-297l-63 -192h-48l231 684h60l231 -684h-10q-66 -30 -94 -56t-28 -63zM415 234l-134 411l-136 -411h270z" />
    <glyph glyph-name="aogonek" unicode="&#x105;" horiz-adv-x="534" 
d="M336 -130q0 -53 67 -53q23 0 56 6l-5 -40q-35 -7 -56 -7q-52 0 -79.5 25t-27.5 64q0 82 134 138q-36 22 -40 78q-57 -92 -165 -92q-74 0 -117 42.5t-43 113.5q0 80 57 124t155 44h107v54q0 65 -29 95t-96 30q-63 0 -142 -31l-13 37q87 34 159 34q167 0 167 -162v-257
q0 -44 10.5 -63t33.5 -28l-11 -33q-66 -30 -94 -56t-28 -63zM226 28q101 0 153 99v149h-100q-82 0 -126 -32.5t-44 -97.5q0 -56 31 -87t86 -31z" />
    <glyph glyph-name="Cacute" unicode="&#x106;" horiz-adv-x="547" 
d="M450 836l-192 -77l-13 29l183 92zM344 694q96 0 171 -61l-26 -32q-66 52 -142 52q-101 0 -164 -76.5t-63 -234.5q0 -152 62.5 -231t161.5 -79q49 0 82.5 14.5t69.5 43.5l27 -32q-74 -69 -181 -69q-121 0 -196.5 92.5t-75.5 260.5q0 169 77.5 260.5t196.5 91.5z" />
    <glyph glyph-name="cacute" unicode="&#x107;" horiz-adv-x="466" 
d="M376 732l-190 -84l-15 28l184 100zM285 532q82 0 143 -51l-24 -32q-51 43 -117 43q-78 0 -124.5 -60t-46.5 -174q0 -112 46 -170t124 -58q67 0 122 47l24 -32q-62 -56 -146 -56q-100 0 -159.5 71.5t-59.5 197.5t59.5 200t158.5 74z" />
    <glyph glyph-name="Ccircumflex" unicode="&#x108;" horiz-adv-x="547" 
d="M344 843l-121 -80l-21 25l128 99h27l127 -99l-21 -25zM344 694q96 0 171 -61l-26 -32q-66 52 -142 52q-101 0 -164 -76.5t-63 -234.5q0 -152 62.5 -231t161.5 -79q49 0 82.5 14.5t69.5 43.5l27 -32q-74 -69 -181 -69q-121 0 -196.5 92.5t-75.5 260.5q0 169 77.5 260.5
t196.5 91.5z" />
    <glyph glyph-name="ccircumflex" unicode="&#x109;" horiz-adv-x="466" 
d="M145 672l127 103h27l128 -103l-21 -25l-120 84l-120 -84zM285 532q82 0 143 -51l-24 -32q-51 43 -117 43q-78 0 -124.5 -60t-46.5 -174q0 -112 46 -170t124 -58q67 0 122 47l24 -32q-62 -56 -146 -56q-100 0 -159.5 71.5t-59.5 197.5t59.5 200t158.5 74z" />
    <glyph glyph-name="Cdotaccent" unicode="&#x10a;" horiz-adv-x="547" 
d="M343 870q16 0 26 -10t10 -25t-10 -25t-26 -10t-26 10t-10 25t10 25t26 10zM344 694q96 0 171 -61l-26 -32q-66 52 -142 52q-101 0 -164 -76.5t-63 -234.5q0 -152 62.5 -231t161.5 -79q49 0 82.5 14.5t69.5 43.5l27 -32q-74 -69 -181 -69q-121 0 -196.5 92.5t-75.5 260.5
q0 169 77.5 260.5t196.5 91.5z" />
    <glyph glyph-name="cdotaccent" unicode="&#x10b;" horiz-adv-x="466" 
d="M284 744q16 0 26 -10t10 -25t-10 -25t-26 -10t-26 10t-10 25t10 25t26 10zM285 532q82 0 143 -51l-24 -32q-51 43 -117 43q-78 0 -124.5 -60t-46.5 -174q0 -112 46 -170t124 -58q67 0 122 47l24 -32q-62 -56 -146 -56q-100 0 -159.5 71.5t-59.5 197.5t59.5 200t158.5 74z
" />
    <glyph glyph-name="Ccaron" unicode="&#x10c;" horiz-adv-x="547" 
d="M487 855l-127 -98h-27l-128 98l21 25l121 -79l119 79zM344 694q96 0 171 -61l-26 -32q-66 52 -142 52q-101 0 -164 -76.5t-63 -234.5q0 -152 62.5 -231t161.5 -79q49 0 82.5 14.5t69.5 43.5l27 -32q-74 -69 -181 -69q-121 0 -196.5 92.5t-75.5 260.5q0 169 77.5 260.5
t196.5 91.5z" />
    <glyph glyph-name="ccaron" unicode="&#x10d;" horiz-adv-x="466" 
d="M428 741l-127 -104h-27l-128 104l21 24l121 -84l119 84zM285 532q82 0 143 -51l-24 -32q-51 43 -117 43q-78 0 -124.5 -60t-46.5 -174q0 -112 46 -170t124 -58q67 0 122 47l24 -32q-62 -56 -146 -56q-100 0 -159.5 71.5t-59.5 197.5t59.5 200t158.5 74z" />
    <glyph glyph-name="Dcaron" unicode="&#x10e;" horiz-adv-x="628" 
d="M443 855l-127 -98h-27l-128 98l21 25l121 -79l119 79zM248 684q50 0 91.5 -7.5t83.5 -30t70.5 -58.5t46.5 -97.5t18 -142.5q0 -82 -18.5 -145t-48 -100.5t-70.5 -61.5t-81 -32.5t-85 -8.5h-140v684h133zM162 643v-602h96q250 0 250 307q0 74 -15.5 129t-39 86t-59 50
t-68.5 24.5t-75 5.5h-89z" />
    <glyph glyph-name="dcaron" unicode="&#x10f;" horiz-adv-x="581" 
d="M425 741l46 -6v-735h-40l-5 82q-54 -93 -160 -93q-89 0 -141.5 72.5t-52.5 197.5q0 123 54.5 198t149.5 75q92 0 149 -73v282zM601 734l-34 -156l-30 4l18 158zM272 29q53 0 88.5 26t64.5 78v277q-56 83 -143 83q-74 0 -118.5 -62t-43.5 -172t41.5 -170t110.5 -60z" />
    <glyph glyph-name="Dcroat" unicode="&#x110;" horiz-adv-x="628" 
d="M248 684q50 0 91.5 -7.5t83.5 -30t70.5 -58.5t46.5 -97.5t18 -142.5q0 -82 -18.5 -145t-48 -100.5t-70.5 -61.5t-81 -32.5t-85 -8.5h-140v334h-91v38h91v312h133zM258 41q250 0 250 307q0 74 -15.5 129t-39 86t-59 50t-68.5 24.5t-75 5.5h-89v-271h182v-38h-182v-293h96z
" />
    <glyph glyph-name="dcroat" unicode="&#x111;" horiz-adv-x="587" 
d="M547 658v-38h-76v-620h-40l-5 82q-54 -93 -160 -93q-89 0 -141.5 72.5t-52.5 197.5q0 123 54.5 198t149.5 75q92 0 149 -73v161h-163l-6 38h169v83l46 -6v-77h76zM272 29q53 0 88.5 26t64.5 78v277q-56 83 -143 83q-74 0 -118.5 -62t-43.5 -172t41.5 -170t110.5 -60z" />
    <glyph glyph-name="Emacron" unicode="&#x112;" horiz-adv-x="504" 
d="M174 803v39h229v-39h-229zM448 643h-286v-266h247v-41h-247v-295h298v-41h-345v684h339z" />
    <glyph glyph-name="emacron" unicode="&#x113;" horiz-adv-x="534" 
d="M390 679h-229v39h229v-39zM471 282q0 -21 -2 -41h-354q5 -107 51 -159t120 -52t142 53l23 -30q-77 -64 -167 -64q-101 0 -159 71t-58 197t55.5 200.5t149.5 74.5q97 0 148 -67t51 -183zM426 278v19q0 91 -38 143.5t-114 52.5q-68 0 -111.5 -53.5t-47.5 -161.5h311z" />
    <glyph glyph-name="Ebreve" unicode="&#x114;" horiz-adv-x="504" 
d="M288 767q-48 0 -82 26.5t-41 65.5l32 8q22 -61 91 -61t91 61l32 -8q-7 -39 -41 -65.5t-82 -26.5zM448 643h-286v-266h247v-41h-247v-295h298v-41h-345v684h339z" />
    <glyph glyph-name="ebreve" unicode="&#x115;" horiz-adv-x="534" 
d="M275 656q-49 0 -82.5 28t-40.5 75l32 7q20 -70 91 -70t91 70l32 -7q-7 -46 -40.5 -74.5t-82.5 -28.5zM471 282q0 -21 -2 -41h-354q5 -107 51 -159t120 -52t142 53l23 -30q-77 -64 -167 -64q-101 0 -159 71t-58 197t55.5 200.5t149.5 74.5q97 0 148 -67t51 -183zM426 278
v19q0 91 -38 143.5t-114 52.5q-68 0 -111.5 -53.5t-47.5 -161.5h311z" />
    <glyph glyph-name="Edotaccent" unicode="&#x116;" horiz-adv-x="504" 
d="M288 870q16 0 26 -10t10 -25t-10 -25t-26 -10t-26 10t-10 25t10 25t26 10zM448 643h-286v-266h247v-41h-247v-295h298v-41h-345v684h339z" />
    <glyph glyph-name="edotaccent" unicode="&#x117;" horiz-adv-x="534" 
d="M275 674q-16 0 -26 10t-10 25t10 25t26 10t26 -10t10 -25t-10 -25t-26 -10zM471 282q0 -21 -2 -41h-354q5 -107 51 -159t120 -52t142 53l23 -30q-77 -64 -167 -64q-101 0 -159 71t-58 197t55.5 200.5t149.5 74.5q97 0 148 -67t51 -183zM426 278v19q0 91 -38 143.5
t-114 52.5q-68 0 -111.5 -53.5t-47.5 -161.5h311z" />
    <glyph glyph-name="Eogonek" unicode="&#x118;" horiz-adv-x="504" 
d="M431 0q-66 -30 -94 -56t-28 -63q0 -53 67 -53q23 0 56 6l-5 -40q-35 -7 -56 -7q-52 0 -79.5 25t-27.5 64q0 73 104 124h-253v684h339l-6 -41h-286v-266h247v-41h-247v-295h298v-41h-29z" />
    <glyph glyph-name="eogonek" unicode="&#x119;" horiz-adv-x="534" 
d="M471 282q0 -21 -2 -41h-354q5 -107 51 -159t120 -52t142 53l23 -30q-44 -37 -88 -51q-61 -29 -87.5 -55t-26.5 -61q0 -53 67 -53q23 0 56 6l-5 -40q-35 -7 -56 -7q-52 0 -79.5 25t-27.5 64q0 66 80 108q-101 0 -159 71t-58 197t55.5 200.5t149.5 74.5q97 0 148 -67
t51 -183zM426 278v19q0 91 -38 143.5t-114 52.5q-68 0 -111.5 -53.5t-47.5 -161.5h311z" />
    <glyph glyph-name="Ecaron" unicode="&#x11a;" horiz-adv-x="504" 
d="M433 855l-127 -98h-27l-128 98l21 25l121 -79l119 79zM448 643h-286v-266h247v-41h-247v-295h298v-41h-345v684h339z" />
    <glyph glyph-name="ecaron" unicode="&#x11b;" horiz-adv-x="534" 
d="M265 637l-128 104l21 24l121 -84l119 84l21 -24l-127 -104h-27zM471 282q0 -21 -2 -41h-354q5 -107 51 -159t120 -52t142 53l23 -30q-77 -64 -167 -64q-101 0 -159 71t-58 197t55.5 200.5t149.5 74.5q97 0 148 -67t51 -183zM426 278v19q0 91 -38 143.5t-114 52.5
q-68 0 -111.5 -53.5t-47.5 -161.5h311z" />
    <glyph glyph-name="Gcircumflex" unicode="&#x11c;" horiz-adv-x="614" 
d="M351 843l-121 -80l-21 25l128 99h27l127 -99l-21 -25zM349 694q57 0 99 -15.5t85 -49.5l-29 -30q-70 54 -154 54q-94 0 -162 -77t-68 -231q0 -156 61.5 -235t169.5 -79q80 0 148 37v256h-138l-6 41h191v-321q-93 -55 -197 -55q-128 0 -203.5 91.5t-75.5 264.5
q0 85 24 153.5t64 110t89 63.5t102 22z" />
    <glyph glyph-name="gcircumflex" unicode="&#x11d;" horiz-adv-x="497" 
d="M112 672l127 103h27l128 -103l-21 -25l-120 84l-120 -84zM486 516q-45 -14 -142 -15q88 -42 88 -146q0 -77 -50 -123.5t-135 -46.5q-38 0 -69 11q-44 -24 -44 -64q0 -58 88 -58h86q75 0 119 -35.5t44 -93.5q0 -71 -55 -109.5t-165 -38.5q-114 0 -164.5 34.5t-50.5 112.5
h44q1 -59 38 -83t133 -24q173 0 173 105q0 43 -32.5 67t-90.5 24h-85q-61 0 -94 25.5t-33 64.5q0 51 57 87q-87 46 -87 148q0 78 51 126t136 48q98 -1 140.5 6t84.5 24zM247 495q-70 0 -105.5 -37t-35.5 -100q0 -65 38 -101t102 -36q67 0 103 35t36 100t-35 102t-103 37z
" />
    <glyph glyph-name="Gbreve" unicode="&#x11e;" horiz-adv-x="614" 
d="M350 767q-48 0 -82 26.5t-41 65.5l32 8q22 -61 91 -61t91 61l32 -8q-7 -39 -41 -65.5t-82 -26.5zM349 694q57 0 99 -15.5t85 -49.5l-29 -30q-70 54 -154 54q-94 0 -162 -77t-68 -231q0 -156 61.5 -235t169.5 -79q80 0 148 37v256h-138l-6 41h191v-321q-93 -55 -197 -55
q-128 0 -203.5 91.5t-75.5 264.5q0 85 24 153.5t64 110t89 63.5t102 22z" />
    <glyph glyph-name="gbreve" unicode="&#x11f;" horiz-adv-x="497" 
d="M250 656q-49 0 -82.5 28t-40.5 75l32 7q20 -70 91 -70t91 70l32 -7q-7 -46 -40.5 -74.5t-82.5 -28.5zM486 516q-45 -14 -142 -15q88 -42 88 -146q0 -77 -50 -123.5t-135 -46.5q-38 0 -69 11q-44 -24 -44 -64q0 -58 88 -58h86q75 0 119 -35.5t44 -93.5q0 -71 -55 -109.5
t-165 -38.5q-114 0 -164.5 34.5t-50.5 112.5h44q1 -59 38 -83t133 -24q173 0 173 105q0 43 -32.5 67t-90.5 24h-85q-61 0 -94 25.5t-33 64.5q0 51 57 87q-87 46 -87 148q0 78 51 126t136 48q98 -1 140.5 6t84.5 24zM247 495q-70 0 -105.5 -37t-35.5 -100q0 -65 38 -101
t102 -36q67 0 103 35t36 100t-35 102t-103 37z" />
    <glyph glyph-name="Gdotaccent" unicode="&#x120;" horiz-adv-x="614" 
d="M350 870q16 0 26 -10t10 -25t-10 -25t-26 -10t-26 10t-10 25t10 25t26 10zM349 694q57 0 99 -15.5t85 -49.5l-29 -30q-70 54 -154 54q-94 0 -162 -77t-68 -231q0 -156 61.5 -235t169.5 -79q80 0 148 37v256h-138l-6 41h191v-321q-93 -55 -197 -55q-128 0 -203.5 91.5
t-75.5 264.5q0 85 24 153.5t64 110t89 63.5t102 22z" />
    <glyph glyph-name="gdotaccent" unicode="&#x121;" horiz-adv-x="497" 
d="M250 744q16 0 26 -10t10 -25t-10 -25t-26 -10t-26 10t-10 25t10 25t26 10zM486 516q-45 -14 -142 -15q88 -42 88 -146q0 -77 -50 -123.5t-135 -46.5q-38 0 -69 11q-44 -24 -44 -64q0 -58 88 -58h86q75 0 119 -35.5t44 -93.5q0 -71 -55 -109.5t-165 -38.5
q-114 0 -164.5 34.5t-50.5 112.5h44q1 -59 38 -83t133 -24q173 0 173 105q0 43 -32.5 67t-90.5 24h-85q-61 0 -94 25.5t-33 64.5q0 51 57 87q-87 46 -87 148q0 78 51 126t136 48q98 -1 140.5 6t84.5 24zM247 495q-70 0 -105.5 -37t-35.5 -100q0 -65 38 -101t102 -36
q67 0 103 35t36 100t-35 102t-103 37z" />
    <glyph glyph-name="Gcommaaccent" unicode="&#x122;" horiz-adv-x="614" 
d="M349 694q57 0 99 -15.5t85 -49.5l-29 -30q-70 54 -154 54q-94 0 -162 -77t-68 -231q0 -156 61.5 -235t169.5 -79q80 0 148 37v256h-138l-6 41h191v-321q-93 -55 -197 -55q-128 0 -203.5 91.5t-75.5 264.5q0 85 24 153.5t64 110t89 63.5t102 22zM337 -87q18 0 28.5 -11
t10.5 -27q0 -17 -20 -62l-40 -86h-29l33 114q-22 10 -22 34q0 16 11 27t28 11z" />
    <glyph glyph-name="gcommaaccent" unicode="&#x123;" horiz-adv-x="497" 
d="M250 609q-18 0 -28.5 11t-10.5 27q0 17 20 62l40 86h29l-33 -114q22 -10 22 -34q0 -16 -11 -27t-28 -11zM486 516q-45 -14 -142 -15q88 -42 88 -146q0 -77 -50 -123.5t-135 -46.5q-38 0 -69 11q-44 -24 -44 -64q0 -58 88 -58h86q75 0 119 -35.5t44 -93.5
q0 -71 -55 -109.5t-165 -38.5q-114 0 -164.5 34.5t-50.5 112.5h44q1 -59 38 -83t133 -24q173 0 173 105q0 43 -32.5 67t-90.5 24h-85q-61 0 -94 25.5t-33 64.5q0 51 57 87q-87 46 -87 148q0 78 51 126t136 48q98 -1 140.5 6t84.5 24zM247 495q-70 0 -105.5 -37t-35.5 -100
q0 -65 38 -101t102 -36q67 0 103 35t36 100t-35 102t-103 37z" />
    <glyph glyph-name="Hcircumflex" unicode="&#x124;" horiz-adv-x="667" 
d="M332 843l-121 -80l-21 25l128 99h27l127 -99l-21 -25zM504 339h-342v-339h-47v684h47v-303h342v303h48v-684h-48v339z" />
    <glyph glyph-name="hcircumflex" unicode="&#x125;" horiz-adv-x="583" 
d="M174 814l-21 25l128 99h27l127 -99l-21 -25l-119 80zM335 532q70 0 106.5 -42t36.5 -118v-372h-46v366q0 128 -104 128q-95 0 -172 -113v-381h-46v735l46 6v-311q74 102 179 102z" />
    <glyph glyph-name="Hbar" unicode="&#x126;" horiz-adv-x="661" 
d="M611 515h-55v-515h-48v339h-342v-339h-47v515h-69v36h69v133h47v-133h342v133h48v-133h55v-36zM508 515h-342v-134h342v134z" />
    <glyph glyph-name="hbar" unicode="&#x127;" horiz-adv-x="588" 
d="M340 532q70 0 106.5 -42t36.5 -118v-372h-46v366q0 128 -104 128q-95 0 -172 -113v-381h-46v620h-75v38h75v77l46 6v-83h175l-7 -38h-168v-190q75 102 179 102z" />
    <glyph glyph-name="Itilde" unicode="&#x128;" horiz-adv-x="277" 
d="M201 796q-31 0 -68.5 22t-52.5 22q-20 0 -30.5 -7.5t-26.5 -29.5l-29 15q37 60 86 60q22 0 60 -22t58 -22q27 0 56 43l29 -15q-32 -66 -82 -66zM163 0h-48v684h48v-684z" />
    <glyph glyph-name="itilde" unicode="&#x129;" horiz-adv-x="266" 
d="M195 670q-31 0 -68.5 22t-52.5 22q-20 0 -30.5 -7.5t-26.5 -29.5l-29 15q37 60 86 60q22 0 60 -22t58 -22q27 0 56 43l29 -15q-32 -66 -82 -66zM156 0h-46v522h46v-522z" />
    <glyph glyph-name="Imacron" unicode="&#x12a;" horiz-adv-x="277" 
d="M24 803v39h229v-39h-229zM163 0h-48v684h48v-684z" />
    <glyph glyph-name="imacron" unicode="&#x12b;" horiz-adv-x="266" 
d="M18 679v39h229v-39h-229zM156 0h-46v522h46v-522z" />
    <glyph glyph-name="Ibreve" unicode="&#x12c;" horiz-adv-x="277" 
d="M138 767q-48 0 -82 26.5t-41 65.5l32 8q22 -61 91 -61t91 61l32 -8q-7 -39 -41 -65.5t-82 -26.5zM163 0h-48v684h48v-684z" />
    <glyph glyph-name="ibreve" unicode="&#x12d;" horiz-adv-x="266" 
d="M133 656q-49 0 -82.5 28t-40.5 75l32 7q20 -70 91 -70t91 70l32 -7q-7 -46 -40.5 -74.5t-82.5 -28.5zM156 0h-46v522h46v-522z" />
    <glyph glyph-name="Iogonek" unicode="&#x12e;" horiz-adv-x="277" 
d="M108 -172q23 0 56 6l-5 -40q-35 -7 -56 -7q-52 0 -79.5 25t-27.5 64q0 78 119 131v677h48v-684q-66 -30 -94 -56t-28 -63q0 -53 67 -53z" />
    <glyph glyph-name="iogonek" unicode="&#x12f;" horiz-adv-x="266" 
d="M133 744q16 0 26 -10t10 -25t-10 -25t-26 -10t-26 10t-10 25t10 25t26 10zM34 -119q0 -53 67 -53q23 0 56 6l-5 -40q-35 -7 -56 -7q-52 0 -79.5 25t-27.5 64q0 79 121 132v514h46v-522q-66 -30 -94 -56t-28 -63z" />
    <glyph glyph-name="Idotaccent" unicode="&#x130;" horiz-adv-x="277" 
d="M138 870q16 0 26 -10t10 -25t-10 -25t-26 -10t-26 10t-10 25t10 25t26 10zM163 0h-48v684h48v-684z" />
    <glyph glyph-name="dotlessi" unicode="&#x131;" horiz-adv-x="266" 
d="M156 0h-46v522h46v-522z" />
    <glyph glyph-name="IJ" unicode="&#x132;" horiz-adv-x="563" 
d="M163 0h-48v684h48v-684zM454 90q0 -84 -31 -125.5t-117 -77.5l-13 35q68 31 90.5 66t22.5 105v591h48v-594z" />
    <glyph glyph-name="ij" unicode="&#x133;" horiz-adv-x="532" 
d="M133 744q16 0 26 -10t10 -25t-10 -25t-26 -10t-26 10t-10 25t10 25t26 10zM399 744q16 0 26 -10t10 -25t-10 -25t-26 -10t-26 10t-10 25t10 25t26 10zM156 0h-46v522h46v-522zM422 14q0 -96 -29 -138t-102 -76l-13 33q56 28 77 63t21 117v509h46v-508z" />
    <glyph glyph-name="Jcircumflex" unicode="&#x134;" horiz-adv-x="286" 
d="M152 843l-121 -80l-21 25l128 99h27l127 -99l-21 -25zM177 90q0 -84 -31 -125.5t-117 -77.5l-13 35q68 31 90.5 66t22.5 105v591h48v-594z" />
    <glyph glyph-name="jcircumflex" unicode="&#x135;" horiz-adv-x="266" 
d="M-6 672l127 103h27l128 -103l-21 -25l-120 84l-120 -84zM156 14q0 -96 -29 -138t-102 -76l-13 33q56 28 77 63t21 117v509h46v-508z" />
    <glyph glyph-name="Kcommaaccent" unicode="&#x136;" horiz-adv-x="533" 
d="M162 0h-47v684h47v-684zM224 369l309 -369h-59l-308 367l295 317h55zM302 -87q18 0 28.5 -11t10.5 -27q0 -17 -20 -62l-40 -86h-29l33 114q-22 10 -22 34q0 16 11 27t28 11z" />
    <glyph glyph-name="kcommaaccent" unicode="&#x137;" horiz-adv-x="480" 
d="M156 0h-46v735l46 6v-741zM217 287l252 -287h-56l-251 285l229 237h54zM264 -87q18 0 28.5 -11t10.5 -27q0 -17 -20 -62l-40 -86h-29l33 114q-22 10 -22 34q0 16 11 27t28 11z" />
    <glyph glyph-name="kgreenlandic" unicode="&#x138;" horiz-adv-x="479" 
d="M156 0h-46v522h46v-522zM216 277l252 -277h-56l-251 275l229 247h55z" />
    <glyph glyph-name="Lacute" unicode="&#x139;" horiz-adv-x="466" 
d="M246 836l-192 -77l-13 29l183 92zM162 44h288l-7 -44h-328v684h47v-640z" />
    <glyph glyph-name="lacute" unicode="&#x13a;" horiz-adv-x="281" 
d="M234 886l-192 -77l-13 29l183 92zM151 84q0 -54 46 -54q17 0 36 7l13 -35q-30 -13 -56 -13q-85 0 -85 96v650l46 6v-657z" />
    <glyph glyph-name="Lcommaaccent" unicode="&#x13b;" horiz-adv-x="466" 
d="M162 44h288l-7 -44h-328v684h47v-640zM280 -87q18 0 28.5 -11t10.5 -27q0 -17 -20 -62l-40 -86h-29l33 114q-22 10 -22 34q0 16 11 27t28 11z" />
    <glyph glyph-name="lcommaaccent" unicode="&#x13c;" horiz-adv-x="281" 
d="M151 84q0 -54 46 -54q17 0 36 7l13 -35q-30 -13 -56 -13q-85 0 -85 96v650l46 6v-657zM133 -87q18 0 28.5 -11t10.5 -27q0 -17 -20 -62l-40 -86h-29l33 114q-22 10 -22 34q0 16 11 27t28 11z" />
    <glyph glyph-name="Lcaron" unicode="&#x13d;" horiz-adv-x="466" 
d="M301 683l-34 -156l-30 4l18 158zM162 44h288l-7 -44h-328v684h47v-640z" />
    <glyph glyph-name="lcaron" unicode="&#x13e;" horiz-adv-x="281" 
d="M151 84q0 -54 46 -54q17 0 36 7l13 -35q-30 -13 -56 -13q-85 0 -85 96v650l46 6v-657zM282 734l-34 -156l-30 4l18 158z" />
    <glyph glyph-name="Ldot" unicode="&#x13f;" horiz-adv-x="466" 
d="M162 44h288l-7 -44h-328v684h47v-640zM362 398q16 0 26 -10t10 -25t-10 -25t-26 -10t-26 10t-10 25t10 25t26 10z" />
    <glyph glyph-name="ldot" unicode="&#x140;" horiz-adv-x="292" 
d="M151 84q0 -54 46 -54q17 0 36 7l13 -35q-30 -13 -56 -13q-85 0 -85 96v650l46 6v-657zM270 411q16 0 26 -10t10 -25t-10 -25t-26 -10t-26 10t-10 25t10 25t26 10z" />
    <glyph glyph-name="Lslash" unicode="&#x141;" horiz-adv-x="475" 
d="M458 44l-7 -44h-328v290l-67 -42l-19 32l86 53v351h48v-321l188 118l20 -32l-208 -129v-276h287z" />
    <glyph glyph-name="lslash" unicode="&#x142;" horiz-adv-x="288" 
d="M203 30q16 0 37 7l13 -35q-32 -13 -57 -13q-85 0 -85 96v254l-60 -37l-18 33l78 48v352l46 6v-330l95 59l18 -34l-113 -69v-283q0 -54 46 -54z" />
    <glyph glyph-name="Nacute" unicode="&#x143;" horiz-adv-x="669" 
d="M450 836l-192 -77l-13 29l183 92zM554 0h-61l-339 631q6 -88 6 -224v-407h-45v684h61l339 -631q-6 99 -6 200v431h45v-684z" />
    <glyph glyph-name="nacute" unicode="&#x144;" horiz-adv-x="583" 
d="M199 648l-15 28l184 100l21 -44zM335 532q71 0 107 -41.5t36 -118.5v-372h-46v366q0 128 -104 128q-95 0 -172 -113v-381h-46v522h40l4 -93q74 103 181 103z" />
    <glyph glyph-name="Ncommaaccent" unicode="&#x145;" horiz-adv-x="669" 
d="M554 0h-61l-339 631q6 -88 6 -224v-407h-45v684h61l339 -631q-6 99 -6 200v431h45v-684zM333 -87q18 0 28.5 -11t10.5 -27q0 -17 -20 -62l-40 -86h-29l33 114q-22 10 -22 34q0 16 11 27t28 11z" />
    <glyph glyph-name="ncommaaccent" unicode="&#x146;" horiz-adv-x="583" 
d="M335 532q71 0 107 -41.5t36 -118.5v-372h-46v366q0 128 -104 128q-95 0 -172 -113v-381h-46v522h40l4 -93q74 103 181 103zM290 -87q18 0 28.5 -11t10.5 -27q0 -17 -20 -62l-40 -86h-29l33 114q-22 10 -22 34q0 16 11 27t28 11z" />
    <glyph glyph-name="Ncaron" unicode="&#x147;" horiz-adv-x="669" 
d="M487 855l-127 -98h-27l-128 98l21 25l121 -79l119 79zM554 0h-61l-339 631q6 -88 6 -224v-407h-45v684h61l339 -631q-6 99 -6 200v431h45v-684z" />
    <glyph glyph-name="ncaron" unicode="&#x148;" horiz-adv-x="583" 
d="M287 637l-128 104l21 24l121 -84l119 84l21 -24l-127 -104h-27zM335 532q71 0 107 -41.5t36 -118.5v-372h-46v366q0 128 -104 128q-95 0 -172 -113v-381h-46v522h40l4 -93q74 103 181 103z" />
    <glyph glyph-name="napostrophe" unicode="&#x149;" horiz-adv-x="583" 
d="M150 704q0 -12 -20 -63l-35 -90h-29l28 118q-22 10 -22 35q0 16 11 26.5t28 10.5q18 0 28.5 -10.5t10.5 -26.5zM335 532q71 0 107 -41.5t36 -118.5v-372h-46v366q0 128 -104 128q-95 0 -172 -113v-381h-46v522h40l4 -93q74 103 181 103z" />
    <glyph glyph-name="Eng" unicode="&#x14a;" horiz-adv-x="669" 
d="M554 684v-670q0 -96 -29 -138t-102 -76l-13 31q56 30 78.5 62.5t24.5 106.5h-22l-335 630h-2q6 -86 6 -223v-407h-45v684h63l335 -631h2q-6 99 -6 200v431h45z" />
    <glyph glyph-name="eng" unicode="&#x14b;" horiz-adv-x="583" 
d="M335 532q70 0 106.5 -42t36.5 -118v-358q0 -66 -15.5 -107t-40.5 -62.5t-74 -44.5l-14 33q56 28 77 63t21 117v353q0 128 -104 128q-95 0 -172 -113v-381h-46v522h40l4 -93q74 103 181 103z" />
    <glyph glyph-name="Omacron" unicode="&#x14c;" horiz-adv-x="691" 
d="M220 803v39h229v-39h-229zM345 694q126 0 201 -92t75 -261q0 -166 -74.5 -259t-201.5 -93q-125 0 -200 92t-75 259q0 166 75.5 260t199.5 94zM345 653q-104 0 -164.5 -79.5t-60.5 -233.5q0 -151 61 -230t164 -79q107 0 166.5 78.5t59.5 231.5q0 154 -60 233t-166 79z" />
    <glyph glyph-name="omacron" unicode="&#x14d;" horiz-adv-x="567" 
d="M169 679v39h229v-39h-229zM284 532q102 0 159 -70.5t57 -198.5t-58 -201t-159 -73t-158.5 72.5t-57.5 198.5q0 127 58.5 199.5t158.5 72.5zM284 492q-79 0 -124 -59.5t-45 -172.5q0 -111 44 -171t124 -60q79 0 124 60t45 174q0 112 -44 170.5t-124 58.5z" />
    <glyph glyph-name="Obreve" unicode="&#x14e;" horiz-adv-x="691" 
d="M335 767q-48 0 -82 26.5t-41 65.5l32 8q22 -61 91 -61t91 61l32 -8q-7 -39 -41 -65.5t-82 -26.5zM345 694q126 0 201 -92t75 -261q0 -166 -74.5 -259t-201.5 -93q-125 0 -200 92t-75 259q0 166 75.5 260t199.5 94zM345 653q-104 0 -164.5 -79.5t-60.5 -233.5
q0 -151 61 -230t164 -79q107 0 166.5 78.5t59.5 231.5q0 154 -60 233t-166 79z" />
    <glyph glyph-name="obreve" unicode="&#x14f;" horiz-adv-x="567" 
d="M284 656q-49 0 -82.5 28t-40.5 75l32 7q20 -70 91 -70t91 70l32 -7q-7 -46 -40.5 -74.5t-82.5 -28.5zM284 532q102 0 159 -70.5t57 -198.5t-58 -201t-159 -73t-158.5 72.5t-57.5 198.5q0 127 58.5 199.5t158.5 72.5zM284 492q-79 0 -124 -59.5t-45 -172.5q0 -111 44 -171
t124 -60q79 0 124 60t45 174q0 112 -44 170.5t-124 58.5z" />
    <glyph glyph-name="Ohungarumlaut" unicode="&#x150;" horiz-adv-x="691" 
d="M484 907l-88 -136l-31 15l76 144zM363 907l-81 -132l-31 15l69 139zM345 694q126 0 201 -92t75 -261q0 -166 -74.5 -259t-201.5 -93q-125 0 -200 92t-75 259q0 166 75.5 260t199.5 94zM345 653q-104 0 -164.5 -79.5t-60.5 -233.5q0 -151 61 -230t164 -79
q107 0 166.5 78.5t59.5 231.5q0 154 -60 233t-166 79z" />
    <glyph glyph-name="ohungarumlaut" unicode="&#x151;" horiz-adv-x="567" 
d="M439 781l-88 -136l-31 15l76 144zM318 781l-81 -132l-31 15l69 139zM284 532q102 0 159 -70.5t57 -198.5t-58 -201t-159 -73t-158.5 72.5t-57.5 198.5q0 127 58.5 199.5t158.5 72.5zM284 492q-79 0 -124 -59.5t-45 -172.5q0 -111 44 -171t124 -60q79 0 124 60t45 174
q0 112 -44 170.5t-124 58.5z" />
    <glyph glyph-name="OE" unicode="&#x152;" horiz-adv-x="863" 
d="M817 0h-414q-35 -11 -69 -11q-117 0 -190.5 92.5t-73.5 258.5q0 165 74 259.5t190 94.5q39 0 70 -10h407l-6 -41h-325q112 -78 120 -266h166v-41h-165q-3 -213 -123 -295h339v-41zM120 340q0 -150 59.5 -229.5t155.5 -79.5q101 0 158.5 80t57.5 237q0 149 -58.5 227
t-157.5 78q-97 0 -156 -80t-59 -233z" />
    <glyph glyph-name="oe" unicode="&#x153;" horiz-adv-x="920" 
d="M857 282q0 -21 -2 -41h-355q5 -107 51 -159t120 -52t142 53l23 -30q-75 -64 -167 -64q-69 0 -119 37t-75 104q-25 -67 -74.5 -104t-117.5 -37q-101 0 -158.5 72.5t-57.5 198.5q0 127 58.5 199.5t158.5 72.5q140 0 193 -139q25 65 71 102t109 37q98 0 149 -67t51 -183z
M811 278v19q0 91 -38 143.5t-114 52.5q-67 0 -111 -53.5t-48 -161.5h311zM283 29q79 0 124 60t45 174q0 112 -44 170.5t-124 58.5q-79 0 -124 -59.5t-45 -172.5q0 -111 44 -171t124 -60z" />
    <glyph glyph-name="Racute" unicode="&#x154;" horiz-adv-x="584" 
d="M207 759l-13 29l183 92l22 -44zM310 313h-148v-313h-47v684h161q237 0 237 -183q0 -75 -39.5 -118t-114.5 -62l189 -321h-58zM283 353q180 0 180 148q0 72 -44.5 107t-145.5 35h-111v-290h121z" />
    <glyph glyph-name="racute" unicode="&#x155;" horiz-adv-x="369" 
d="M133 648l-15 28l184 100l21 -44zM303 532q34 0 52 -6l-9 -43q-20 6 -46 6q-55 0 -88.5 -39.5t-55.5 -123.5v-326h-46v522h40l3 -121q42 131 150 131z" />
    <glyph glyph-name="Rcommaaccent" unicode="&#x156;" horiz-adv-x="584" 
d="M548 0h-58l-180 313h-148v-313h-47v684h161q237 0 237 -183q0 -75 -39.5 -118t-114.5 -62zM283 353q180 0 180 148q0 72 -44.5 107t-145.5 35h-111v-290h121zM304 -87q18 0 28.5 -11t10.5 -27q0 -17 -20 -62l-40 -86h-29l33 114q-22 10 -22 34q0 16 11 27t28 11z" />
    <glyph glyph-name="rcommaaccent" unicode="&#x157;" horiz-adv-x="369" 
d="M303 532q34 0 52 -6l-9 -43q-20 6 -46 6q-55 0 -88.5 -39.5t-55.5 -123.5v-326h-46v522h40l3 -121q42 131 150 131zM132 -87q18 0 28.5 -11t10.5 -27q0 -17 -20 -62l-40 -86h-29l33 114q-22 10 -22 34q0 16 11 27t28 11z" />
    <glyph glyph-name="Rcaron" unicode="&#x158;" horiz-adv-x="584" 
d="M283 757l-128 98l21 25l121 -79l119 79l21 -25l-127 -98h-27zM310 313h-148v-313h-47v684h161q237 0 237 -183q0 -75 -39.5 -118t-114.5 -62l189 -321h-58zM283 353q180 0 180 148q0 72 -44.5 107t-145.5 35h-111v-290h121z" />
    <glyph glyph-name="rcaron" unicode="&#x159;" horiz-adv-x="369" 
d="M222 637l-128 104l21 24l121 -84l119 84l21 -24l-127 -104h-27zM153 401q42 131 150 131q34 0 52 -6l-9 -43q-20 6 -46 6q-55 0 -88.5 -39.5t-55.5 -123.5v-326h-46v522h40z" />
    <glyph glyph-name="Sacute" unicode="&#x15a;" horiz-adv-x="537" 
d="M377 836l-192 -77l-13 29l183 92zM266 694q62 0 105.5 -18.5t85.5 -55.5l-29 -32q-71 65 -161 65q-67 0 -107.5 -33.5t-40.5 -88.5q0 -56 35 -86.5t128 -58.5q103 -31 149.5 -74.5t46.5 -126.5q0 -87 -60.5 -141.5t-159.5 -54.5q-124 0 -214 85l29 31q79 -74 184 -74
q77 0 125 41t48 112q0 65 -36 99t-131 63q-105 32 -148.5 73t-43.5 111q0 71 54 117.5t141 46.5z" />
    <glyph glyph-name="sacute" unicode="&#x15b;" horiz-adv-x="463" 
d="M330 732l-190 -84l-15 28l184 100zM233 532q89 0 162 -57l-23 -32q-66 50 -138 50q-55 0 -89 -25.5t-34 -69.5q0 -40 29 -62t103 -42q90 -24 128 -57.5t38 -98.5q0 -68 -51.5 -108.5t-130.5 -40.5q-104 0 -183 67l26 30q71 -57 156 -57q60 0 97.5 28.5t37.5 78.5
q0 51 -28.5 75t-112.5 47q-84 22 -120 54.5t-36 86.5q0 58 48 95.5t121 37.5z" />
    <glyph glyph-name="Scircumflex" unicode="&#x15c;" horiz-adv-x="537" 
d="M271 843l-121 -80l-21 25l128 99h27l127 -99l-21 -25zM266 694q62 0 105.5 -18.5t85.5 -55.5l-29 -32q-71 65 -161 65q-67 0 -107.5 -33.5t-40.5 -88.5q0 -56 35 -86.5t128 -58.5q103 -31 149.5 -74.5t46.5 -126.5q0 -87 -60.5 -141.5t-159.5 -54.5q-124 0 -214 85l29 31
q79 -74 184 -74q77 0 125 41t48 112q0 65 -36 99t-131 63q-105 32 -148.5 73t-43.5 111q0 71 54 117.5t141 46.5z" />
    <glyph glyph-name="scircumflex" unicode="&#x15d;" horiz-adv-x="463" 
d="M99 672l127 103h27l128 -103l-21 -25l-120 84l-120 -84zM233 532q89 0 162 -57l-23 -32q-66 50 -138 50q-55 0 -89 -25.5t-34 -69.5q0 -40 29 -62t103 -42q90 -24 128 -57.5t38 -98.5q0 -68 -51.5 -108.5t-130.5 -40.5q-104 0 -183 67l26 30q71 -57 156 -57
q60 0 97.5 28.5t37.5 78.5q0 51 -28.5 75t-112.5 47q-84 22 -120 54.5t-36 86.5q0 58 48 95.5t121 37.5z" />
    <glyph glyph-name="Scedilla" unicode="&#x15e;" horiz-adv-x="537" 
d="M478 185q0 -83 -56 -137t-148 -59v-56q92 -7 92 -73q0 -38 -28.5 -60t-70.5 -22q-43 0 -76 20l16 30q28 -15 59 -15q25 0 41 12t16 35q0 45 -89 45l7 84q-113 5 -197 85l29 31q79 -74 184 -74q77 0 125 41t48 112q0 65 -36 99t-131 63q-105 32 -148.5 73t-43.5 111
q0 71 54 117.5t141 46.5q62 0 105.5 -18.5t85.5 -55.5l-29 -32q-71 65 -161 65q-67 0 -107.5 -33.5t-40.5 -88.5q0 -56 35 -86.5t128 -58.5q103 -31 149.5 -74.5t46.5 -126.5z" />
    <glyph glyph-name="scedilla" unicode="&#x15f;" horiz-adv-x="463" 
d="M409 138q0 -64 -46.5 -104t-119.5 -45v-56q92 -7 92 -73q0 -38 -28.5 -60t-70.5 -22q-43 0 -76 20l16 30q28 -15 59 -15q25 0 41 12t16 35q0 45 -89 45l7 84q-92 5 -166 67l26 30q71 -57 156 -57q60 0 97.5 28.5t37.5 78.5q0 51 -28.5 75t-112.5 47q-84 22 -120 54.5
t-36 86.5q0 58 48 95.5t121 37.5q89 0 162 -57l-23 -32q-66 50 -138 50q-55 0 -89 -25.5t-34 -69.5q0 -40 29 -62t103 -42q90 -24 128 -57.5t38 -98.5z" />
    <glyph glyph-name="Scaron" unicode="&#x160;" horiz-adv-x="537" 
d="M414 855l-127 -98h-27l-128 98l21 25l121 -79l119 79zM266 694q62 0 105.5 -18.5t85.5 -55.5l-29 -32q-71 65 -161 65q-67 0 -107.5 -33.5t-40.5 -88.5q0 -56 35 -86.5t128 -58.5q103 -31 149.5 -74.5t46.5 -126.5q0 -87 -60.5 -141.5t-159.5 -54.5q-124 0 -214 85l29 31
q79 -74 184 -74q77 0 125 41t48 112q0 65 -36 99t-131 63q-105 32 -148.5 73t-43.5 111q0 71 54 117.5t141 46.5z" />
    <glyph glyph-name="scaron" unicode="&#x161;" horiz-adv-x="463" 
d="M382 741l-127 -104h-27l-128 104l21 24l121 -84l119 84zM233 532q89 0 162 -57l-23 -32q-66 50 -138 50q-55 0 -89 -25.5t-34 -69.5q0 -40 29 -62t103 -42q90 -24 128 -57.5t38 -98.5q0 -68 -51.5 -108.5t-130.5 -40.5q-104 0 -183 67l26 30q71 -57 156 -57
q60 0 97.5 28.5t37.5 78.5q0 51 -28.5 75t-112.5 47q-84 22 -120 54.5t-36 86.5q0 58 48 95.5t121 37.5z" />
    <glyph glyph-name="Tcedilla" unicode="&#x162;" horiz-adv-x="487" 
d="M267 641v-625h1v-83q92 -7 92 -73q0 -38 -29 -60t-71 -22t-75 20l16 30q28 -15 58 -15q25 0 41.5 12t16.5 35q0 45 -89 45l8 95h-16v641h-205v43h462l-6 -43h-204z" />
    <glyph glyph-name="tcedilla" unicode="&#x163;" horiz-adv-x="334" 
d="M237 -67q92 -7 92 -73q0 -38 -28.5 -60t-70.5 -22q-43 0 -76 20l16 30q28 -15 59 -15q25 0 41 12t16 35q0 45 -89 45l7 86q-96 16 -96 132v360h-87v39h87v127l46 5v-132h138l-6 -39h-132v-357q0 -96 81 -96q42 0 84 24l19 -33q-47 -31 -101 -32v-56z" />
    <glyph glyph-name="Tcaron" unicode="&#x164;" horiz-adv-x="487" 
d="M381 855l-127 -98h-27l-128 98l21 25l121 -79l119 79zM471 641h-204v-641h-47v641h-205v43h462z" />
    <glyph glyph-name="tcaron" unicode="&#x165;" horiz-adv-x="334" 
d="M256 581l-30 4l18 158l46 -6zM338 21q-50 -32 -108 -32q-57 0 -89.5 34t-32.5 100v360h-87v39h87v127l46 5v-132h138l-6 -39h-132v-357q0 -96 81 -96q42 0 84 24z" />
    <glyph glyph-name="Tbar" unicode="&#x166;" horiz-adv-x="494" 
d="M267 640v-257h126v-39h-126v-345h-47v345h-122v39h122v257h-205v43h462l-6 -43h-204z" />
    <glyph glyph-name="tbar" unicode="&#x167;" horiz-adv-x="334" 
d="M338 21q-50 -32 -108 -32q-57 0 -89.5 34t-32.5 100v186h-84v38h84v136h-87v39h87v127l46 5v-132h138l-6 -39h-132v-136h131l-6 -38h-125v-183q0 -96 81 -96q42 0 84 24z" />
    <glyph glyph-name="Utilde" unicode="&#x168;" horiz-adv-x="648" 
d="M389 796q-31 0 -68.5 22t-52.5 22q-20 0 -30.5 -7.5t-26.5 -29.5l-29 15q37 60 86 60q22 0 60 -22t58 -22q27 0 56 43l29 -15q-32 -66 -82 -66zM543 211q0 -101 -55.5 -161.5t-163.5 -60.5q-109 0 -164 60.5t-55 161.5v473h47v-469q0 -87 42.5 -135t129.5 -48t129 48.5
t42 134.5v469h48v-473z" />
    <glyph glyph-name="utilde" unicode="&#x169;" horiz-adv-x="578" 
d="M349 670q-31 0 -68.5 22t-52.5 22q-20 0 -30.5 -7.5t-26.5 -29.5l-29 15q37 60 86 60q22 0 60 -22t58 -22q27 0 56 43l29 -15q-32 -66 -82 -66zM468 0h-39l-3 97q-61 -108 -173 -108q-71 0 -109.5 41.5t-38.5 118.5v373h46v-369q0 -124 111 -124q96 0 160 112v381h46
v-522z" />
    <glyph glyph-name="Umacron" unicode="&#x16a;" horiz-adv-x="648" 
d="M212 803v39h229v-39h-229zM543 211q0 -101 -55.5 -161.5t-163.5 -60.5q-109 0 -164 60.5t-55 161.5v473h47v-469q0 -87 42.5 -135t129.5 -48t129 48.5t42 134.5v469h48v-473z" />
    <glyph glyph-name="umacron" unicode="&#x16b;" horiz-adv-x="578" 
d="M172 679v39h229v-39h-229zM468 0h-39l-3 97q-61 -108 -173 -108q-71 0 -109.5 41.5t-38.5 118.5v373h46v-369q0 -124 111 -124q96 0 160 112v381h46v-522z" />
    <glyph glyph-name="Ubreve" unicode="&#x16c;" horiz-adv-x="648" 
d="M326 767q-48 0 -82 26.5t-41 65.5l32 8q22 -61 91 -61t91 61l32 -8q-7 -39 -41 -65.5t-82 -26.5zM543 211q0 -101 -55.5 -161.5t-163.5 -60.5q-109 0 -164 60.5t-55 161.5v473h47v-469q0 -87 42.5 -135t129.5 -48t129 48.5t42 134.5v469h48v-473z" />
    <glyph glyph-name="ubreve" unicode="&#x16d;" horiz-adv-x="578" 
d="M287 656q-49 0 -82.5 28t-40.5 75l32 7q20 -70 91 -70t91 70l32 -7q-7 -46 -40.5 -74.5t-82.5 -28.5zM468 0h-39l-3 97q-61 -108 -173 -108q-71 0 -109.5 41.5t-38.5 118.5v373h46v-369q0 -124 111 -124q96 0 160 112v381h46v-522z" />
    <glyph glyph-name="Uring" unicode="&#x16e;" horiz-adv-x="648" 
d="M326 941q41 0 67 -24.5t26 -64.5t-26 -65t-67 -25t-67 25t-26 65t26 64.5t67 24.5zM326 911q-27 0 -41.5 -15.5t-14.5 -43.5q0 -59 56 -59t56 59q0 28 -14.5 43.5t-41.5 15.5zM543 211q0 -101 -55.5 -161.5t-163.5 -60.5q-109 0 -164 60.5t-55 161.5v473h47v-469
q0 -87 42.5 -135t129.5 -48t129 48.5t42 134.5v469h48v-473z" />
    <glyph glyph-name="uring" unicode="&#x16f;" horiz-adv-x="578" 
d="M287 815q41 0 67 -24.5t26 -64.5t-26 -65t-67 -25t-67 25t-26 65t26 64.5t67 24.5zM287 785q-27 0 -41.5 -15.5t-14.5 -43.5q0 -59 56 -59t56 59q0 28 -14.5 43.5t-41.5 15.5zM468 0h-39l-3 97q-61 -108 -173 -108q-71 0 -109.5 41.5t-38.5 118.5v373h46v-369
q0 -124 111 -124q96 0 160 112v381h46v-522z" />
    <glyph glyph-name="Uhungarumlaut" unicode="&#x170;" horiz-adv-x="648" 
d="M475 907l-88 -136l-31 15l76 144zM354 907l-81 -132l-31 15l69 139zM543 211q0 -101 -55.5 -161.5t-163.5 -60.5q-109 0 -164 60.5t-55 161.5v473h47v-469q0 -87 42.5 -135t129.5 -48t129 48.5t42 134.5v469h48v-473z" />
    <glyph glyph-name="uhungarumlaut" unicode="&#x171;" horiz-adv-x="578" 
d="M441 781l-88 -136l-31 15l76 144zM320 781l-81 -132l-31 15l69 139zM468 0h-39l-3 97q-61 -108 -173 -108q-71 0 -109.5 41.5t-38.5 118.5v373h46v-369q0 -124 111 -124q96 0 160 112v381h46v-522z" />
    <glyph glyph-name="Uogonek" unicode="&#x172;" horiz-adv-x="648" 
d="M543 684v-473q0 -81 -36 -137t-107 -76q-64 -29 -91.5 -55t-27.5 -62q0 -53 67 -53q23 0 56 6l-5 -40q-35 -7 -56 -7q-52 0 -79.5 25t-27.5 64q0 69 91 113h-3q-109 0 -164 60.5t-55 161.5v473h47v-469q0 -87 42.5 -135t129.5 -48t129 48.5t42 134.5v469h48z" />
    <glyph glyph-name="uogonek" unicode="&#x173;" horiz-adv-x="578" 
d="M414 -172q23 0 56 6l-5 -40q-35 -7 -56 -7q-52 0 -79.5 25t-27.5 64q0 42 31 74t96 61l-3 86q-61 -108 -173 -108q-71 0 -109.5 41.5t-38.5 118.5v373h46v-369q0 -124 111 -124q96 0 160 112v381h46v-520l1 -2q-66 -30 -94 -56t-28 -63q0 -53 67 -53z" />
    <glyph glyph-name="Wcircumflex" unicode="&#x174;" horiz-adv-x="804" 
d="M402 843l-121 -80l-21 25l128 99h27l127 -99l-21 -25zM617 0h-58l-157 633l-158 -633h-57l-155 684h49l137 -639l157 639h54l159 -639l137 639h46z" />
    <glyph glyph-name="wcircumflex" unicode="&#x175;" horiz-adv-x="692" 
d="M208 672l127 103h27l128 -103l-21 -25l-120 84l-120 -84zM534 0h-62l-125 478l-125 -478h-61l-134 522h49l117 -484l128 484h54l128 -485l116 485h45z" />
    <glyph glyph-name="Ycircumflex" unicode="&#x176;" horiz-adv-x="513" 
d="M255 843l-121 -80l-21 25l128 99h27l127 -99l-21 -25zM281 269v-269h-47v268l-218 416h53l190 -374l186 374h52z" />
    <glyph glyph-name="ycircumflex" unicode="&#x177;" horiz-adv-x="459" 
d="M85 672l127 103h27l128 -103l-21 -25l-120 84l-120 -84zM261 -2q-31 -91 -73 -135t-129 -64l-6 36q74 20 104.5 53.5t59.5 111.5h-17l-183 522h50l165 -488l160 488h50z" />
    <glyph glyph-name="Ydieresis" unicode="&#x178;" horiz-adv-x="513" 
d="M163 858q15 0 24.5 -9.5t9.5 -23.5t-9.5 -23.5t-24.5 -9.5t-24.5 9.5t-9.5 23.5t9.5 23.5t24.5 9.5zM345 858q14 0 23.5 -9.5t9.5 -23.5t-9.5 -23.5t-23.5 -9.5q-15 0 -24.5 9.5t-9.5 23.5t9.5 23.5t24.5 9.5zM281 269v-269h-47v268l-218 416h53l190 -374l186 374h52z
" />
    <glyph glyph-name="Zacute" unicode="&#x179;" horiz-adv-x="514" 
d="M367 836l-192 -77l-13 29l183 92zM465 644l-373 -601h364l-6 -43h-413v40l375 602h-337v42h390v-40z" />
    <glyph glyph-name="zacute" unicode="&#x17a;" horiz-adv-x="417" 
d="M307 732l-190 -84l-15 28l184 100zM382 485l-298 -444h295l-5 -41h-345v36l299 445h-275v41h329v-37z" />
    <glyph glyph-name="Zdotaccent" unicode="&#x17b;" horiz-adv-x="514" 
d="M260 870q16 0 26 -10t10 -25t-10 -25t-26 -10t-26 10t-10 25t10 25t26 10zM465 644l-373 -601h364l-6 -43h-413v40l375 602h-337v42h390v-40z" />
    <glyph glyph-name="zdotaccent" unicode="&#x17c;" horiz-adv-x="417" 
d="M215 744q16 0 26 -10t10 -25t-10 -25t-26 -10t-26 10t-10 25t10 25t26 10zM382 485l-298 -444h295l-5 -41h-345v36l299 445h-275v41h329v-37z" />
    <glyph glyph-name="Zcaron" unicode="&#x17d;" horiz-adv-x="514" 
d="M404 855l-127 -98h-27l-128 98l21 25l121 -79l119 79zM465 644l-373 -601h364l-6 -43h-413v40l375 602h-337v42h390v-40z" />
    <glyph glyph-name="zcaron" unicode="&#x17e;" horiz-adv-x="417" 
d="M359 741l-127 -104h-27l-128 104l21 24l121 -84l119 84zM382 485l-298 -444h295l-5 -41h-345v36l299 445h-275v41h329v-37z" />
    <glyph glyph-name="florin" unicode="&#x192;" horiz-adv-x="312" 
d="M251 701q-95 0 -95 -91v-88h141l-6 -39h-135v-469q0 -96 -29 -138t-102 -76l-13 33q56 28 77 63t21 117v470h-87v39h87v90q0 60 37.5 94.5t100.5 34.5q64 0 120 -28l-16 -35q-52 23 -101 23z" />
    <glyph glyph-name="AEacute" unicode="&#x1fc;" horiz-adv-x="772" 
d="M365 759l-13 29l183 92l22 -44zM729 41v-41h-267l-48 188h-291l-71 -188h-48l265 684h410l-6 -41h-330l69 -266h259v-41h-248l76 -295h230zM404 229l-107 417l-158 -417h265z" />
    <glyph glyph-name="aeacute" unicode="&#x1fd;" horiz-adv-x="847" 
d="M325 648l-15 28l184 100l21 -44zM784 282q0 -21 -2 -41h-354q5 -107 51 -159t120 -52t142 53l23 -30q-77 -64 -167 -64q-129 0 -185 112q-42 -60 -87 -86t-104 -26q-75 0 -118 42.5t-43 113.5q0 80 57 124t156 44h107v54q0 65 -29 95t-96 30q-63 0 -142 -31l-13 37
q85 34 159 34q132 0 160 -109q54 109 169 109q95 0 145.5 -67t50.5 -183zM739 278v19q0 91 -38 143.5t-112 52.5q-69 0 -113 -53.5t-48 -161.5h311zM227 28q51 0 91 26.5t79 84.5q-17 53 -17 117v1v19h-100q-82 0 -126 -32.5t-44 -97.5q0 -56 31 -87t86 -31z" />
    <glyph glyph-name="Oslashacute" unicode="&#x1fe;" horiz-adv-x="691" 
d="M253 770l-13 29l183 92l22 -44zM462 669q75 -35 117 -118.5t42 -209.5q0 -166 -74.5 -259t-201.5 -93q-43 0 -81 12l-33 -118l-43 12l38 120q-74 37 -115 120t-41 205q0 166 75.5 260t199.5 94q41 0 79 -11l35 124l43 -12zM120 340q0 -217 122 -284l173 587
q-30 10 -70 10q-104 0 -164.5 -79.5t-60.5 -233.5zM345 31q107 0 166.5 78.5t59.5 231.5q0 225 -124 289l-174 -588q35 -11 72 -11z" />
    <glyph glyph-name="oslashacute" unicode="&#x1ff;" horiz-adv-x="567" 
d="M186 648l-15 28l184 100l21 -44zM389 507q111 -61 111 -244q0 -128 -58 -201t-159 -73q-36 0 -66 9l-41 -121l-39 11l43 126q-113 63 -113 246q0 127 58.5 199.5t158.5 72.5q37 0 67 -9l39 123l40 -12zM115 260q0 -157 82 -209l144 433q-29 8 -57 8q-79 0 -124 -59.5
t-45 -172.5zM283 29q79 0 124 60t45 174q0 156 -81 207l-143 -433q27 -8 55 -8z" />
    <glyph glyph-name="Scommaaccent" unicode="&#x218;" horiz-adv-x="537" 
d="M266 694q62 0 105.5 -18.5t85.5 -55.5l-29 -32q-71 65 -161 65q-67 0 -107.5 -33.5t-40.5 -88.5q0 -56 35 -86.5t128 -58.5q103 -31 149.5 -74.5t46.5 -126.5q0 -87 -60.5 -141.5t-159.5 -54.5q-124 0 -214 85l29 31q79 -74 184 -74q77 0 125 41t48 112q0 65 -36 99
t-131 63q-105 32 -148.5 73t-43.5 111q0 71 54 117.5t141 46.5zM262 -87q18 0 28.5 -11t10.5 -27q0 -17 -20 -62l-40 -86h-29l33 114q-22 10 -22 34q0 16 11 27t28 11z" />
    <glyph glyph-name="scommaaccent" unicode="&#x219;" horiz-adv-x="463" 
d="M233 532q89 0 162 -57l-23 -32q-66 50 -138 50q-55 0 -89 -25.5t-34 -69.5q0 -40 29 -62t103 -42q90 -24 128 -57.5t38 -98.5q0 -68 -51.5 -108.5t-130.5 -40.5q-104 0 -183 67l26 30q71 -57 156 -57q60 0 97.5 28.5t37.5 78.5q0 51 -28.5 75t-112.5 47q-84 22 -120 54.5
t-36 86.5q0 58 48 95.5t121 37.5zM231 -87q18 0 28.5 -11t10.5 -27q0 -17 -20 -62l-40 -86h-29l33 114q-22 10 -22 34q0 16 11 27t28 11z" />
    <glyph glyph-name="uni021A" unicode="&#x21a;" horiz-adv-x="487" 
d="M471 641h-204v-641h-47v641h-205v43h462zM243 -87q18 0 28.5 -11t10.5 -27q0 -17 -20 -62l-40 -86h-29l33 114q-22 10 -22 34q0 16 11 27t28 11z" />
    <glyph glyph-name="uni021B" unicode="&#x21b;" horiz-adv-x="334" 
d="M338 21q-50 -32 -108 -32q-57 0 -89.5 34t-32.5 100v360h-87v39h87v127l46 5v-132h138l-6 -39h-132v-357q0 -96 81 -96q42 0 84 24zM225 -87q18 0 28.5 -11t10.5 -27q0 -17 -20 -62l-40 -86h-29l33 114q-22 10 -22 34q0 16 11 27t28 11z" />
    <glyph glyph-name="jdotless" unicode="&#x237;" horiz-adv-x="266" 
d="M156 14q0 -96 -29 -138t-102 -76l-13 33q56 28 77 63t21 117v509h46v-508z" />
    <glyph glyph-name="uni02BC" unicode="&#x2bc;" horiz-adv-x="144" 
d="M75 741q18 0 28.5 -10.5t10.5 -26.5q0 -12 -20 -63l-35 -90h-29l28 118q-22 10 -22 35q0 16 11 26.5t28 10.5z" />
    <glyph glyph-name="circumflex" unicode="&#x2c6;" horiz-adv-x="342" 
d="M30 672l127 103h27l128 -103l-21 -25l-120 84l-120 -84z" />
    <glyph glyph-name="caron" unicode="&#x2c7;" horiz-adv-x="342" 
d="M312 739l-127 -104h-27l-128 104l21 24l121 -84l119 84z" />
    <glyph glyph-name="breve" unicode="&#x2d8;" horiz-adv-x="306" 
d="M153 656q-49 0 -82.5 28t-40.5 75l32 7q20 -70 91 -70t91 70l32 -7q-7 -46 -40.5 -74.5t-82.5 -28.5z" />
    <glyph glyph-name="dotaccent" unicode="&#x2d9;" horiz-adv-x="132" 
d="M66 744q16 0 26 -10t10 -25t-10 -25t-26 -10t-26 10t-10 25t10 25t26 10z" />
    <glyph glyph-name="ring" unicode="&#x2da;" horiz-adv-x="243" 
d="M123 815q41 0 67 -24.5t26 -64.5t-26 -65t-67 -25t-67 25t-26 65t26 64.5t67 24.5zM123 785q-27 0 -41.5 -15.5t-14.5 -43.5q0 -59 56 -59t56 59q0 28 -14.5 43.5t-41.5 15.5z" />
    <glyph glyph-name="ogonek" unicode="&#x2db;" horiz-adv-x="246" 
d="M164 0q-66 -30 -94 -56t-28 -63q0 -53 67 -53q23 0 56 6l-5 -40q-35 -7 -56 -7q-52 0 -79.5 25t-27.5 64q0 47 38 81.5t117 64.5z" />
    <glyph glyph-name="tilde" unicode="&#x2dc;" horiz-adv-x="349" 
d="M237 670q-31 0 -68.5 22t-52.5 22q-20 0 -30.5 -7.5t-26.5 -29.5l-29 15q37 60 86 60q22 0 60 -22t58 -22q27 0 56 43l29 -15q-32 -66 -82 -66z" />
    <glyph glyph-name="hungarumlaut" unicode="&#x2dd;" horiz-adv-x="293" 
d="M263 781l-88 -136l-31 15l76 144zM142 781l-81 -132l-31 15l69 139z" />
    <glyph glyph-name="gravecomb" unicode="&#x300;" horiz-adv-x="0" 
d="M244 662l-13 -29l-192 77l22 44z" />
    <glyph glyph-name="acutecomb" unicode="&#x301;" horiz-adv-x="0" 
d="M244 710l-192 -77l-13 29l183 92z" />
    <glyph glyph-name="uni0302" unicode="&#x302;" horiz-adv-x="0" 
d="M181 717l-121 -80l-21 25l128 99h27l127 -99l-21 -25z" />
    <glyph glyph-name="tildecomb" unicode="&#x303;" horiz-adv-x="0" 
d="M246 670q-31 0 -68.5 22t-52.5 22q-20 0 -30.5 -7.5t-26.5 -29.5l-29 15q37 60 86 60q22 0 60 -22t58 -22q27 0 56 43l29 -15q-32 -66 -82 -66z" />
    <glyph glyph-name="uni0304" unicode="&#x304;" horiz-adv-x="0" 
d="M39 679v39h229v-39h-229z" />
    <glyph glyph-name="uni0306" unicode="&#x306;" horiz-adv-x="0" 
d="M162 641q-48 0 -82 26.5t-41 65.5l32 8q22 -61 91 -61t91 61l32 -8q-7 -39 -41 -65.5t-82 -26.5z" />
    <glyph glyph-name="uni0307" unicode="&#x307;" horiz-adv-x="0" 
d="M75 744q16 0 26 -10t10 -25t-10 -25t-26 -10t-26 10t-10 25t10 25t26 10z" />
    <glyph glyph-name="uni0308" unicode="&#x308;" horiz-adv-x="0" 
d="M73 732q15 0 24.5 -9.5t9.5 -23.5t-9.5 -23.5t-24.5 -9.5t-24.5 9.5t-9.5 23.5t9.5 23.5t24.5 9.5zM255 732q14 0 23.5 -9.5t9.5 -23.5t-9.5 -23.5t-23.5 -9.5q-15 0 -24.5 9.5t-9.5 23.5t9.5 23.5t24.5 9.5z" />
    <glyph glyph-name="uni030A" unicode="&#x30a;" horiz-adv-x="0" 
d="M132 815q41 0 67 -24.5t26 -64.5t-26 -65t-67 -25t-67 25t-26 65t26 64.5t67 24.5zM132 785q-27 0 -41.5 -15.5t-14.5 -43.5q0 -59 56 -59t56 59q0 28 -14.5 43.5t-41.5 15.5z" />
    <glyph glyph-name="uni030B" unicode="&#x30b;" horiz-adv-x="0" 
d="M272 781l-88 -136l-31 15l76 144zM151 781l-81 -132l-31 15l69 139z" />
    <glyph glyph-name="uni030C" unicode="&#x30c;" horiz-adv-x="0" 
d="M321 729l-127 -98h-27l-128 98l21 25l121 -79l119 79z" />
    <glyph glyph-name="uni0313" unicode="&#x313;" horiz-adv-x="0" 
d="M77 776q17 0 28 -11t11 -26q0 -17 -21 -63l-39 -86h-30l33 114q-21 9 -21 35q0 15 11 26t28 11z" />
    <glyph glyph-name="uni0314" unicode="&#x314;" horiz-adv-x="0" 
d="M65 590q-18 0 -28.5 11t-10.5 27q0 17 21 62l40 86h29l-33 -114q21 -9 21 -34q0 -16 -10.5 -27t-28.5 -11z" />
    <glyph glyph-name="uni0326" unicode="&#x326;" horiz-adv-x="0" 
d="M75 -87q18 0 28.5 -11t10.5 -27q0 -17 -20 -62l-40 -86h-29l33 114q-22 10 -22 34q0 16 11 27t28 11z" />
    <glyph glyph-name="uni0327" unicode="&#x327;" horiz-adv-x="0" 
d="M113 -67q92 -7 92 -73q0 -38 -28.5 -60t-70.5 -22q-43 0 -76 20l16 30q28 -15 59 -15q25 0 41 12t16 35q0 45 -89 45l9 111h31v-83z" />
    <glyph glyph-name="tonos" unicode="&#x384;" horiz-adv-x="145" 
d="M115 750l-52 -148l-33 5l33 154z" />
    <glyph glyph-name="dieresistonos" unicode="&#x385;" horiz-adv-x="314" 
d="M219 843l-47 -131l-33 5l29 136zM64 702q15 0 24.5 -9.5t9.5 -23.5t-9.5 -23.5t-24.5 -9.5t-24.5 9.5t-9.5 23.5t9.5 23.5t24.5 9.5zM251 702q15 0 24 -9.5t9 -23.5t-9 -23.5t-24 -9.5t-24.5 9.5t-9.5 23.5t9.5 23.5t24.5 9.5z" />
    <glyph glyph-name="Alphatonos" unicode="&#x386;" horiz-adv-x="562" 
d="M98 535l-34 6l33 153l56 -10zM428 192h-297l-63 -192h-48l231 684h60l231 -684h-51zM415 234l-134 411l-136 -411h270z" />
    <glyph glyph-name="Epsilontonos" unicode="&#x388;" horiz-adv-x="504" 
d="M80 684l-55 -149l-34 6l33 153zM448 643h-286v-266h247v-41h-247v-295h298v-41h-345v684h339z" />
    <glyph glyph-name="Etatonos" unicode="&#x389;" horiz-adv-x="667" 
d="M80 684l-55 -149l-34 6l33 153zM504 339h-342v-339h-47v684h47v-303h342v303h48v-684h-48v339z" />
    <glyph glyph-name="Iotatonos" unicode="&#x38a;" horiz-adv-x="277" 
d="M80 684l-55 -149l-34 6l33 153zM163 0h-48v684h48v-684z" />
    <glyph glyph-name="Omicrontonos" unicode="&#x38c;" horiz-adv-x="691" 
d="M96 684l-55 -149l-34 6l33 153zM345 694q126 0 201 -92t75 -261q0 -166 -74.5 -259t-201.5 -93q-125 0 -200 92t-75 259q0 166 75.5 260t199.5 94zM345 653q-104 0 -164.5 -79.5t-60.5 -233.5q0 -151 61 -230t164 -79q107 0 166.5 78.5t59.5 231.5q0 154 -60 233t-166 79
z" />
    <glyph glyph-name="Upsilontonos" unicode="&#x38e;" horiz-adv-x="513" 
d="M3 684l-55 -149l-34 6l33 153zM281 269v-269h-47v268l-218 416h53l190 -374l186 374h52z" />
    <glyph glyph-name="Omegatonos" unicode="&#x38f;" horiz-adv-x="691" 
d="M105 684l-55 -149l-34 6l33 153zM345 694q126 0 201 -91t75 -259q0 -121 -37 -192.5t-111 -108.5h126v-43h-193v42q165 61 165 302q0 152 -60 230.5t-166 78.5q-104 0 -164.5 -79t-60.5 -231q0 -123 41 -194.5t123 -106.5v-42h-192v43h124q-75 40 -110.5 110.5
t-35.5 189.5q0 164 75.5 257.5t199.5 93.5z" />
    <glyph glyph-name="iotadieresistonos" unicode="&#x390;" horiz-adv-x="259" 
d="M189 843l-47 -131l-33 5l29 136zM34 702q15 0 24.5 -9.5t9.5 -23.5t-9.5 -23.5t-24.5 -9.5t-24.5 9.5t-9.5 23.5t9.5 23.5t24.5 9.5zM221 702q15 0 24 -9.5t9 -23.5t-9 -23.5t-24 -9.5t-24.5 9.5t-9.5 23.5t9.5 23.5t24.5 9.5zM151 118q0 -40 10.5 -58.5t36.5 -29.5
l-14 -37q-44 13 -61.5 40.5t-17.5 81.5v407h46v-404z" />
    <glyph glyph-name="Alpha" unicode="&#x391;" horiz-adv-x="562" 
d="M428 192h-297l-63 -192h-48l231 684h60l231 -684h-51zM415 234l-134 411l-136 -411h270z" />
    <glyph glyph-name="Beta" unicode="&#x392;" horiz-adv-x="594" 
d="M380 363q69 -7 113.5 -49.5t44.5 -125.5q0 -92 -62.5 -140t-175.5 -48h-185v684h149q116 0 178.5 -43t62.5 -127q0 -65 -33.5 -103t-91.5 -48zM162 643v-263h150q65 0 104.5 35t39.5 96q0 132 -187 132h-107zM301 41q187 0 187 147q0 76 -46.5 114t-123.5 38h-156v-299
h139z" />
    <glyph glyph-name="Gamma" unicode="&#x393;" horiz-adv-x="508" 
d="M491 640h-329v-640h-47v684h383z" />
    <glyph glyph-name="Delta" unicode="&#x394;" horiz-adv-x="572" 
d="M552 0h-532l236 684h60zM81 41h408l-203 604z" />
    <glyph glyph-name="Epsilon" unicode="&#x395;" horiz-adv-x="504" 
d="M448 643h-286v-266h247v-41h-247v-295h298v-41h-345v684h339z" />
    <glyph glyph-name="Zeta" unicode="&#x396;" horiz-adv-x="514" 
d="M465 644l-373 -601h364l-6 -43h-413v40l375 602h-337v42h390v-40z" />
    <glyph glyph-name="Eta" unicode="&#x397;" horiz-adv-x="667" 
d="M504 339h-342v-339h-47v684h47v-303h342v303h48v-684h-48v339z" />
    <glyph glyph-name="Theta" unicode="&#x398;" horiz-adv-x="691" 
d="M345 694q126 0 201 -92t75 -261q0 -166 -74.5 -259t-201.5 -93q-125 0 -200 92t-75 259q0 166 75.5 260t199.5 94zM345 653q-104 0 -164.5 -79.5t-60.5 -233.5q0 -151 61 -230t164 -79q107 0 166.5 78.5t59.5 231.5q0 154 -60 233t-166 79zM478 331h-265v40h265v-40z" />
    <glyph glyph-name="Iota" unicode="&#x399;" horiz-adv-x="277" 
d="M163 0h-48v684h48v-684z" />
    <glyph glyph-name="Kappa" unicode="&#x39a;" horiz-adv-x="533" 
d="M162 0h-47v684h47v-684zM224 369l309 -369h-59l-308 367l295 317h55z" />
    <glyph glyph-name="Lambda" unicode="&#x39b;" horiz-adv-x="562" 
d="M542 0h-51l-210 645l-213 -645h-48l231 684h60z" />
    <glyph glyph-name="Mu" unicode="&#x39c;" horiz-adv-x="772" 
d="M696 0h-46l-34 334q-19 178 -29 305l-180 -557h-46l-186 557q-2 -48 -26 -300l-32 -339h-45l67 684h67l179 -546l174 546h68z" />
    <glyph glyph-name="Nu" unicode="&#x39d;" horiz-adv-x="669" 
d="M554 0h-61l-339 631q6 -88 6 -224v-407h-45v684h61l339 -631q-6 99 -6 200v431h45v-684z" />
    <glyph glyph-name="Xi" unicode="&#x39e;" horiz-adv-x="492" 
d="M424 640h-372v44h378zM381 334h-271v45h271v-45zM440 0h-388v46h388v-46z" />
    <glyph glyph-name="Omicron" unicode="&#x39f;" horiz-adv-x="691" 
d="M345 694q126 0 201 -92t75 -261q0 -166 -74.5 -259t-201.5 -93q-125 0 -200 92t-75 259q0 166 75.5 260t199.5 94zM345 653q-104 0 -164.5 -79.5t-60.5 -233.5q0 -151 61 -230t164 -79q107 0 166.5 78.5t59.5 231.5q0 154 -60 233t-166 79z" />
    <glyph glyph-name="Pi" unicode="&#x3a0;" horiz-adv-x="662" 
d="M547 0h-48v641h-337v-641h-47v684h432v-684z" />
    <glyph glyph-name="Rho" unicode="&#x3a1;" horiz-adv-x="566" 
d="M268 684q249 0 249 -203q0 -109 -67.5 -159t-184.5 -50h-103v-272h-47v684h153zM266 312q96 0 148.5 38.5t52.5 129.5q0 88 -50 125.5t-149 37.5h-106v-331h104z" />
    <glyph glyph-name="Sigma" unicode="&#x3a3;" horiz-adv-x="490" 
d="M443 642h-334l219 -290v-25l-219 -285h334v-42h-396v32l234 307l-234 313v32h396v-42z" />
    <glyph glyph-name="Tau" unicode="&#x3a4;" horiz-adv-x="487" 
d="M471 641h-204v-641h-47v641h-205v43h462z" />
    <glyph glyph-name="Upsilon" unicode="&#x3a5;" horiz-adv-x="513" 
d="M281 269v-269h-47v268l-218 416h53l190 -374l186 374h52z" />
    <glyph glyph-name="Phi" unicode="&#x3a6;" horiz-adv-x="784" 
d="M742 343q0 -258 -327 -272v-71h-46v71q-161 4 -244 75.5t-83 195.5q0 257 327 271v71h46v-71q161 -4 244 -75.5t83 -194.5zM414 110q141 8 210 63.5t69 169.5q0 108 -71 167.5t-208 63.5v-464zM91 342q0 -109 71 -168.5t208 -63.5v464q-141 -8 -210 -63t-69 -169z" />
    <glyph glyph-name="Chi" unicode="&#x3a7;" horiz-adv-x="502" 
d="M493 0h-54l-190 338l-185 -338h-52l210 368l-189 316h54l163 -285l161 285h52l-185 -313z" />
    <glyph glyph-name="Psi" unicode="&#x3a8;" horiz-adv-x="662" 
d="M620 684v-257q0 -105 -67.5 -162t-197.5 -62v-203h-48v203q-130 6 -197.5 62t-67.5 161v258h48v-254q0 -177 218 -186v440h46v-440q218 11 218 186v254h48z" />
    <glyph glyph-name="Omega" unicode="&#x3a9;" horiz-adv-x="691" 
d="M345 694q126 0 201 -91t75 -259q0 -121 -37 -192.5t-111 -108.5h126v-43h-193v42q165 61 165 302q0 152 -60 230.5t-166 78.5q-104 0 -164.5 -79t-60.5 -231q0 -123 41 -194.5t123 -106.5v-42h-192v43h124q-75 40 -110.5 110.5t-35.5 189.5q0 164 75.5 257.5t199.5 93.5z
" />
    <glyph glyph-name="Iotadieresis" unicode="&#x3aa;" horiz-adv-x="277" 
d="M47 858q15 0 24.5 -9.5t9.5 -23.5t-9.5 -23.5t-24.5 -9.5t-24.5 9.5t-9.5 23.5t9.5 23.5t24.5 9.5zM229 858q14 0 23.5 -9.5t9.5 -23.5t-9.5 -23.5t-23.5 -9.5q-15 0 -24.5 9.5t-9.5 23.5t9.5 23.5t24.5 9.5zM163 0h-48v684h48v-684z" />
    <glyph glyph-name="Upsilondieresis" unicode="&#x3ab;" horiz-adv-x="513" 
d="M163 858q15 0 24.5 -9.5t9.5 -23.5t-9.5 -23.5t-24.5 -9.5t-24.5 9.5t-9.5 23.5t9.5 23.5t24.5 9.5zM345 858q14 0 23.5 -9.5t9.5 -23.5t-9.5 -23.5t-23.5 -9.5q-15 0 -24.5 9.5t-9.5 23.5t9.5 23.5t24.5 9.5zM281 269v-269h-47v268l-218 416h53l190 -374l186 374h52z
" />
    <glyph glyph-name="alphatonos" unicode="&#x3ac;" horiz-adv-x="590" 
d="M350 750l-52 -148l-33 5l33 154zM255 532q75 0 115.5 -44t60.5 -159l43 193h45l-60 -256l31 -183q7 -37 41 -50l-16 -39q-58 13 -68 73l-18 125q-43 -203 -181 -203q-86 0 -133 69t-47 204q0 121 50.5 195.5t136.5 74.5zM257 493q-62 0 -101.5 -61t-39.5 -170
q0 -233 136 -233q57 0 99 53t66 186q-26 130 -61.5 177.5t-98.5 47.5z" />
    <glyph glyph-name="epsilontonos" unicode="&#x3ad;" horiz-adv-x="457" 
d="M326 750l-52 -148l-33 5l33 154zM259 532q90 0 157 -46l-26 -30q-55 37 -128 37q-60 0 -93.5 -26.5t-33.5 -73.5q0 -44 35.5 -72.5t94.5 -28.5h59l-6 -38h-57q-75 0 -110 -25.5t-35 -87.5q0 -53 38 -82.5t103 -29.5q48 0 80.5 13t69.5 41l24 -31q-75 -63 -176 -63
q-84 0 -136 40t-52 111q0 124 131 136q-110 23 -110 121q0 63 47 99t124 36z" />
    <glyph glyph-name="etatonos" unicode="&#x3ae;" horiz-adv-x="586" 
d="M299 602l-33 5l33 154l52 -11zM338 532q71 0 107 -41.5t36 -118.5v-575l-46 8v561q0 128 -104 128q-95 0 -172 -113v-381h-46v355q0 89 -23 168l42 6q17 -45 23 -104q72 107 183 107z" />
    <glyph glyph-name="iotatonos" unicode="&#x3af;" horiz-adv-x="259" 
d="M197 750l-52 -148l-33 5l33 154zM151 118q0 -40 10.5 -58.5t36.5 -29.5l-14 -37q-44 13 -61.5 40.5t-17.5 81.5v407h46v-404z" />
    <glyph glyph-name="upsilondieresistonos" unicode="&#x3b0;" horiz-adv-x="561" 
d="M341 843l-47 -131l-33 5l29 136zM186 702q15 0 24.5 -9.5t9.5 -23.5t-9.5 -23.5t-24.5 -9.5t-24.5 9.5t-9.5 23.5t9.5 23.5t24.5 9.5zM373 702q15 0 24 -9.5t9 -23.5t-9 -23.5t-24 -9.5t-24.5 9.5t-9.5 23.5t9.5 23.5t24.5 9.5zM451 522q26 -158 26 -260q0 -135 -59 -204
t-148 -69q-73 0 -119 43.5t-46 125.5v364h46v-361q0 -67 33 -99.5t88 -32.5q66 0 112 55.5t46 179.5q0 106 -26 258h47z" />
    <glyph glyph-name="alpha" unicode="&#x3b1;" horiz-adv-x="590" 
d="M255 532q75 0 115.5 -44t60.5 -159l43 193h45l-60 -256l31 -183q7 -37 41 -50l-16 -39q-58 13 -68 73l-18 125q-43 -203 -181 -203q-86 0 -133 69t-47 204q0 121 50.5 195.5t136.5 74.5zM257 493q-62 0 -101.5 -61t-39.5 -170q0 -233 136 -233q57 0 99 53t66 186
q-26 130 -61.5 177.5t-98.5 47.5z" />
    <glyph glyph-name="beta" unicode="&#x3b2;" horiz-adv-x="584" 
d="M321 400q92 -2 151 -53t58 -148q0 -96 -60 -153t-145 -57q-98 0 -168 71v-255l-47 -8v744q0 94 52 147t136 53q75 0 129 -44.5t54 -126.5q0 -76 -42.5 -119t-117.5 -51zM322 29q69 0 115.5 46.5t45.5 124.5q-1 87 -57.5 133t-156.5 46h-46l6 38h44q38 0 72 11t62.5 46.5
t28.5 91.5q-1 70 -40 103t-98 33q-65 0 -103 -41t-38 -121v-436q37 -41 73.5 -58t91.5 -17z" />
    <glyph glyph-name="gamma" unicode="&#x3b3;" horiz-adv-x="455" 
d="M54 528q99 -130 174 -463l161 464l48 -11l-185 -500q-22 -60 -25 -106.5t12 -108.5l-37 -6q-22 57 -22.5 104t23.5 110q-101 385 -193 502z" />
    <glyph glyph-name="delta" unicode="&#x3b4;" horiz-adv-x="563" 
d="M305 491q101 -39 146.5 -96t45.5 -158q0 -116 -56 -182t-159 -66q-100 0 -157.5 65t-57.5 183q0 174 162 243q-57 25 -82.5 57t-25.5 78q0 53 44.5 89.5t117.5 36.5q87 0 159 -47l-25 -31q-62 39 -129 39q-56 0 -88 -25t-32 -64q0 -40 27.5 -65t109.5 -57zM282 29
q166 0 166 208q0 91 -39 139.5t-144 89.5q-150 -68 -150 -229q0 -100 44 -154t123 -54z" />
    <glyph glyph-name="epsilon" unicode="&#x3b5;" horiz-adv-x="457" 
d="M259 532q90 0 157 -46l-26 -30q-55 37 -128 37q-60 0 -93.5 -26.5t-33.5 -73.5q0 -44 35.5 -72.5t94.5 -28.5h59l-6 -38h-57q-75 0 -110 -25.5t-35 -87.5q0 -53 38 -82.5t103 -29.5q48 0 80.5 13t69.5 41l24 -31q-75 -63 -176 -63q-84 0 -136 40t-52 111q0 124 131 136
q-110 23 -110 121q0 63 47 99t124 36z" />
    <glyph glyph-name="zeta" unicode="&#x3b6;" horiz-adv-x="369" 
d="M392 692q-147 -124 -221.5 -227t-74.5 -211q0 -78 28.5 -114t108.5 -67q83 -32 115 -57.5t32 -71.5q0 -47 -31.5 -81.5t-99.5 -65.5l-20 33q50 22 76 47.5t26 63.5q0 32 -23.5 50t-103.5 49q-83 32 -120 77t-37 137q0 111 82 228t218 218q-31 -5 -129 -5h-175l6 40h336z
" />
    <glyph glyph-name="eta" unicode="&#x3b7;" horiz-adv-x="586" 
d="M338 532q71 0 107 -41.5t36 -118.5v-575l-46 8v561q0 128 -104 128q-95 0 -172 -113v-381h-46v355q0 89 -23 168l42 6q17 -45 23 -104q72 107 183 107z" />
    <glyph glyph-name="theta" unicode="&#x3b8;" horiz-adv-x="558" 
d="M281 741q107 0 159 -96.5t52 -274.5q0 -381 -215 -381q-210 0 -210 379q0 183 54 278t160 95zM281 701q-84 0 -124 -76t-43 -237h330q-2 160 -41.5 236.5t-121.5 76.5zM277 29q85 0 125 78t42 243h-330q3 -321 163 -321z" />
    <glyph glyph-name="iota" unicode="&#x3b9;" horiz-adv-x="259" 
d="M151 118q0 -40 10.5 -58.5t36.5 -29.5l-14 -37q-44 13 -61.5 40.5t-17.5 81.5v407h46v-404z" />
    <glyph glyph-name="kappa" unicode="&#x3ba;" horiz-adv-x="495" 
d="M454 512l-231 -238l192 -198q36 -37 66 -50l-14 -35q-26 6 -42 17.5t-37 34.5l-222 229l249 260zM133 529q26 -78 26 -183v-346h-46v355q0 89 -23 168z" />
    <glyph glyph-name="lambda" unicode="&#x3bb;" horiz-adv-x="463" 
d="M86 742q91 -20 131 -71t63 -164q24 -118 48 -202t51 -141t43.5 -84t48.5 -71l-45 -17q-42 61 -64 99.5t-56.5 140.5t-62.5 249l-164 -489l-44 11l179 519h20q-18 85 -50.5 126.5t-104.5 57.5z" />
    <glyph glyph-name="mu" unicode="&#x3bc;" horiz-adv-x="584" 
d="M452 -8q-21 52 -26 115q-67 -118 -165 -118q-88 0 -114 70q9 -59 9 -133v-121l-46 -5v722h46v-374q0 -61 30 -89t75 -28q98 0 159 124v367h46v-346q0 -98 28 -179z" />
    <glyph glyph-name="nu" unicode="&#x3bd;" horiz-adv-x="455" 
d="M54 528q88 -116 170 -489l167 489l46 -10l-186 -518h-56q-94 397 -185 513z" />
    <glyph glyph-name="xi" unicode="&#x3be;" horiz-adv-x="418" 
d="M269 741q86 0 156 -48l-24 -32q-61 41 -128 41q-65 0 -97 -33.5t-32 -85.5q0 -58 36.5 -89.5t100.5 -31.5h57l-6 -40h-58q-81 0 -124.5 -45.5t-43.5 -116.5q0 -73 33.5 -109t124.5 -70q84 -33 117 -61.5t33 -75.5t-32 -81.5t-100 -65.5l-19 33q49 22 75 47.5t26 63.5
q0 33 -24.5 54.5t-99.5 50.5q-49 20 -76.5 34t-55.5 38.5t-39.5 59t-11.5 83.5q0 82 46 129t112 54q-118 27 -118 141q0 69 46.5 112.5t125.5 43.5z" />
    <glyph glyph-name="omicron" unicode="&#x3bf;" horiz-adv-x="567" 
d="M284 532q102 0 159 -70.5t57 -198.5t-58 -201t-159 -73t-158.5 72.5t-57.5 198.5q0 127 58.5 199.5t158.5 72.5zM284 492q-79 0 -124 -59.5t-45 -172.5q0 -111 44 -171t124 -60q79 0 124 60t45 174q0 112 -44 170.5t-124 58.5z" />
    <glyph glyph-name="pi" unicode="&#x3c0;" horiz-adv-x="583" 
d="M451 481v-363q0 -40 11 -58.5t37 -27.5l-15 -39q-44 13 -61.5 40.5t-17.5 81.5v366h-226v-481h-46v481h-15q-46 0 -80 -10l-10 38q32 13 85 13h422v-41h-84z" />
    <glyph glyph-name="rho" unicode="&#x3c1;" horiz-adv-x="567" 
d="M298 532q97 0 147.5 -70.5t50.5 -197.5q0 -130 -52 -202.5t-143 -72.5q-100 0 -154 84v-268l-46 -8v493q0 112 50 177t147 65zM294 30q73 0 113 59t40 175q0 113 -38.5 171t-112.5 58q-75 0 -112 -54.5t-37 -155.5v-159q52 -94 147 -94z" />
    <glyph glyph-name="sigmafinal" unicode="&#x3c2;" horiz-adv-x="455" 
d="M285 532q82 0 143 -51l-24 -32q-51 43 -117 43q-77 0 -124.5 -58.5t-47.5 -165.5q0 -84 35 -126t121 -73q75 -28 105 -53t30 -72t-31.5 -81.5t-99.5 -65.5l-20 33q49 22 75.5 47.5t26.5 63.5q0 32 -21.5 49t-93.5 43q-89 33 -132 86t-43 149q0 121 59.5 192.5t158.5 71.5
z" />
    <glyph glyph-name="sigma" unicode="&#x3c3;" horiz-adv-x="573" 
d="M524 484l-132 8q49 -28 78.5 -87t29.5 -142q0 -128 -58 -201t-159 -73t-158.5 72.5t-57.5 198.5t62.5 197.5t188.5 71.5q92 0 206 -7v-38zM452 263q0 169 -110 231h-1q-121 1 -173.5 -57.5t-52.5 -176.5q0 -111 44 -171t124 -60q79 0 124 60t45 174z" />
    <glyph glyph-name="tau" unicode="&#x3c4;" horiz-adv-x="445" 
d="M241 481v-363q0 -40 10.5 -58.5t37.5 -27.5l-15 -39q-44 13 -61.5 40.5t-17.5 81.5v366h-101q-45 0 -79 -10l-10 38q32 13 84 13h345v-41h-193z" />
    <glyph glyph-name="upsilon" unicode="&#x3c5;" horiz-adv-x="561" 
d="M451 522q26 -158 26 -260q0 -135 -59 -204t-148 -69q-73 0 -119 43.5t-46 125.5v364h46v-361q0 -67 33 -99.5t88 -32.5q66 0 112 55.5t46 179.5q0 106 -26 258h47z" />
    <glyph glyph-name="phi" unicode="&#x3c6;" horiz-adv-x="715" 
d="M643 265q0 -139 -62 -204t-205 -72v-184l-45 -8v193q-129 7 -190 68t-61 186q0 127 57 278h46q-56 -150 -56 -276q0 -114 49.5 -162t154.5 -56v322q0 92 39 137t109 45q79 0 121.5 -62t42.5 -205zM376 27q120 6 170 59t50 179q0 124 -29 176.5t-88 52.5q-49 0 -76 -32.5
t-27 -117.5v-317z" />
    <glyph glyph-name="chi" unicode="&#x3c7;" horiz-adv-x="435" 
d="M422 -191l-45 -10l-160 346l-162 -345l-46 6l185 378q-61 137 -101 206.5t-87 122.5l45 17q44 -51 80 -116t87 -191l135 304l48 -5l-160 -339z" />
    <glyph glyph-name="psi" unicode="&#x3c8;" horiz-adv-x="741" 
d="M657 268q0 -142 -66.5 -207t-197.5 -72v-184l-45 -8v192q-253 6 -253 212l1 321h46l-1 -320q0 -87 50.5 -128.5t156.5 -44.5v493h45v-493q111 5 164 61t53 179q0 111 -26 253h47q26 -145 26 -254z" />
    <glyph glyph-name="omega" unicode="&#x3c9;" horiz-adv-x="772" 
d="M637 522q55 -136 55 -286q0 -132 -49 -189.5t-123 -57.5q-55 0 -91 31t-43 94q-20 -125 -137 -125q-78 0 -123.5 61t-45.5 188q0 138 57 284h47q-57 -146 -57 -283q0 -210 125 -210q111 0 111 150v173l46 7v-181q0 -149 107 -149q129 0 129 206q0 151 -55 287h47z" />
    <glyph glyph-name="iotadieresis" unicode="&#x3ca;" horiz-adv-x="259" 
d="M37 732q15 0 24.5 -9.5t9.5 -23.5t-9.5 -23.5t-24.5 -9.5t-24.5 9.5t-9.5 23.5t9.5 23.5t24.5 9.5zM219 732q14 0 23.5 -9.5t9.5 -23.5t-9.5 -23.5t-23.5 -9.5q-15 0 -24.5 9.5t-9.5 23.5t9.5 23.5t24.5 9.5zM151 118q0 -40 10.5 -58.5t36.5 -29.5l-14 -37
q-44 13 -61.5 40.5t-17.5 81.5v407h46v-404z" />
    <glyph glyph-name="upsilondieresis" unicode="&#x3cb;" horiz-adv-x="561" 
d="M188 732q15 0 24.5 -9.5t9.5 -23.5t-9.5 -23.5t-24.5 -9.5t-24.5 9.5t-9.5 23.5t9.5 23.5t24.5 9.5zM370 732q14 0 23.5 -9.5t9.5 -23.5t-9.5 -23.5t-23.5 -9.5q-15 0 -24.5 9.5t-9.5 23.5t9.5 23.5t24.5 9.5zM451 522q26 -158 26 -260q0 -135 -59 -204t-148 -69
q-73 0 -119 43.5t-46 125.5v364h46v-361q0 -67 33 -99.5t88 -32.5q66 0 112 55.5t46 179.5q0 106 -26 258h47z" />
    <glyph glyph-name="omicrontonos" unicode="&#x3cc;" horiz-adv-x="567" 
d="M353 750l-52 -148l-33 5l33 154zM284 532q102 0 159 -70.5t57 -198.5t-58 -201t-159 -73t-158.5 72.5t-57.5 198.5q0 127 58.5 199.5t158.5 72.5zM284 492q-79 0 -124 -59.5t-45 -172.5q0 -111 44 -171t124 -60q79 0 124 60t45 174q0 112 -44 170.5t-124 58.5z" />
    <glyph glyph-name="upsilontonos" unicode="&#x3cd;" horiz-adv-x="561" 
d="M348 750l-52 -148l-33 5l33 154zM451 522q26 -158 26 -260q0 -135 -59 -204t-148 -69q-73 0 -119 43.5t-46 125.5v364h46v-361q0 -67 33 -99.5t88 -32.5q66 0 112 55.5t46 179.5q0 106 -26 258h47z" />
    <glyph glyph-name="omegatonos" unicode="&#x3ce;" horiz-adv-x="772" 
d="M457 750l-52 -148l-33 5l33 154zM637 522q55 -136 55 -286q0 -132 -49 -189.5t-123 -57.5q-55 0 -91 31t-43 94q-20 -125 -137 -125q-78 0 -123.5 61t-45.5 188q0 138 57 284h47q-57 -146 -57 -283q0 -210 125 -210q111 0 111 150v173l46 7v-181q0 -149 107 -149
q129 0 129 206q0 151 -55 287h47z" />
    <glyph glyph-name="uni0400" unicode="&#x400;" horiz-adv-x="504" 
d="M384 788l-13 -29l-192 77l22 44zM448 643h-286v-266h247v-41h-247v-295h298v-41h-345v684h339z" />
    <glyph glyph-name="uni0401" unicode="&#x401;" horiz-adv-x="504" 
d="M197 858q15 0 24.5 -9.5t9.5 -23.5t-9.5 -23.5t-24.5 -9.5t-24.5 9.5t-9.5 23.5t9.5 23.5t24.5 9.5zM379 858q14 0 23.5 -9.5t9.5 -23.5t-9.5 -23.5t-23.5 -9.5q-15 0 -24.5 9.5t-9.5 23.5t9.5 23.5t24.5 9.5zM448 643h-286v-266h247v-41h-247v-295h298v-41h-345v684h339
z" />
    <glyph glyph-name="uni0402" unicode="&#x402;" horiz-adv-x="695" 
d="M455 431q93 0 141.5 -50.5t48.5 -139.5v-151q0 -84 -31 -125.5t-116 -77.5l-14 35q68 31 90.5 66t22.5 105v146q0 150 -148 150q-105 0 -182 -94v-295h-47v641h-205v43h462l-6 -43h-204v-294q78 84 188 84z" />
    <glyph glyph-name="uni0403" unicode="&#x403;" horiz-adv-x="508" 
d="M241 759l-13 29l183 92l22 -44zM491 640h-329v-640h-47v684h383z" />
    <glyph glyph-name="uni0404" unicode="&#x404;" horiz-adv-x="555" 
d="M523 58q-74 -69 -181 -69q-121 0 -196.5 93t-75.5 262q0 168 77.5 259t196.5 91q96 0 171 -61l-26 -32q-66 52 -142 52q-96 0 -158 -68.5t-68 -208.5h277v-41h-278q1 -148 63.5 -225.5t160.5 -77.5q49 0 82.5 14.5t69.5 43.5z" />
    <glyph glyph-name="uni0405" unicode="&#x405;" horiz-adv-x="537" 
d="M266 694q62 0 105.5 -18.5t85.5 -55.5l-29 -32q-71 65 -161 65q-67 0 -107.5 -33.5t-40.5 -88.5q0 -56 35 -86.5t128 -58.5q103 -31 149.5 -74.5t46.5 -126.5q0 -87 -60.5 -141.5t-159.5 -54.5q-124 0 -214 85l29 31q79 -74 184 -74q77 0 125 41t48 112q0 65 -36 99
t-131 63q-105 32 -148.5 73t-43.5 111q0 71 54 117.5t141 46.5z" />
    <glyph glyph-name="uni0406" unicode="&#x406;" horiz-adv-x="277" 
d="M163 0h-48v684h48v-684z" />
    <glyph glyph-name="uni0407" unicode="&#x407;" horiz-adv-x="277" 
d="M47 858q15 0 24.5 -9.5t9.5 -23.5t-9.5 -23.5t-24.5 -9.5t-24.5 9.5t-9.5 23.5t9.5 23.5t24.5 9.5zM229 858q14 0 23.5 -9.5t9.5 -23.5t-9.5 -23.5t-23.5 -9.5q-15 0 -24.5 9.5t-9.5 23.5t9.5 23.5t24.5 9.5zM163 0h-48v684h48v-684z" />
    <glyph glyph-name="uni0408" unicode="&#x408;" horiz-adv-x="286" 
d="M177 90q0 -84 -31 -125.5t-117 -77.5l-13 35q68 31 90.5 66t22.5 105v591h48v-594z" />
    <glyph glyph-name="uni0409" unicode="&#x409;" horiz-adv-x="886" 
d="M607 412q113 0 176.5 -49.5t63.5 -150.5q0 -108 -64.5 -160t-175.5 -52h-153v642h-235l-43 -348q-21 -174 -42 -226.5t-87 -75.5l-13 39q46 17 60 59.5t34 203.5l49 390h325v-272h105zM615 41q182 0 182 172q0 159 -187 159h-108v-331h113z" />
    <glyph glyph-name="uni040A" unicode="&#x40a;" horiz-adv-x="928" 
d="M661 392q106 0 167 -48t61 -142q0 -101 -63.5 -151.5t-167.5 -50.5h-162v352h-334v-352h-47v684h47v-292h334v292h48v-292h117zM666 41q80 0 126.5 39.5t46.5 122.5q0 75 -47 112t-129 37h-119v-311h122z" />
    <glyph glyph-name="uni040B" unicode="&#x40b;" horiz-adv-x="695" 
d="M455 431q93 0 141.5 -50.5t48.5 -139.5v-241h-48v239q0 150 -148 150q-105 0 -182 -94v-295h-47v641h-205v43h462l-6 -43h-204v-294q78 84 188 84z" />
    <glyph glyph-name="uni040C" unicode="&#x40c;" horiz-adv-x="551" 
d="M412 836l-192 -77l-13 29l183 92zM316 362l221 -362h-55l-206 340h-114v-340h-47v684h47v-303h115l193 303h51z" />
    <glyph glyph-name="uni040D" unicode="&#x40d;" horiz-adv-x="669" 
d="M431 788l-13 -29l-192 77l22 44zM554 0h-47v375q0 159 6 255l-339 -630h-59v684h47v-376q0 -137 -6 -255l340 631h58v-684z" />
    <glyph glyph-name="uni040E" unicode="&#x40e;" horiz-adv-x="511" 
d="M263 782q-50 0 -83 23t-40 62l32 7q19 -52 91 -52t91 52l32 -7q-7 -39 -40.5 -62t-82.5 -23zM302 191q-44 -107 -79 -144t-116 -58l-10 37q66 18 95 47.5t65 119.5h-15l-231 491h51l211 -459l183 459h49z" />
    <glyph glyph-name="uni040F" unicode="&#x40f;" horiz-adv-x="657" 
d="M542 0h-191v-143h-36l-12 143h-188v684h47v-642h332v642h48v-684z" />
    <glyph glyph-name="uni0410" unicode="&#x410;" horiz-adv-x="562" 
d="M428 192h-297l-63 -192h-48l231 684h60l231 -684h-51zM415 234l-134 411l-136 -411h270z" />
    <glyph glyph-name="uni0411" unicode="&#x411;" horiz-adv-x="566" 
d="M279 414q113 0 175.5 -51t62.5 -150q0 -108 -64.5 -160.5t-174.5 -52.5h-163v684h336l-7 -42h-282v-228h117zM286 41q181 0 181 173q0 159 -186 159h-119v-332h124z" />
    <glyph glyph-name="uni0412" unicode="&#x412;" horiz-adv-x="594" 
d="M380 363q69 -7 113.5 -49.5t44.5 -125.5q0 -92 -62.5 -140t-175.5 -48h-185v684h149q116 0 178.5 -43t62.5 -127q0 -65 -33.5 -103t-91.5 -48zM162 643v-263h150q65 0 104.5 35t39.5 96q0 132 -187 132h-107zM301 41q187 0 187 147q0 76 -46.5 114t-123.5 38h-156v-299
h139z" />
    <glyph glyph-name="uni0413" unicode="&#x413;" horiz-adv-x="508" 
d="M491 640h-329v-640h-47v684h383z" />
    <glyph glyph-name="uni0414" unicode="&#x414;" horiz-adv-x="597" 
d="M531 42v-185h-35l-12 143h-443l-12 -143h-35v185h43q36 36 57.5 107.5t45.5 260.5l34 274h308v-642h49zM435 642h-218l-29 -232q-23 -184 -45.5 -258t-61.5 -110h354v600z" />
    <glyph glyph-name="uni0415" unicode="&#x415;" horiz-adv-x="504" 
d="M448 643h-286v-266h247v-41h-247v-295h298v-41h-345v684h339z" />
    <glyph glyph-name="uni0416" unicode="&#x416;" horiz-adv-x="756" 
d="M538 362l206 -362h-54l-191 340h-98v-340h-46v340h-98l-192 -340h-53l206 362l-190 322h53l177 -303h97v303h46v-303h98l179 303h50z" />
    <glyph glyph-name="uni0417" unicode="&#x417;" horiz-adv-x="520" 
d="M249 694q91 0 142 -46.5t51 -122.5q0 -64 -35.5 -103t-95.5 -52q67 -7 109.5 -51t42.5 -122q0 -95 -63 -151.5t-164 -56.5q-124 0 -211 93l30 28q76 -78 180 -78q81 0 129.5 43.5t48.5 120.5q0 73 -46 112.5t-131 38.5h-61l6 41h52q73 0 116.5 35.5t43.5 100.5
q0 58 -39 93.5t-108 35.5q-91 0 -174 -72l-27 30q92 83 204 83z" />
    <glyph glyph-name="uni0418" unicode="&#x418;" horiz-adv-x="669" 
d="M554 0h-47v375q0 159 6 255l-339 -630h-59v684h47v-376q0 -137 -6 -255l340 631h58v-684z" />
    <glyph glyph-name="uni0419" unicode="&#x419;" horiz-adv-x="669" 
d="M335 782q-50 0 -83 23t-40 62l32 7q19 -52 91 -52t91 52l32 -7q-7 -39 -40.5 -62t-82.5 -23zM554 0h-47v375q0 159 6 255l-339 -630h-59v684h47v-376q0 -137 -6 -255l340 631h58v-684z" />
    <glyph glyph-name="uni041A" unicode="&#x41a;" horiz-adv-x="551" 
d="M316 362l221 -362h-55l-206 340h-114v-340h-47v684h47v-303h115l193 303h51z" />
    <glyph glyph-name="uni041B" unicode="&#x41b;" horiz-adv-x="643" 
d="M528 684v-684h-48v642h-261l-43 -348q-21 -174 -42 -226.5t-87 -75.5l-13 39q46 17 60 59.5t34 203.5l49 390h351z" />
    <glyph glyph-name="uni041C" unicode="&#x41c;" horiz-adv-x="772" 
d="M696 0h-46l-34 334q-19 178 -29 305l-180 -557h-46l-186 557q-2 -48 -26 -300l-32 -339h-45l67 684h67l179 -546l174 546h68z" />
    <glyph glyph-name="uni041D" unicode="&#x41d;" horiz-adv-x="667" 
d="M504 339h-342v-339h-47v684h47v-303h342v303h48v-684h-48v339z" />
    <glyph glyph-name="uni041E" unicode="&#x41e;" horiz-adv-x="691" 
d="M345 694q126 0 201 -92t75 -261q0 -166 -74.5 -259t-201.5 -93q-125 0 -200 92t-75 259q0 166 75.5 260t199.5 94zM345 653q-104 0 -164.5 -79.5t-60.5 -233.5q0 -151 61 -230t164 -79q107 0 166.5 78.5t59.5 231.5q0 154 -60 233t-166 79z" />
    <glyph glyph-name="uni041F" unicode="&#x41f;" horiz-adv-x="662" 
d="M547 0h-48v641h-337v-641h-47v684h432v-684z" />
    <glyph glyph-name="uni0420" unicode="&#x420;" horiz-adv-x="566" 
d="M268 684q249 0 249 -203q0 -109 -67.5 -159t-184.5 -50h-103v-272h-47v684h153zM266 312q96 0 148.5 38.5t52.5 129.5q0 88 -50 125.5t-149 37.5h-106v-331h104z" />
    <glyph glyph-name="uni0421" unicode="&#x421;" horiz-adv-x="547" 
d="M344 694q96 0 171 -61l-26 -32q-66 52 -142 52q-101 0 -164 -76.5t-63 -234.5q0 -152 62.5 -231t161.5 -79q49 0 82.5 14.5t69.5 43.5l27 -32q-74 -69 -181 -69q-121 0 -196.5 92.5t-75.5 260.5q0 169 77.5 260.5t196.5 91.5z" />
    <glyph glyph-name="uni0422" unicode="&#x422;" horiz-adv-x="487" 
d="M471 641h-204v-641h-47v641h-205v43h462z" />
    <glyph glyph-name="uni0423" unicode="&#x423;" horiz-adv-x="511" 
d="M302 191q-44 -107 -79 -144t-116 -58l-10 37q66 18 95 47.5t65 119.5h-15l-231 491h51l211 -459l183 459h49z" />
    <glyph glyph-name="uni0424" unicode="&#x424;" horiz-adv-x="794" 
d="M747 349q0 -289 -327 -303v-69h-46v69q-163 5 -245 81.5t-82 219.5q0 289 327 303v67h46v-67q162 -4 244.5 -81t82.5 -220zM419 85q141 9 210 70.5t69 193.5q0 254 -279 262v-526zM96 347q0 -253 279 -261v525q-142 -9 -210.5 -70t-68.5 -194z" />
    <glyph glyph-name="uni0425" unicode="&#x425;" horiz-adv-x="502" 
d="M493 0h-54l-190 338l-185 -338h-52l210 368l-189 316h54l163 -285l161 285h52l-185 -313z" />
    <glyph glyph-name="uni0426" unicode="&#x426;" horiz-adv-x="684" 
d="M610 42v-185h-36l-12 143h-447v684h47v-642h332v642h48v-642h68z" />
    <glyph glyph-name="uni0427" unicode="&#x427;" horiz-adv-x="588" 
d="M473 684v-684h-48v301q-83 -76 -185 -76q-87 0 -140 51.5t-53 140.5v267h48v-263q0 -74 40.5 -113.5t113.5 -39.5q110 0 176 80v336h48z" />
    <glyph glyph-name="uni0428" unicode="&#x428;" horiz-adv-x="906" 
d="M792 0h-677v684h47v-642h269v642h45v-642h269v642h47v-684z" />
    <glyph glyph-name="uni0429" unicode="&#x429;" horiz-adv-x="906" 
d="M859 42v-185h-36l-12 143h-696v684h47v-642h269v642h45v-642h269v642h47v-642h67z" />
    <glyph glyph-name="uni042A" unicode="&#x42a;" horiz-adv-x="605" 
d="M327 418q114 0 176 -50.5t62 -151.5q0 -110 -64 -163t-175 -53h-163v641h-163v43h210v-266h117zM334 41q181 0 181 175q0 162 -186 162h-119v-337h124z" />
    <glyph glyph-name="uni042B" unicode="&#x42b;" horiz-adv-x="789" 
d="M268 418q114 0 176.5 -50.5t62.5 -151.5q0 -110 -64 -163t-175 -53h-153v684h47v-266h106zM674 684v-684h-47v684h47zM276 41q181 0 181 175q0 162 -187 162h-108v-337h114z" />
    <glyph glyph-name="uni042C" unicode="&#x42c;" horiz-adv-x="557" 
d="M279 418q114 0 176 -50.5t62 -151.5q0 -110 -64 -163t-175 -53h-163v684h47v-266h117zM286 41q181 0 181 175q0 162 -186 162h-119v-337h124z" />
    <glyph glyph-name="uni042D" unicode="&#x42d;" horiz-adv-x="532" 
d="M224 694q109 0 173.5 -86.5t64.5 -265.5q0 -171 -62.5 -262t-181.5 -91q-102 0 -185 72l26 32q40 -31 74.5 -46t83.5 -15q95 0 145 76.5t51 226.5h-285v41h284q-6 141 -56.5 209t-133.5 68q-47 0 -83.5 -13t-80.5 -44l-26 32q84 66 192 66z" />
    <glyph glyph-name="uni042E" unicode="&#x42e;" horiz-adv-x="871" 
d="M536 694q123 0 194 -91.5t71 -261.5q0 -167 -70.5 -259.5t-194.5 -92.5q-121 0 -192 89.5t-74 256.5h-108v-335h-47v684h47v-307h109q8 149 79.5 233t185.5 84zM536 31q103 0 159 78t56 232q0 155 -56.5 233.5t-158.5 78.5q-100 0 -158 -79.5t-58 -230.5q0 -154 58 -233
t158 -79z" />
    <glyph glyph-name="uni042F" unicode="&#x42f;" horiz-adv-x="588" 
d="M473 684v-684h-48v290h-179l-148 -290h-56l156 297q-143 43 -143 185q0 98 63.5 150t192.5 52h162zM425 330v313h-113q-107 0 -156.5 -39.5t-49.5 -121.5q0 -74 44 -113t120 -39h155z" />
    <glyph glyph-name="uni0430" unicode="&#x430;" horiz-adv-x="534" 
d="M425 113q0 -44 10.5 -63t33.5 -28l-11 -33q-34 9 -51.5 30t-21.5 62q-57 -92 -165 -92q-74 0 -117 42.5t-43 113.5q0 80 57 124t155 44h107v54q0 65 -29 95t-96 30q-63 0 -142 -31l-13 37q87 34 159 34q167 0 167 -162v-257zM226 28q101 0 153 99v149h-100
q-82 0 -126 -32.5t-44 -97.5q0 -56 31 -87t86 -31z" />
    <glyph glyph-name="uni0431" unicode="&#x431;" 
d="M303 491q90 0 140.5 -63.5t50.5 -175.5q0 -130 -56 -196.5t-155 -66.5q-100 0 -158 74.5t-58 222.5q0 171 37.5 255t149.5 124q106 39 161 74l21 -34q-50 -35 -161 -75q-53 -20 -83 -44t-51 -75.5t-28 -138.5q29 51 77 85t113 34zM284 29q161 0 161 219q0 203 -147 203
q-61 0 -108 -35.5t-74 -95.5l-1 -45q-1 -119 42.5 -182.5t126.5 -63.5z" />
    <glyph glyph-name="uni0432" unicode="&#x432;" horiz-adv-x="545" 
d="M350 283q128 -13 128 -129q0 -78 -57 -116t-152 -38h-159v516q84 16 156 16q88 0 135.5 -36.5t47.5 -98.5q0 -89 -99 -114zM267 493q-60 0 -111 -9v-186h132q54 0 84 24.5t30 71.5q0 99 -135 99zM266 39q164 0 164 114q0 108 -136 108h-138v-222h110z" />
    <glyph glyph-name="uni0433" unicode="&#x433;" horiz-adv-x="421" 
d="M110 0v522h302l-6 -41h-250v-481h-46z" />
    <glyph glyph-name="uni0434" unicode="&#x434;" horiz-adv-x="549" 
d="M487 40v-183h-36l-12 143h-384l-12 -143h-36v183h32q28 20 42 39.5t27.5 77t20.5 161.5l14 204h296v-482h48zM392 482h-205l-11 -158q-10 -146 -30 -202t-61 -82h307v442z" />
    <glyph glyph-name="uni0435" unicode="&#x435;" horiz-adv-x="534" 
d="M471 282q0 -21 -2 -41h-354q5 -107 51 -159t120 -52t142 53l23 -30q-77 -64 -167 -64q-101 0 -159 71t-58 197t55.5 200.5t149.5 74.5q97 0 148 -67t51 -183zM426 278v19q0 91 -38 143.5t-114 52.5q-68 0 -111.5 -53.5t-47.5 -161.5h311z" />
    <glyph glyph-name="uni0436" unicode="&#x436;" horiz-adv-x="685" 
d="M496 279l158 -279h-50l-145 258h-95v-258h-43v258h-96l-145 -258h-49l158 279l-134 243h48l123 -227h95v227h43v-227h95l125 227h46z" />
    <glyph glyph-name="uni0437" unicode="&#x437;" horiz-adv-x="476" 
d="M219 532q72 0 118 -36t46 -98q0 -98 -110 -120q137 -13 137 -128q0 -78 -53 -119.5t-139 -41.5q-112 0 -192 69l26 29q71 -58 164 -58q145 0 145 121q0 105 -159 105h-59l3 38h49q67 0 103.5 26.5t36.5 75.5q0 46 -31.5 72t-87.5 26q-46 0 -78.5 -10.5t-71.5 -34.5
l-23 30q79 54 176 54z" />
    <glyph glyph-name="uni0438" unicode="&#x438;" horiz-adv-x="590" 
d="M480 0h-46v354q0 46 5 114l-275 -468h-54v522h46v-332q0 -55 -4 -135l273 467h55v-522z" />
    <glyph glyph-name="uni0439" unicode="&#x439;" horiz-adv-x="590" 
d="M295 656q-50 0 -83 23t-40 62l32 7q19 -52 91 -52t91 52l32 -7q-7 -39 -40.5 -62t-82.5 -23zM480 0h-46v354q0 46 5 114l-275 -468h-54v522h46v-332q0 -55 -4 -135l273 467h55v-522z" />
    <glyph glyph-name="uni043A" unicode="&#x43a;" horiz-adv-x="492" 
d="M277 280l193 -280h-54l-178 259h-82v-259h-46v522h46v-226h83l153 226h51z" />
    <glyph glyph-name="uni043B" unicode="&#x43b;" horiz-adv-x="566" 
d="M456 522v-522h-46v484h-217l-15 -202q-13 -167 -32 -217.5t-85 -72.5l-13 38q46 16 58.5 58t25.5 198l19 236h305z" />
    <glyph glyph-name="uni043C" unicode="&#x43c;" horiz-adv-x="655" 
d="M584 0h-46l-27 325q-5 58 -9 148l-155 -406h-44l-153 406q-2 -79 -8 -148l-26 -325h-45l46 522h58l150 -408l154 408h59z" />
    <glyph glyph-name="uni043D" unicode="&#x43d;" horiz-adv-x="586" 
d="M430 251h-274v-251h-46v522h46v-231h274v231h46v-522h-46v251z" />
    <glyph glyph-name="uni043E" unicode="&#x43e;" horiz-adv-x="567" 
d="M284 532q102 0 159 -70.5t57 -198.5t-58 -201t-159 -73t-158.5 72.5t-57.5 198.5q0 127 58.5 199.5t158.5 72.5zM284 492q-79 0 -124 -59.5t-45 -172.5q0 -111 44 -171t124 -60q79 0 124 60t45 174q0 112 -44 170.5t-124 58.5z" />
    <glyph glyph-name="uni043F" unicode="&#x43f;" horiz-adv-x="583" 
d="M427 482h-271v-482h-46v522h363v-522h-46v482z" />
    <glyph glyph-name="uni0440" unicode="&#x440;" horiz-adv-x="576" 
d="M316 532q93 0 141 -69.5t48 -198.5q0 -128 -51 -201.5t-145 -73.5q-95 0 -153 76v-260l-46 -8v725h40l3 -79q64 89 163 89zM302 30q75 0 114.5 59.5t39.5 174.5q0 229 -146 229q-86 0 -154 -92v-287q56 -84 146 -84z" />
    <glyph glyph-name="uni0441" unicode="&#x441;" horiz-adv-x="466" 
d="M285 532q82 0 143 -51l-24 -32q-51 43 -117 43q-78 0 -124.5 -60t-46.5 -174q0 -112 46 -170t124 -58q67 0 122 47l24 -32q-62 -56 -146 -56q-100 0 -159.5 71.5t-59.5 197.5t59.5 200t158.5 74z" />
    <glyph glyph-name="uni0442" unicode="&#x442;" horiz-adv-x="427" 
d="M413 481h-176v-481h-46v481h-182v41h410z" />
    <glyph glyph-name="uni0443" unicode="&#x443;" horiz-adv-x="459" 
d="M261 -2q-31 -91 -73 -135t-129 -64l-6 36q74 20 104.5 53.5t59.5 111.5h-17l-183 522h50l165 -488l160 488h50z" />
    <glyph glyph-name="uni0444" unicode="&#x444;" horiz-adv-x="792" 
d="M556 532q88 0 126 -69.5t38 -198.5q0 -127 -42.5 -201t-123.5 -74q-77 0 -135 74v-258l-45 -8v267q-54 -75 -136 -75q-80 0 -123 74.5t-43 200.5q0 127 42.5 197.5t126.5 70.5q82 0 133 -76v285l45 -6v-279q54 76 137 76zM246 29q75 0 128 84v292q-53 88 -127 88
q-60 0 -93.5 -58.5t-33.5 -170.5q0 -114 32.5 -174.5t93.5 -60.5zM549 29q122 0 122 235q0 229 -119 229q-80 0 -133 -86v-296q60 -82 130 -82z" />
    <glyph glyph-name="uni0445" unicode="&#x445;" horiz-adv-x="449" 
d="M437 0h-55l-159 250l-158 -250h-53l184 278l-160 244h54l135 -215l135 215h53l-161 -242z" />
    <glyph glyph-name="uni0446" unicode="&#x446;" horiz-adv-x="594" 
d="M532 40v-183h-36l-12 143h-374v522h46v-482h265v482h46v-482h65z" />
    <glyph glyph-name="uni0447" unicode="&#x447;" horiz-adv-x="536" 
d="M427 522v-522h-46v249q-66 -71 -168 -71q-67 0 -109 36t-42 105v203h46v-197q0 -108 115 -108q47 0 89.5 21.5t68.5 55.5v228h46z" />
    <glyph glyph-name="uni0448" unicode="&#x448;" horiz-adv-x="796" 
d="M686 0h-576v522h45v-482h221v482h44v-482h221v482h45v-522z" />
    <glyph glyph-name="uni0449" unicode="&#x449;" horiz-adv-x="796" 
d="M752 40v-183h-36l-12 143h-594v522h45v-482h221v482h44v-482h221v482h45v-482h66z" />
    <glyph glyph-name="uni044A" unicode="&#x44a;" horiz-adv-x="542" 
d="M301 343q203 0 203 -167q0 -88 -53.5 -132t-140.5 -44h-155v483h-151v39h197v-179h100zM306 39q149 0 149 137q0 64 -35.5 96t-117.5 32h-101v-265h105z" />
    <glyph glyph-name="uni044B" unicode="&#x44b;" horiz-adv-x="707" 
d="M246 343q203 0 203 -167q0 -88 -53.5 -132t-140.5 -44h-145v522h46v-179h90zM597 522v-522h-46v522h46zM251 39q149 0 149 137q0 64 -35.5 96t-117.5 32h-91v-265h95z" />
    <glyph glyph-name="uni044C" unicode="&#x44c;" horiz-adv-x="497" 
d="M256 343q203 0 203 -167q0 -88 -53.5 -132t-140.5 -44h-155v522h46v-179h100zM261 39q149 0 149 137q0 64 -35.5 96t-117.5 32h-101v-265h105z" />
    <glyph glyph-name="uni044D" unicode="&#x44d;" horiz-adv-x="472" 
d="M204 532q96 0 148.5 -68t52.5 -200q0 -130 -52 -202.5t-149 -72.5q-89 0 -163 58l24 31q62 -48 135 -48q153 0 158 221h-241v38h240q-9 204 -154 204q-69 0 -135 -45l-23 30q71 54 159 54z" />
    <glyph glyph-name="uni044E" unicode="&#x44e;" horiz-adv-x="756" 
d="M483 532q96 0 151 -71.5t55 -197.5q0 -125 -55.5 -199.5t-151.5 -74.5q-94 0 -148.5 70.5t-56.5 191.5h-121v-251h-46v522h46v-232h122q7 112 61.5 177t143.5 65zM482 29q77 0 118 60.5t41 173.5q0 110 -41.5 169.5t-116.5 59.5t-116.5 -59t-41.5 -173q0 -110 41 -170.5
t116 -60.5z" />
    <glyph glyph-name="uni044F" unicode="&#x44f;" horiz-adv-x="538" 
d="M428 522v-522h-46v221h-149l-125 -221h-51l131 230q-110 30 -110 140q0 74 49 113t139 39h162zM382 259v224h-117q-139 2 -139 -112q0 -112 129 -112h127z" />
    <glyph glyph-name="uni0450" unicode="&#x450;" horiz-adv-x="534" 
d="M369 648l-190 84l21 44l184 -100zM471 282q0 -21 -2 -41h-354q5 -107 51 -159t120 -52t142 53l23 -30q-77 -64 -167 -64q-101 0 -159 71t-58 197t55.5 200.5t149.5 74.5q97 0 148 -67t51 -183zM426 278v19q0 91 -38 143.5t-114 52.5q-68 0 -111.5 -53.5t-47.5 -161.5h311
z" />
    <glyph glyph-name="uni0451" unicode="&#x451;" horiz-adv-x="534" 
d="M184 666q-15 0 -24.5 9.5t-9.5 23.5t9.5 23.5t24.5 9.5t24.5 -9.5t9.5 -23.5t-9.5 -23.5t-24.5 -9.5zM366 666q-15 0 -24.5 9.5t-9.5 23.5t9.5 23.5t24.5 9.5q14 0 23.5 -9.5t9.5 -23.5t-9.5 -23.5t-23.5 -9.5zM471 282q0 -21 -2 -41h-354q5 -107 51 -159t120 -52t142 53
l23 -30q-77 -64 -167 -64q-101 0 -159 71t-58 197t55.5 200.5t149.5 74.5q97 0 148 -67t51 -183zM426 278v19q0 91 -38 143.5t-114 52.5q-68 0 -111.5 -53.5t-47.5 -161.5h311z" />
    <glyph glyph-name="uni0452" unicode="&#x452;" horiz-adv-x="590" 
d="M340 532q70 0 106.5 -42t36.5 -118v-358q0 -66 -15.5 -107t-40.5 -62.5t-74 -44.5l-14 33q56 28 77 63t21 117v353q0 128 -104 128q-95 0 -172 -113v-381h-46v620h-75v38h75v77l46 6v-83h174v-38h-174v-190q75 102 179 102z" />
    <glyph glyph-name="uni0453" unicode="&#x453;" horiz-adv-x="421" 
d="M354 732l-190 -84l-15 28l184 100zM110 0v522h302l-6 -41h-250v-481h-46z" />
    <glyph glyph-name="uni0454" unicode="&#x454;" horiz-adv-x="475" 
d="M434 42q-68 -53 -149 -53q-100 0 -159 72t-59 200q0 125 60.5 198t159.5 73q79 0 146 -51l-25 -32q-57 44 -120 44q-73 0 -120 -53t-53 -152h251v-38h-252q2 -108 49 -164t122 -56q65 0 126 45z" />
    <glyph glyph-name="uni0455" unicode="&#x455;" horiz-adv-x="463" 
d="M233 532q89 0 162 -57l-23 -32q-66 50 -138 50q-55 0 -89 -25.5t-34 -69.5q0 -40 29 -62t103 -42q90 -24 128 -57.5t38 -98.5q0 -68 -51.5 -108.5t-130.5 -40.5q-104 0 -183 67l26 30q71 -57 156 -57q60 0 97.5 28.5t37.5 78.5q0 51 -28.5 75t-112.5 47q-84 22 -120 54.5
t-36 86.5q0 58 48 95.5t121 37.5z" />
    <glyph glyph-name="uni0456" unicode="&#x456;" horiz-adv-x="266" 
d="M133 744q16 0 26 -10t10 -25t-10 -25t-26 -10t-26 10t-10 25t10 25t26 10zM156 0h-46v522h46v-522z" />
    <glyph glyph-name="uni0457" unicode="&#x457;" horiz-adv-x="266" 
d="M42 732q15 0 24.5 -9.5t9.5 -23.5t-9.5 -23.5t-24.5 -9.5t-24.5 9.5t-9.5 23.5t9.5 23.5t24.5 9.5zM224 732q14 0 23.5 -9.5t9.5 -23.5t-9.5 -23.5t-23.5 -9.5q-15 0 -24.5 9.5t-9.5 23.5t9.5 23.5t24.5 9.5zM156 0h-46v522h46v-522z" />
    <glyph glyph-name="uni0458" unicode="&#x458;" horiz-adv-x="266" 
d="M133 744q16 0 26 -10t10 -25t-10 -25t-26 -10t-26 10t-10 25t10 25t26 10zM156 14q0 -96 -29 -138t-102 -76l-13 33q56 28 77 63t21 117v509h46v-508z" />
    <glyph glyph-name="uni0459" unicode="&#x459;" horiz-adv-x="774" 
d="M533 343q202 0 202 -167q0 -88 -53.5 -132t-140.5 -44h-145v484h-203l-15 -202q-13 -167 -32 -217.5t-85 -72.5l-13 38q46 16 58.5 58t25.5 198l19 236h291v-179h91zM537 39q150 0 150 137q0 63 -36 95.5t-118 32.5h-91v-265h95z" />
    <glyph glyph-name="uni045A" unicode="&#x45a;" horiz-adv-x="800" 
d="M559 323q104 0 153 -41.5t49 -114.5q0 -82 -53 -124.5t-140 -42.5h-146v284h-266v-284h-46v522h46v-199h266v199h46v-199h91zM564 39q149 0 149 128q0 117 -153 117h-92v-245h96z" />
    <glyph glyph-name="uni045B" unicode="&#x45b;" horiz-adv-x="588" 
d="M340 532q70 0 106.5 -42t36.5 -118v-372h-46v366q0 128 -104 128q-95 0 -172 -113v-381h-46v620h-75v38h75v77l46 6v-83h175l-7 -38h-168v-190q75 102 179 102z" />
    <glyph glyph-name="uni045C" unicode="&#x45c;" horiz-adv-x="492" 
d="M370 732l-190 -84l-15 28l184 100zM277 280l193 -280h-54l-178 259h-82v-259h-46v522h46v-226h83l153 226h51z" />
    <glyph glyph-name="uni045D" unicode="&#x45d;" horiz-adv-x="590" 
d="M403 676l-15 -28l-190 84l21 44zM480 0h-46v354q0 46 5 114l-275 -468h-54v522h46v-332q0 -55 -4 -135l273 467h55v-522z" />
    <glyph glyph-name="uni045E" unicode="&#x45e;" horiz-adv-x="459" 
d="M224 656q-50 0 -83 23t-40 62l32 7q19 -52 91 -52t91 52l32 -7q-7 -39 -40.5 -62t-82.5 -23zM261 -2q-31 -91 -73 -135t-129 -64l-6 36q74 20 104.5 53.5t59.5 111.5h-17l-183 522h50l165 -488l160 488h50z" />
    <glyph glyph-name="uni045F" unicode="&#x45f;" horiz-adv-x="577" 
d="M467 0h-155v-143h-36l-12 143h-154v522h46v-482h265v482h46v-522z" />
    <glyph glyph-name="uni0462" unicode="&#x462;" horiz-adv-x="671" 
d="M384 414q113 0 175.5 -51t62.5 -150q0 -108 -64.5 -160.5t-174.5 -52.5h-163v641h-205v43h463l-7 -43h-204v-227h117zM391 41q181 0 181 173q0 159 -186 159h-119v-332h124z" />
    <glyph glyph-name="uni0463" unicode="&#x463;" horiz-adv-x="505" 
d="M255 345q211 0 211 -167q0 -178 -208 -178h-141v476h-77v38h77v119l46 5v-124h142l-7 -38h-135v-131h92zM262 39q77 0 116.5 32t39.5 107q0 128 -159 128h-96v-267h99z" />
    <glyph glyph-name="uni0472" unicode="&#x472;" horiz-adv-x="691" 
d="M345 694q126 0 201 -92t75 -262q0 -166 -74.5 -258.5t-201.5 -92.5q-125 0 -200 92t-75 258q0 167 75.5 261t199.5 94zM345 653q-99 0 -159 -72t-66 -212h451q-6 141 -65.5 212.5t-160.5 71.5zM345 31q106 0 165.5 76t61.5 223h-453q2 -146 63.5 -222.5t162.5 -76.5z" />
    <glyph glyph-name="uni0473" unicode="&#x473;" horiz-adv-x="567" 
d="M284 532q102 0 159 -70.5t57 -198.5t-58 -201t-159 -73t-158.5 72.5t-57.5 198.5q0 127 58.5 199.5t158.5 72.5zM284 492q-75 0 -119.5 -53t-48.5 -155h336q-4 102 -48 155t-120 53zM283 29q77 0 121 55.5t48 161.5h-337q3 -105 47 -161t121 -56z" />
    <glyph glyph-name="uni0474" unicode="&#x474;" horiz-adv-x="541" 
d="M540 683q-35 -51 -58 -124l-183 -559h-55l-224 684h51l201 -636l168 530q22 70 52 113z" />
    <glyph glyph-name="uni0475" unicode="&#x475;" horiz-adv-x="462" 
d="M457 520q-25 -33 -56 -121l-141 -399h-54l-189 522h51l167 -483l125 377q27 83 49 111z" />
    <glyph glyph-name="uni0490" unicode="&#x490;" horiz-adv-x="508" 
d="M498 797v-113l-7 -44h-329v-640h-47v684h337v113h46z" />
    <glyph glyph-name="uni0491" unicode="&#x491;" horiz-adv-x="420" 
d="M412 638v-116l-6 -41h-250v-481h-46v522h257v116h45z" />
    <glyph glyph-name="uni0492" unicode="&#x492;" horiz-adv-x="512" 
d="M167 640v-243h169v-38h-169v-359h-48v359h-98v38h98v287h383l-7 -44h-328z" />
    <glyph glyph-name="uni0493" unicode="&#x493;" horiz-adv-x="425" 
d="M160 481v-182h129v-38h-129v-261h-46v261h-70v38h70v223h303l-6 -41h-251z" />
    <glyph glyph-name="uni0496" unicode="&#x496;" horiz-adv-x="756" 
d="M772 42v-185h-36l-12 143h-34l-191 340h-98v-340h-46v340h-98l-192 -340h-53l206 362l-190 322h53l177 -303h97v303h46v-303h98l179 303h50l-190 -322l182 -320h52z" />
    <glyph glyph-name="uni0497" unicode="&#x497;" horiz-adv-x="685" 
d="M691 40v-183h-36l-12 143h-39l-145 258h-95v-258h-43v258h-96l-145 -258h-49l158 279l-134 243h48l123 -227h95v227h43v-227h95l125 227h46l-134 -243l135 -239h60z" />
    <glyph glyph-name="uni0498" unicode="&#x498;" horiz-adv-x="520" 
d="M463 197q0 -88 -53.5 -143t-142.5 -63q69 -46 69 -116q0 -45 -28 -72.5t-79 -27.5q-46 0 -79 20l15 33q30 -16 64 -16q29 0 46.5 16.5t17.5 46.5q0 66 -73 114q-114 6 -195 93l30 28q76 -78 180 -78q81 0 129.5 43.5t48.5 120.5q0 73 -46 112.5t-131 38.5h-61l6 41h52
q73 0 116.5 35.5t43.5 100.5q0 58 -39 93.5t-108 35.5q-91 0 -174 -72l-27 30q92 83 204 83q91 0 142 -46.5t51 -122.5q0 -64 -35.5 -103t-95.5 -52q67 -7 109.5 -51t42.5 -122z" />
    <glyph glyph-name="uni0499" unicode="&#x499;" horiz-adv-x="476" 
d="M410 150q0 -72 -45.5 -113t-121.5 -47q68 -45 68 -115q0 -45 -28 -72.5t-79 -27.5q-46 0 -79 20l15 33q30 -16 64 -16q29 0 46.5 16.5t17.5 46.5q0 65 -74 115q-96 6 -168 68l26 29q71 -58 164 -58q145 0 145 121q0 105 -159 105h-59l3 38h49q67 0 103.5 26.5t36.5 75.5
q0 46 -31.5 72t-87.5 26q-46 0 -78.5 -10.5t-71.5 -34.5l-23 30q79 54 176 54q72 0 118 -36t46 -98q0 -98 -110 -120q137 -13 137 -128z" />
    <glyph glyph-name="uni049A" unicode="&#x49a;" horiz-adv-x="551" 
d="M563 42v-185h-36l-12 143h-33l-206 340h-114v-340h-47v684h47v-303h115l193 303h51l-205 -322l195 -320h52z" />
    <glyph glyph-name="uni049B" unicode="&#x49b;" horiz-adv-x="492" 
d="M503 40v-183h-36l-12 143h-39l-178 259h-82v-259h-46v522h46v-226h83l153 226h51l-166 -242l165 -240h61z" />
    <glyph glyph-name="uni049C" unicode="&#x49c;" horiz-adv-x="551" 
d="M537 0h-54l-202 340h-29v-183h-35v183h-55v-340h-47v684h47v-303h55v182h35v-182h30l188 303h51l-201 -322z" />
    <glyph glyph-name="uni049D" unicode="&#x49d;" horiz-adv-x="504" 
d="M469 0h-51l-146 259h-35v-136h-31v136h-50v-259h-46v522h46v-226h50v118h31v-118h35l121 226h49l-132 -242z" />
    <glyph glyph-name="uni04A0" unicode="&#x4a0;" horiz-adv-x="599" 
d="M585 0h-55l-206 340h-114v-340h-47v642h-163v42h210v-303h115l193 303h51l-205 -322z" />
    <glyph glyph-name="uni04A1" unicode="&#x4a1;" horiz-adv-x="537" 
d="M516 0h-54l-178 259h-83v-259h-46v483h-151v39h197v-226h84l153 226h51l-167 -242z" />
    <glyph glyph-name="uni04A2" unicode="&#x4a2;" horiz-adv-x="667" 
d="M619 42v-185h-36l-12 143h-67v339h-342v-339h-47v684h47v-303h342v303h48v-642h67z" />
    <glyph glyph-name="uni04A3" unicode="&#x4a3;" horiz-adv-x="586" 
d="M542 40v-183h-36l-12 143h-64v251h-274v-251h-46v522h46v-231h274v231h46v-482h66z" />
    <glyph glyph-name="uni04AA" unicode="&#x4aa;" horiz-adv-x="547" 
d="M360 -11q67 -44 67 -114q0 -45 -28 -72.5t-79 -27.5q-46 0 -79 20l15 33q30 -16 64 -16q29 0 46.5 16.5t17.5 46.5q0 66 -76 116q-107 13 -172.5 104.5t-65.5 246.5q0 169 77.5 260.5t196.5 91.5q96 0 171 -61l-26 -32q-66 52 -142 52q-101 0 -164 -76.5t-63 -234.5
q0 -152 62.5 -231t161.5 -79q49 0 82.5 14.5t69.5 43.5l27 -32q-68 -62 -163 -69z" />
    <glyph glyph-name="uni04AB" unicode="&#x4ab;" horiz-adv-x="466" 
d="M301 -11q67 -44 67 -114q0 -45 -28 -72.5t-79 -27.5q-46 0 -79 20l15 33q30 -16 64 -16q29 0 46.5 16.5t17.5 46.5q0 67 -77 117q-84 13 -132.5 83t-48.5 183q0 126 59.5 200t158.5 74q82 0 143 -51l-24 -32q-51 43 -117 43q-78 0 -124.5 -60t-46.5 -174q0 -112 46 -170
t124 -58q67 0 122 47l24 -32q-57 -50 -131 -56z" />
    <glyph glyph-name="uni04AC" unicode="&#x4ac;" horiz-adv-x="487" 
d="M267 641v-599h68v-185h-36l-12 143h-67v641h-205v43h462l-6 -43h-204z" />
    <glyph glyph-name="uni04AD" unicode="&#x4ad;" horiz-adv-x="427" 
d="M237 481v-441h65v-183h-36l-12 143h-63v481h-182v41h410l-6 -41h-176z" />
    <glyph glyph-name="uni04AE" unicode="&#x4ae;" horiz-adv-x="513" 
d="M281 269v-269h-47v268l-218 416h53l190 -374l186 374h52z" />
    <glyph glyph-name="uni04AF" unicode="&#x4af;" horiz-adv-x="462" 
d="M257 18v-213l-45 -8v221l-195 504h51l167 -457l161 457h49z" />
    <glyph glyph-name="uni04B0" unicode="&#x4b0;" horiz-adv-x="513" 
d="M293 293h110v-40h-122v-253h-47v253h-122v40h109l-205 391h53l190 -374l186 374h52z" />
    <glyph glyph-name="uni04B1" unicode="&#x4b1;" horiz-adv-x="462" 
d="M266 42h96v-38h-105v-199l-45 -8v207h-105v38h96l-186 480h51l167 -457l161 457h49z" />
    <glyph glyph-name="uni04B2" unicode="&#x4b2;" horiz-adv-x="502" 
d="M519 42v-185h-36l-12 143h-32l-190 338l-185 -338h-52l210 368l-189 316h54l163 -285l161 285h52l-185 -313l191 -329h50z" />
    <glyph glyph-name="uni04B3" unicode="&#x4b3;" horiz-adv-x="449" 
d="M474 40v-183h-36l-12 143h-44l-159 250l-158 -250h-53l184 278l-160 244h54l135 -215l135 215h53l-161 -242l159 -240h63z" />
    <glyph glyph-name="uni04B6" unicode="&#x4b6;" horiz-adv-x="588" 
d="M540 42v-185h-36l-12 143h-67v301q-83 -76 -185 -76q-87 0 -140 51.5t-53 140.5v267h48v-263q0 -74 40.5 -113.5t113.5 -39.5q110 0 176 80v336h48v-642h67z" />
    <glyph glyph-name="uni04B7" unicode="&#x4b7;" horiz-adv-x="536" 
d="M492 40v-183h-36l-12 143h-63v249q-66 -71 -168 -71q-67 0 -109 36t-42 105v203h46v-197q0 -108 115 -108q47 0 89.5 21.5t68.5 55.5v228h46v-482h65z" />
    <glyph glyph-name="uni04B8" unicode="&#x4b8;" horiz-adv-x="571" 
d="M473 684v-684h-48v301q-67 -62 -145 -73v-112h-37v109h-3q-87 0 -140 51.5t-53 140.5v267h48v-263q0 -73 39 -112t109 -41v255h37v-253q90 12 145 78v336h48z" />
    <glyph glyph-name="uni04B9" unicode="&#x4b9;" horiz-adv-x="536" 
d="M427 522v-522h-46v249q-51 -54 -125 -67v-88h-35v84h-8q-67 0 -109 36t-42 105v203h46v-197q0 -106 113 -108v162h35v-159q79 14 125 74v228h46z" />
    <glyph glyph-name="uni04BA" unicode="&#x4ba;" horiz-adv-x="590" 
d="M350 431q92 0 141 -50.5t49 -139.5v-241h-48v239q0 150 -148 150q-105 0 -182 -94v-295h-47v684h47v-337q78 84 188 84z" />
    <glyph glyph-name="uni04BB" unicode="&#x4bb;" horiz-adv-x="578" 
d="M335 472q71 0 107 -41.5t36 -118.5v-312h-46v306q0 128 -104 128q-95 0 -172 -113v-321h-46v735l46 6v-370q72 101 179 101z" />
    <glyph glyph-name="uni04C0" unicode="&#x4c0;" horiz-adv-x="277" 
d="M163 0h-48v684h48v-684z" />
    <glyph glyph-name="uni04C1" unicode="&#x4c1;" horiz-adv-x="756" 
d="M378 782q-50 0 -83 23t-40 62l32 7q19 -52 91 -52t91 52l32 -7q-7 -39 -40.5 -62t-82.5 -23zM538 362l206 -362h-54l-191 340h-98v-340h-46v340h-98l-192 -340h-53l206 362l-190 322h53l177 -303h97v303h46v-303h98l179 303h50z" />
    <glyph glyph-name="uni04C2" unicode="&#x4c2;" horiz-adv-x="685" 
d="M343 656q-50 0 -83 23t-40 62l32 7q19 -52 91 -52t91 52l32 -7q-7 -39 -40.5 -62t-82.5 -23zM496 279l158 -279h-50l-145 258h-95v-258h-43v258h-96l-145 -258h-49l158 279l-134 243h48l123 -227h95v227h43v-227h95l125 227h46z" />
    <glyph glyph-name="uni04CB" unicode="&#x4cb;" horiz-adv-x="588" 
d="M473 684v-684h-67l-12 -143h-36v185h67v259q-83 -76 -185 -76q-87 0 -140 51.5t-53 140.5v267h48v-263q0 -74 40.5 -113.5t113.5 -39.5q110 0 176 80v336h48z" />
    <glyph glyph-name="uni04CC" unicode="&#x4cc;" horiz-adv-x="536" 
d="M427 522v-522h-65l-12 -143h-35v183h66v211q-67 -71 -168 -71q-67 0 -109 36.5t-42 105.5v200h46v-194q0 -108 115 -108q47 0 89.5 21.5t68.5 55.5v225h46z" />
    <glyph glyph-name="uni04CF" unicode="&#x4cf;" horiz-adv-x="281" 
d="M151 84q0 -54 46 -54q17 0 36 7l13 -35q-30 -13 -56 -13q-85 0 -85 96v650l46 6v-657z" />
    <glyph glyph-name="uni04D0" unicode="&#x4d0;" horiz-adv-x="562" 
d="M281 782q-50 0 -83 23t-40 62l32 7q19 -52 91 -52t91 52l32 -7q-7 -39 -40.5 -62t-82.5 -23zM428 192h-297l-63 -192h-48l231 684h60l231 -684h-51zM415 234l-134 411l-136 -411h270z" />
    <glyph glyph-name="uni04D1" unicode="&#x4d1;" horiz-adv-x="534" 
d="M257 656q-50 0 -83 23t-40 62l32 7q19 -52 91 -52t91 52l32 -7q-7 -39 -40.5 -62t-82.5 -23zM425 113q0 -44 10.5 -63t33.5 -28l-11 -33q-34 9 -51.5 30t-21.5 62q-57 -92 -165 -92q-74 0 -117 42.5t-43 113.5q0 80 57 124t155 44h107v54q0 65 -29 95t-96 30
q-63 0 -142 -31l-13 37q87 34 159 34q167 0 167 -162v-257zM226 28q101 0 153 99v149h-100q-82 0 -126 -32.5t-44 -97.5q0 -56 31 -87t86 -31z" />
    <glyph glyph-name="uni04D2" unicode="&#x4d2;" horiz-adv-x="562" 
d="M190 792q-15 0 -24.5 9.5t-9.5 23.5t9.5 23.5t24.5 9.5t24.5 -9.5t9.5 -23.5t-9.5 -23.5t-24.5 -9.5zM372 792q-15 0 -24.5 9.5t-9.5 23.5t9.5 23.5t24.5 9.5q14 0 23.5 -9.5t9.5 -23.5t-9.5 -23.5t-23.5 -9.5zM428 192h-297l-63 -192h-48l231 684h60l231 -684h-51z
M415 234l-134 411l-136 -411h270z" />
    <glyph glyph-name="uni04D3" unicode="&#x4d3;" horiz-adv-x="534" 
d="M166 666q-15 0 -24.5 9.5t-9.5 23.5t9.5 23.5t24.5 9.5t24.5 -9.5t9.5 -23.5t-9.5 -23.5t-24.5 -9.5zM348 666q-15 0 -24.5 9.5t-9.5 23.5t9.5 23.5t24.5 9.5q14 0 23.5 -9.5t9.5 -23.5t-9.5 -23.5t-23.5 -9.5zM425 113q0 -44 10.5 -63t33.5 -28l-11 -33q-34 9 -51.5 30
t-21.5 62q-57 -92 -165 -92q-74 0 -117 42.5t-43 113.5q0 80 57 124t155 44h107v54q0 65 -29 95t-96 30q-63 0 -142 -31l-13 37q87 34 159 34q167 0 167 -162v-257zM226 28q101 0 153 99v149h-100q-82 0 -126 -32.5t-44 -97.5q0 -56 31 -87t86 -31z" />
    <glyph glyph-name="uni04D4" unicode="&#x4d4;" horiz-adv-x="772" 
d="M729 41v-41h-267l-48 188h-291l-71 -188h-48l265 684h410l-6 -41h-330l69 -266h259v-41h-248l76 -295h230zM404 229l-107 417l-158 -417h265z" />
    <glyph glyph-name="uni04D5" unicode="&#x4d5;" horiz-adv-x="847" 
d="M784 282q0 -21 -2 -41h-354q5 -107 51 -159t120 -52t142 53l23 -30q-77 -64 -167 -64q-129 0 -185 112q-42 -60 -87 -86t-104 -26q-75 0 -118 42.5t-43 113.5q0 80 57 124t156 44h107v54q0 65 -29 95t-96 30q-63 0 -142 -31l-13 37q85 34 159 34q132 0 160 -109
q54 109 169 109q95 0 145.5 -67t50.5 -183zM739 278v19q0 91 -38 143.5t-112 52.5q-69 0 -113 -53.5t-48 -161.5h311zM227 28q51 0 91 26.5t79 84.5q-17 53 -17 117v1v19h-100q-82 0 -126 -32.5t-44 -97.5q0 -56 31 -87t86 -31z" />
    <glyph glyph-name="uni04D6" unicode="&#x4d6;" horiz-adv-x="504" 
d="M288 782q-50 0 -83 23t-40 62l32 7q19 -52 91 -52t91 52l32 -7q-7 -39 -40.5 -62t-82.5 -23zM448 643h-286v-266h247v-41h-247v-295h298v-41h-345v684h339z" />
    <glyph glyph-name="uni04D7" unicode="&#x4d7;" horiz-adv-x="534" 
d="M275 656q-50 0 -83 23t-40 62l32 7q19 -52 91 -52t91 52l32 -7q-7 -39 -40.5 -62t-82.5 -23zM471 282q0 -21 -2 -41h-354q5 -107 51 -159t120 -52t142 53l23 -30q-77 -64 -167 -64q-101 0 -159 71t-58 197t55.5 200.5t149.5 74.5q97 0 148 -67t51 -183zM426 278v19
q0 91 -38 143.5t-114 52.5q-68 0 -111.5 -53.5t-47.5 -161.5h311z" />
    <glyph glyph-name="uni04D8" unicode="&#x4d8;" horiz-adv-x="648" 
d="M318 694q124 0 192 -86t68 -265q0 -175 -70.5 -264.5t-190.5 -89.5q-121 0 -189 87.5t-68 254.5q0 24 1 38h467q-11 284 -211 284q-101 0 -189 -72l-26 32q94 81 216 81zM318 31q94 0 150.5 72.5t59.5 225.5h-419q0 -150 55 -224t154 -74z" />
    <glyph glyph-name="uni04D9" unicode="&#x4d9;" horiz-adv-x="540" 
d="M268 532q99 0 152 -68.5t53 -199.5q0 -135 -56 -205t-152 -70q-94 0 -148 68.5t-54 187.5q0 16 2 36h360q-3 106 -44.5 158.5t-112.5 52.5q-76 0 -147 -50l-23 32q75 58 170 58zM265 29q154 0 160 214h-316v-5q0 -100 41 -154.5t115 -54.5z" />
    <glyph glyph-name="uni04DA" unicode="&#x4da;" horiz-adv-x="648" 
d="M227 792q-15 0 -24.5 9.5t-9.5 23.5t9.5 23.5t24.5 9.5t24.5 -9.5t9.5 -23.5t-9.5 -23.5t-24.5 -9.5zM409 792q-15 0 -24.5 9.5t-9.5 23.5t9.5 23.5t24.5 9.5q14 0 23.5 -9.5t9.5 -23.5t-9.5 -23.5t-23.5 -9.5zM318 694q124 0 192 -86t68 -265q0 -175 -70.5 -264.5
t-190.5 -89.5q-121 0 -189 87.5t-68 254.5q0 24 1 38h467q-11 284 -211 284q-101 0 -189 -72l-26 32q94 81 216 81zM318 31q94 0 150.5 72.5t59.5 225.5h-419q0 -150 55 -224t154 -74z" />
    <glyph glyph-name="uni04DB" unicode="&#x4db;" horiz-adv-x="540" 
d="M185 666q-15 0 -24.5 9.5t-9.5 23.5t9.5 23.5t24.5 9.5t24.5 -9.5t9.5 -23.5t-9.5 -23.5t-24.5 -9.5zM367 666q-15 0 -24.5 9.5t-9.5 23.5t9.5 23.5t24.5 9.5q14 0 23.5 -9.5t9.5 -23.5t-9.5 -23.5t-23.5 -9.5zM268 532q99 0 152 -68.5t53 -199.5q0 -135 -56 -205
t-152 -70q-94 0 -148 68.5t-54 187.5q0 16 2 36h360q-3 106 -44.5 158.5t-112.5 52.5q-76 0 -147 -50l-23 32q75 58 170 58zM265 29q154 0 160 214h-316v-5q0 -100 41 -154.5t115 -54.5z" />
    <glyph glyph-name="uni04DC" unicode="&#x4dc;" horiz-adv-x="756" 
d="M287 858q15 0 24.5 -9.5t9.5 -23.5t-9.5 -23.5t-24.5 -9.5t-24.5 9.5t-9.5 23.5t9.5 23.5t24.5 9.5zM469 858q14 0 23.5 -9.5t9.5 -23.5t-9.5 -23.5t-23.5 -9.5q-15 0 -24.5 9.5t-9.5 23.5t9.5 23.5t24.5 9.5zM538 362l206 -362h-54l-191 340h-98v-340h-46v340h-98
l-192 -340h-53l206 362l-190 322h53l177 -303h97v303h46v-303h98l179 303h50z" />
    <glyph glyph-name="uni04DD" unicode="&#x4dd;" horiz-adv-x="685" 
d="M252 732q15 0 24.5 -9.5t9.5 -23.5t-9.5 -23.5t-24.5 -9.5t-24.5 9.5t-9.5 23.5t9.5 23.5t24.5 9.5zM434 732q14 0 23.5 -9.5t9.5 -23.5t-9.5 -23.5t-23.5 -9.5q-15 0 -24.5 9.5t-9.5 23.5t9.5 23.5t24.5 9.5zM496 279l158 -279h-50l-145 258h-95v-258h-43v258h-96
l-145 -258h-49l158 279l-134 243h48l123 -227h95v227h43v-227h95l125 227h46z" />
    <glyph glyph-name="uni04DE" unicode="&#x4de;" horiz-adv-x="520" 
d="M168 858q15 0 24.5 -9.5t9.5 -23.5t-9.5 -23.5t-24.5 -9.5t-24.5 9.5t-9.5 23.5t9.5 23.5t24.5 9.5zM350 858q14 0 23.5 -9.5t9.5 -23.5t-9.5 -23.5t-23.5 -9.5q-15 0 -24.5 9.5t-9.5 23.5t9.5 23.5t24.5 9.5zM249 694q91 0 142 -46.5t51 -122.5q0 -64 -35.5 -103
t-95.5 -52q67 -7 109.5 -51t42.5 -122q0 -95 -63 -151.5t-164 -56.5q-124 0 -211 93l30 28q76 -78 180 -78q81 0 129.5 43.5t48.5 120.5q0 73 -46 112.5t-131 38.5h-61l6 41h52q73 0 116.5 35.5t43.5 100.5q0 58 -39 93.5t-108 35.5q-91 0 -174 -72l-27 30q92 83 204 83z
" />
    <glyph glyph-name="uni04DF" unicode="&#x4df;" horiz-adv-x="476" 
d="M126 732q15 0 24.5 -9.5t9.5 -23.5t-9.5 -23.5t-24.5 -9.5t-24.5 9.5t-9.5 23.5t9.5 23.5t24.5 9.5zM308 732q14 0 23.5 -9.5t9.5 -23.5t-9.5 -23.5t-23.5 -9.5q-15 0 -24.5 9.5t-9.5 23.5t9.5 23.5t24.5 9.5zM219 532q72 0 118 -36t46 -98q0 -98 -110 -120
q137 -13 137 -128q0 -78 -53 -119.5t-139 -41.5q-112 0 -192 69l26 29q71 -58 164 -58q145 0 145 121q0 105 -159 105h-59l3 38h49q67 0 103.5 26.5t36.5 75.5q0 46 -31.5 72t-87.5 26q-46 0 -78.5 -10.5t-71.5 -34.5l-23 30q79 54 176 54z" />
    <glyph glyph-name="uni04E2" unicode="&#x4e2;" horiz-adv-x="669" 
d="M221 803v39h229v-39h-229zM554 0h-47v375q0 159 6 255l-339 -630h-59v684h47v-376q0 -137 -6 -255l340 631h58v-684z" />
    <glyph glyph-name="uni04E3" unicode="&#x4e3;" horiz-adv-x="590" 
d="M180 679v39h229v-39h-229zM480 0h-46v354q0 46 5 114l-275 -468h-54v522h46v-332q0 -55 -4 -135l273 467h55v-522z" />
    <glyph glyph-name="uni04E4" unicode="&#x4e4;" horiz-adv-x="669" 
d="M244 858q15 0 24.5 -9.5t9.5 -23.5t-9.5 -23.5t-24.5 -9.5t-24.5 9.5t-9.5 23.5t9.5 23.5t24.5 9.5zM426 858q14 0 23.5 -9.5t9.5 -23.5t-9.5 -23.5t-23.5 -9.5q-15 0 -24.5 9.5t-9.5 23.5t9.5 23.5t24.5 9.5zM554 0h-47v375q0 159 6 255l-339 -630h-59v684h47v-376
q0 -137 -6 -255l340 631h58v-684z" />
    <glyph glyph-name="uni04E5" unicode="&#x4e5;" horiz-adv-x="590" 
d="M204 732q15 0 24.5 -9.5t9.5 -23.5t-9.5 -23.5t-24.5 -9.5t-24.5 9.5t-9.5 23.5t9.5 23.5t24.5 9.5zM386 732q14 0 23.5 -9.5t9.5 -23.5t-9.5 -23.5t-23.5 -9.5q-15 0 -24.5 9.5t-9.5 23.5t9.5 23.5t24.5 9.5zM480 0h-46v354q0 46 5 114l-275 -468h-54v522h46v-332
q0 -55 -4 -135l273 467h55v-522z" />
    <glyph glyph-name="uni04E6" unicode="&#x4e6;" horiz-adv-x="691" 
d="M244 858q15 0 24.5 -9.5t9.5 -23.5t-9.5 -23.5t-24.5 -9.5t-24.5 9.5t-9.5 23.5t9.5 23.5t24.5 9.5zM426 858q14 0 23.5 -9.5t9.5 -23.5t-9.5 -23.5t-23.5 -9.5q-15 0 -24.5 9.5t-9.5 23.5t9.5 23.5t24.5 9.5zM345 694q126 0 201 -92t75 -261q0 -166 -74.5 -259
t-201.5 -93q-125 0 -200 92t-75 259q0 166 75.5 260t199.5 94zM345 653q-104 0 -164.5 -79.5t-60.5 -233.5q0 -151 61 -230t164 -79q107 0 166.5 78.5t59.5 231.5q0 154 -60 233t-166 79z" />
    <glyph glyph-name="uni04E7" unicode="&#x4e7;" horiz-adv-x="567" 
d="M193 732q15 0 24.5 -9.5t9.5 -23.5t-9.5 -23.5t-24.5 -9.5t-24.5 9.5t-9.5 23.5t9.5 23.5t24.5 9.5zM375 732q14 0 23.5 -9.5t9.5 -23.5t-9.5 -23.5t-23.5 -9.5q-15 0 -24.5 9.5t-9.5 23.5t9.5 23.5t24.5 9.5zM284 532q102 0 159 -70.5t57 -198.5t-58 -201t-159 -73
t-158.5 72.5t-57.5 198.5q0 127 58.5 199.5t158.5 72.5zM284 492q-79 0 -124 -59.5t-45 -172.5q0 -111 44 -171t124 -60q79 0 124 60t45 174q0 112 -44 170.5t-124 58.5z" />
    <glyph glyph-name="uni04E8" unicode="&#x4e8;" horiz-adv-x="691" 
d="M345 694q126 0 201 -92t75 -262q0 -166 -74.5 -258.5t-201.5 -92.5q-125 0 -200 92t-75 258q0 167 75.5 261t199.5 94zM345 653q-99 0 -159 -72t-66 -212h451q-6 141 -65.5 212.5t-160.5 71.5zM345 31q106 0 165.5 76t61.5 223h-453q2 -146 63.5 -222.5t162.5 -76.5z" />
    <glyph glyph-name="uni04E9" unicode="&#x4e9;" horiz-adv-x="567" 
d="M284 532q102 0 159 -70.5t57 -198.5t-58 -201t-159 -73t-158.5 72.5t-57.5 198.5q0 127 58.5 199.5t158.5 72.5zM284 492q-75 0 -119.5 -53t-48.5 -155h336q-4 102 -48 155t-120 53zM283 29q77 0 121 55.5t48 161.5h-337q3 -105 47 -161t121 -56z" />
    <glyph glyph-name="uni04EA" unicode="&#x4ea;" horiz-adv-x="691" 
d="M254 792q-15 0 -24.5 9.5t-9.5 23.5t9.5 23.5t24.5 9.5t24.5 -9.5t9.5 -23.5t-9.5 -23.5t-24.5 -9.5zM436 792q-15 0 -24.5 9.5t-9.5 23.5t9.5 23.5t24.5 9.5q14 0 23.5 -9.5t9.5 -23.5t-9.5 -23.5t-23.5 -9.5zM345 694q126 0 201 -92t75 -262q0 -166 -74.5 -258.5
t-201.5 -92.5q-125 0 -200 92t-75 258q0 167 75.5 261t199.5 94zM345 653q-99 0 -159 -72t-66 -212h451q-6 141 -65.5 212.5t-160.5 71.5zM345 31q106 0 165.5 76t61.5 223h-453q2 -146 63.5 -222.5t162.5 -76.5z" />
    <glyph glyph-name="uni04EB" unicode="&#x4eb;" horiz-adv-x="567" 
d="M192 666q-15 0 -24.5 9.5t-9.5 23.5t9.5 23.5t24.5 9.5t24.5 -9.5t9.5 -23.5t-9.5 -23.5t-24.5 -9.5zM374 666q-15 0 -24.5 9.5t-9.5 23.5t9.5 23.5t24.5 9.5q14 0 23.5 -9.5t9.5 -23.5t-9.5 -23.5t-23.5 -9.5zM284 532q102 0 159 -70.5t57 -198.5t-58 -201t-159 -73
t-158.5 72.5t-57.5 198.5q0 127 58.5 199.5t158.5 72.5zM284 492q-75 0 -119.5 -53t-48.5 -155h336q-4 102 -48 155t-120 53zM283 29q77 0 121 55.5t48 161.5h-337q3 -105 47 -161t121 -56z" />
    <glyph glyph-name="uni04EC" unicode="&#x4ec;" horiz-adv-x="532" 
d="M134 792q-15 0 -24.5 9.5t-9.5 23.5t9.5 23.5t24.5 9.5t24.5 -9.5t9.5 -23.5t-9.5 -23.5t-24.5 -9.5zM316 792q-15 0 -24.5 9.5t-9.5 23.5t9.5 23.5t24.5 9.5q14 0 23.5 -9.5t9.5 -23.5t-9.5 -23.5t-23.5 -9.5zM224 694q109 0 173.5 -86.5t64.5 -265.5q0 -171 -62.5 -262
t-181.5 -91q-102 0 -185 72l26 32q40 -31 74.5 -46t83.5 -15q95 0 145 76.5t51 226.5h-285v41h284q-6 141 -56.5 209t-133.5 68q-47 0 -83.5 -13t-80.5 -44l-26 32q84 66 192 66z" />
    <glyph glyph-name="uni04ED" unicode="&#x4ed;" horiz-adv-x="472" 
d="M125 666q-15 0 -24.5 9.5t-9.5 23.5t9.5 23.5t24.5 9.5t24.5 -9.5t9.5 -23.5t-9.5 -23.5t-24.5 -9.5zM307 666q-15 0 -24.5 9.5t-9.5 23.5t9.5 23.5t24.5 9.5q14 0 23.5 -9.5t9.5 -23.5t-9.5 -23.5t-23.5 -9.5zM204 532q96 0 148.5 -68t52.5 -200q0 -130 -52 -202.5
t-149 -72.5q-89 0 -163 58l24 31q62 -48 135 -48q153 0 158 221h-241v38h240q-9 204 -154 204q-69 0 -135 -45l-23 30q71 54 159 54z" />
    <glyph glyph-name="uni04EE" unicode="&#x4ee;" horiz-adv-x="511" 
d="M149 803v39h229v-39h-229zM302 191q-44 -107 -79 -144t-116 -58l-10 37q66 18 95 47.5t65 119.5h-15l-231 491h51l211 -459l183 459h49z" />
    <glyph glyph-name="uni04EF" unicode="&#x4ef;" horiz-adv-x="459" 
d="M109 679v39h229v-39h-229zM261 -2q-31 -91 -73 -135t-129 -64l-6 36q74 20 104.5 53.5t59.5 111.5h-17l-183 522h50l165 -488l160 488h50z" />
    <glyph glyph-name="uni04F0" unicode="&#x4f0;" horiz-adv-x="511" 
d="M172 858q15 0 24.5 -9.5t9.5 -23.5t-9.5 -23.5t-24.5 -9.5t-24.5 9.5t-9.5 23.5t9.5 23.5t24.5 9.5zM354 858q14 0 23.5 -9.5t9.5 -23.5t-9.5 -23.5t-23.5 -9.5q-15 0 -24.5 9.5t-9.5 23.5t9.5 23.5t24.5 9.5zM302 191q-44 -107 -79 -144t-116 -58l-10 37q66 18 95 47.5
t65 119.5h-15l-231 491h51l211 -459l183 459h49z" />
    <glyph glyph-name="uni04F1" unicode="&#x4f1;" horiz-adv-x="459" 
d="M133 732q15 0 24.5 -9.5t9.5 -23.5t-9.5 -23.5t-24.5 -9.5t-24.5 9.5t-9.5 23.5t9.5 23.5t24.5 9.5zM315 732q14 0 23.5 -9.5t9.5 -23.5t-9.5 -23.5t-23.5 -9.5q-15 0 -24.5 9.5t-9.5 23.5t9.5 23.5t24.5 9.5zM261 -2q-31 -91 -73 -135t-129 -64l-6 36q74 20 104.5 53.5
t59.5 111.5h-17l-183 522h50l165 -488l160 488h50z" />
    <glyph glyph-name="uni04F2" unicode="&#x4f2;" horiz-adv-x="511" 
d="M412 907l-88 -136l-31 15l76 144zM291 907l-81 -132l-31 15l69 139zM302 191q-44 -107 -79 -144t-116 -58l-10 37q66 18 95 47.5t65 119.5h-15l-231 491h51l211 -459l183 459h49z" />
    <glyph glyph-name="uni04F3" unicode="&#x4f3;" horiz-adv-x="459" 
d="M378 781l-88 -136l-31 15l76 144zM257 781l-81 -132l-31 15l69 139zM261 -2q-31 -91 -73 -135t-129 -64l-6 36q74 20 104.5 53.5t59.5 111.5h-17l-183 522h50l165 -488l160 488h50z" />
    <glyph glyph-name="uni04F4" unicode="&#x4f4;" horiz-adv-x="588" 
d="M169 792q-15 0 -24.5 9.5t-9.5 23.5t9.5 23.5t24.5 9.5t24.5 -9.5t9.5 -23.5t-9.5 -23.5t-24.5 -9.5zM351 792q-15 0 -24.5 9.5t-9.5 23.5t9.5 23.5t24.5 9.5q14 0 23.5 -9.5t9.5 -23.5t-9.5 -23.5t-23.5 -9.5zM473 684v-684h-48v301q-83 -76 -185 -76q-87 0 -140 51.5
t-53 140.5v267h48v-263q0 -74 40.5 -113.5t113.5 -39.5q110 0 176 80v336h48z" />
    <glyph glyph-name="uni04F5" unicode="&#x4f5;" horiz-adv-x="536" 
d="M154 666q-15 0 -24.5 9.5t-9.5 23.5t9.5 23.5t24.5 9.5t24.5 -9.5t9.5 -23.5t-9.5 -23.5t-24.5 -9.5zM336 666q-15 0 -24.5 9.5t-9.5 23.5t9.5 23.5t24.5 9.5q14 0 23.5 -9.5t9.5 -23.5t-9.5 -23.5t-23.5 -9.5zM427 522v-522h-46v249q-66 -71 -168 -71q-67 0 -109 36
t-42 105v203h46v-197q0 -108 115 -108q47 0 89.5 21.5t68.5 55.5v228h46z" />
    <glyph glyph-name="uni04F6" unicode="&#x4f6;" horiz-adv-x="508" 
d="M162 640v-598h68v-185h-36l-12 143h-67v684h383l-7 -44h-329z" />
    <glyph glyph-name="uni04F7" unicode="&#x4f7;" horiz-adv-x="421" 
d="M156 481v-441h65v-183h-36l-12 143h-63v522h302l-6 -41h-250z" />
    <glyph glyph-name="uni04F8" unicode="&#x4f8;" horiz-adv-x="789" 
d="M307 792q-15 0 -24.5 9.5t-9.5 23.5t9.5 23.5t24.5 9.5t24.5 -9.5t9.5 -23.5t-9.5 -23.5t-24.5 -9.5zM489 858q14 0 23.5 -9.5t9.5 -23.5t-9.5 -23.5t-23.5 -9.5q-15 0 -24.5 9.5t-9.5 23.5t9.5 23.5t24.5 9.5zM268 418q114 0 176.5 -50.5t62.5 -151.5q0 -110 -64 -163
t-175 -53h-153v684h47v-266h106zM674 684v-684h-47v684h47zM276 41q181 0 181 175q0 162 -187 162h-108v-337h114z" />
    <glyph glyph-name="uni04F9" unicode="&#x4f9;" horiz-adv-x="707" 
d="M262 666q-15 0 -24.5 9.5t-9.5 23.5t9.5 23.5t24.5 9.5t24.5 -9.5t9.5 -23.5t-9.5 -23.5t-24.5 -9.5zM444 732q14 0 23.5 -9.5t9.5 -23.5t-9.5 -23.5t-23.5 -9.5q-15 0 -24.5 9.5t-9.5 23.5t9.5 23.5t24.5 9.5zM246 343q203 0 203 -167q0 -88 -53.5 -132t-140.5 -44h-145
v522h46v-179h90zM597 522v-522h-46v522h46zM251 39q149 0 149 137q0 64 -35.5 96t-117.5 32h-91v-265h95z" />
    <glyph glyph-name="uni051C" unicode="&#x51c;" horiz-adv-x="804" 
d="M617 0h-58l-157 633l-158 -633h-57l-155 684h49l137 -639l157 639h54l159 -639l137 639h46z" />
    <glyph glyph-name="uni051D" unicode="&#x51d;" horiz-adv-x="692" 
d="M534 0h-62l-125 478l-125 -478h-61l-134 522h49l117 -484l128 484h54l128 -485l116 485h45z" />
    <glyph glyph-name="uni0524" unicode="&#x524;" horiz-adv-x="662" 
d="M614 42v-185h-36l-12 143h-67v641h-337v-641h-47v684h432v-642h67z" />
    <glyph glyph-name="uni0525" unicode="&#x525;" horiz-adv-x="583" 
d="M539 40v-183h-36l-12 143h-64v482h-271v-482h-46v522h363v-482h66z" />
    <glyph glyph-name="uni0526" unicode="&#x526;" horiz-adv-x="590" 
d="M607 42v-185h-36l-12 143h-67v239q0 150 -148 150q-105 0 -182 -94v-295h-47v684h47v-337q78 84 188 84q92 0 141 -50.5t49 -139.5v-199h67z" />
    <glyph glyph-name="uni0527" unicode="&#x527;" horiz-adv-x="578" 
d="M543 40v-183h-36l-12 143h-63v306q0 128 -104 128q-95 0 -172 -113v-321h-46v735l46 6v-370q72 101 179 101q71 0 107 -41.5t36 -118.5v-272h65z" />
    <glyph glyph-name="Wgrave" unicode="&#x1e80;" horiz-adv-x="804" 
d="M498 788l-13 -29l-192 77l22 44zM617 0h-58l-157 633l-158 -633h-57l-155 684h49l137 -639l157 639h54l159 -639l137 639h46z" />
    <glyph glyph-name="wgrave" unicode="&#x1e81;" horiz-adv-x="692" 
d="M455 676l-15 -28l-190 84l21 44zM534 0h-62l-125 478l-125 -478h-61l-134 522h49l117 -484l128 484h54l128 -485l116 485h45z" />
    <glyph glyph-name="Wacute" unicode="&#x1e82;" horiz-adv-x="804" 
d="M509 836l-192 -77l-13 29l183 92zM617 0h-58l-157 633l-158 -633h-57l-155 684h49l137 -639l157 639h54l159 -639l137 639h46z" />
    <glyph glyph-name="wacute" unicode="&#x1e83;" horiz-adv-x="692" 
d="M438 732l-190 -84l-15 28l184 100zM534 0h-62l-125 478l-125 -478h-61l-134 522h49l117 -484l128 484h54l128 -485l116 485h45z" />
    <glyph glyph-name="Wdieresis" unicode="&#x1e84;" horiz-adv-x="804" 
d="M311 858q15 0 24.5 -9.5t9.5 -23.5t-9.5 -23.5t-24.5 -9.5t-24.5 9.5t-9.5 23.5t9.5 23.5t24.5 9.5zM493 858q14 0 23.5 -9.5t9.5 -23.5t-9.5 -23.5t-23.5 -9.5q-15 0 -24.5 9.5t-9.5 23.5t9.5 23.5t24.5 9.5zM617 0h-58l-157 633l-158 -633h-57l-155 684h49l137 -639
l157 639h54l159 -639l137 639h46z" />
    <glyph glyph-name="wdieresis" unicode="&#x1e85;" horiz-adv-x="692" 
d="M255 732q15 0 24.5 -9.5t9.5 -23.5t-9.5 -23.5t-24.5 -9.5t-24.5 9.5t-9.5 23.5t9.5 23.5t24.5 9.5zM437 732q14 0 23.5 -9.5t9.5 -23.5t-9.5 -23.5t-23.5 -9.5q-15 0 -24.5 9.5t-9.5 23.5t9.5 23.5t24.5 9.5zM534 0h-62l-125 478l-125 -478h-61l-134 522h49l117 -484
l128 484h54l128 -485l116 485h45z" />
    <glyph glyph-name="Ygrave" unicode="&#x1ef2;" horiz-adv-x="513" 
d="M350 788l-13 -29l-192 77l22 44zM281 269v-269h-47v268l-218 416h53l190 -374l186 374h52z" />
    <glyph glyph-name="ygrave" unicode="&#x1ef3;" horiz-adv-x="459" 
d="M332 676l-15 -28l-190 84l21 44zM261 -2q-31 -91 -73 -135t-129 -64l-6 36q74 20 104.5 53.5t59.5 111.5h-17l-183 522h50l165 -488l160 488h50z" />
    <glyph glyph-name="uni1F70" unicode="&#x1f70;" horiz-adv-x="590" 
d="M389 676l-15 -28l-190 84l21 44zM255 532q75 0 115.5 -44t60.5 -159l43 193h45l-60 -256l31 -183q7 -37 41 -50l-16 -39q-58 13 -68 73l-18 125q-43 -203 -181 -203q-86 0 -133 69t-47 204q0 121 50.5 195.5t136.5 74.5zM257 493q-62 0 -101.5 -61t-39.5 -170
q0 -233 136 -233q57 0 99 53t66 186q-26 130 -61.5 177.5t-98.5 47.5z" />
    <glyph glyph-name="uni1F71" unicode="&#x1f71;" horiz-adv-x="590" 
d="M373 732l-190 -84l-15 28l184 100zM255 532q75 0 115.5 -44t60.5 -159l43 193h45l-60 -256l31 -183q7 -37 41 -50l-16 -39q-58 13 -68 73l-18 125q-43 -203 -181 -203q-86 0 -133 69t-47 204q0 121 50.5 195.5t136.5 74.5zM257 493q-62 0 -101.5 -61t-39.5 -170
q0 -233 136 -233q57 0 99 53t66 186q-26 130 -61.5 177.5t-98.5 47.5z" />
    <glyph glyph-name="uni1F72" unicode="&#x1f72;" horiz-adv-x="457" 
d="M366 676l-15 -28l-190 84l21 44zM259 532q90 0 157 -46l-26 -30q-55 37 -128 37q-60 0 -93.5 -26.5t-33.5 -73.5q0 -44 35.5 -72.5t94.5 -28.5h59l-6 -38h-57q-75 0 -110 -25.5t-35 -87.5q0 -53 38 -82.5t103 -29.5q48 0 80.5 13t69.5 41l24 -31q-75 -63 -176 -63
q-84 0 -136 40t-52 111q0 124 131 136q-110 23 -110 121q0 63 47 99t124 36z" />
    <glyph glyph-name="uni1F73" unicode="&#x1f73;" horiz-adv-x="457" 
d="M349 732l-190 -84l-15 28l184 100zM259 532q90 0 157 -46l-26 -30q-55 37 -128 37q-60 0 -93.5 -26.5t-33.5 -73.5q0 -44 35.5 -72.5t94.5 -28.5h59l-6 -38h-57q-75 0 -110 -25.5t-35 -87.5q0 -53 38 -82.5t103 -29.5q48 0 80.5 13t69.5 41l24 -31q-75 -63 -176 -63
q-84 0 -136 40t-52 111q0 124 131 136q-110 23 -110 121q0 63 47 99t124 36z" />
    <glyph glyph-name="uni1F74" unicode="&#x1f74;" horiz-adv-x="586" 
d="M375 648l-190 84l21 44l184 -100zM338 532q71 0 107 -41.5t36 -118.5v-575l-46 8v561q0 128 -104 128q-95 0 -172 -113v-381h-46v355q0 89 -23 168l42 6q17 -45 23 -104q72 107 183 107z" />
    <glyph glyph-name="uni1F75" unicode="&#x1f75;" horiz-adv-x="586" 
d="M184 648l-15 28l184 100l21 -44zM338 532q71 0 107 -41.5t36 -118.5v-575l-46 8v561q0 128 -104 128q-95 0 -172 -113v-381h-46v355q0 89 -23 168l42 6q17 -45 23 -104q72 107 183 107z" />
    <glyph glyph-name="uni1F76" unicode="&#x1f76;" horiz-adv-x="259" 
d="M236 676l-15 -28l-190 84l21 44zM151 118q0 -40 10.5 -58.5t36.5 -29.5l-14 -37q-44 13 -61.5 40.5t-17.5 81.5v407h46v-404z" />
    <glyph glyph-name="uni1F77" unicode="&#x1f77;" horiz-adv-x="259" 
d="M220 732l-190 -84l-15 28l184 100zM151 118q0 -40 10.5 -58.5t36.5 -29.5l-14 -37q-44 13 -61.5 40.5t-17.5 81.5v407h46v-404z" />
    <glyph glyph-name="uni1F78" unicode="&#x1f78;" horiz-adv-x="567" 
d="M388 676l-15 -28l-190 84l21 44zM284 532q102 0 159 -70.5t57 -198.5t-58 -201t-159 -73t-158.5 72.5t-57.5 198.5q0 127 58.5 199.5t158.5 72.5zM284 492q-79 0 -124 -59.5t-45 -172.5q0 -111 44 -171t124 -60q79 0 124 60t45 174q0 112 -44 170.5t-124 58.5z" />
    <glyph glyph-name="uni1F79" unicode="&#x1f79;" horiz-adv-x="567" 
d="M372 732l-190 -84l-15 28l184 100zM284 532q102 0 159 -70.5t57 -198.5t-58 -201t-159 -73t-158.5 72.5t-57.5 198.5q0 127 58.5 199.5t158.5 72.5zM284 492q-79 0 -124 -59.5t-45 -172.5q0 -111 44 -171t124 -60q79 0 124 60t45 174q0 112 -44 170.5t-124 58.5z" />
    <glyph glyph-name="uni1F7A" unicode="&#x1f7a;" horiz-adv-x="561" 
d="M388 676l-15 -28l-190 84l21 44zM451 522q26 -158 26 -260q0 -135 -59 -204t-148 -69q-73 0 -119 43.5t-46 125.5v364h46v-361q0 -67 33 -99.5t88 -32.5q66 0 112 55.5t46 179.5q0 106 -26 258h47z" />
    <glyph glyph-name="uni1F7B" unicode="&#x1f7b;" horiz-adv-x="561" 
d="M371 732l-190 -84l-15 28l184 100zM451 522q26 -158 26 -260q0 -135 -59 -204t-148 -69q-73 0 -119 43.5t-46 125.5v364h46v-361q0 -67 33 -99.5t88 -32.5q66 0 112 55.5t46 179.5q0 106 -26 258h47z" />
    <glyph glyph-name="uni1F7C" unicode="&#x1f7c;" horiz-adv-x="772" 
d="M497 676l-15 -28l-190 84l21 44zM637 522q55 -136 55 -286q0 -132 -49 -189.5t-123 -57.5q-55 0 -91 31t-43 94q-20 -125 -137 -125q-78 0 -123.5 61t-45.5 188q0 138 57 284h47q-57 -146 -57 -283q0 -210 125 -210q111 0 111 150v173l46 7v-181q0 -149 107 -149
q129 0 129 206q0 151 -55 287h47z" />
    <glyph glyph-name="uni1F7D" unicode="&#x1f7d;" horiz-adv-x="772" 
d="M480 732l-190 -84l-15 28l184 100zM637 522q55 -136 55 -286q0 -132 -49 -189.5t-123 -57.5q-55 0 -91 31t-43 94q-20 -125 -137 -125q-78 0 -123.5 61t-45.5 188q0 138 57 284h47q-57 -146 -57 -283q0 -210 125 -210q111 0 111 150v173l46 7v-181q0 -149 107 -149
q129 0 129 206q0 151 -55 287h47z" />
    <glyph glyph-name="uni1FB0" unicode="&#x1fb0;" horiz-adv-x="590" 
d="M281 656q-49 0 -82.5 28t-40.5 75l32 7q20 -70 91 -70t91 70l32 -7q-7 -46 -40.5 -74.5t-82.5 -28.5zM255 532q75 0 115.5 -44t60.5 -159l43 193h45l-60 -256l31 -183q7 -37 41 -50l-16 -39q-58 13 -68 73l-18 125q-43 -203 -181 -203q-86 0 -133 69t-47 204
q0 121 50.5 195.5t136.5 74.5zM257 493q-62 0 -101.5 -61t-39.5 -170q0 -233 136 -233q57 0 99 53t66 186q-26 130 -61.5 177.5t-98.5 47.5z" />
    <glyph glyph-name="uni1FB1" unicode="&#x1fb1;" horiz-adv-x="590" 
d="M166 679v39h229v-39h-229zM255 532q75 0 115.5 -44t60.5 -159l43 193h45l-60 -256l31 -183q7 -37 41 -50l-16 -39q-58 13 -68 73l-18 125q-43 -203 -181 -203q-86 0 -133 69t-47 204q0 121 50.5 195.5t136.5 74.5zM257 493q-62 0 -101.5 -61t-39.5 -170q0 -233 136 -233
q57 0 99 53t66 186q-26 130 -61.5 177.5t-98.5 47.5z" />
    <glyph glyph-name="uni1FB6" unicode="&#x1fb6;" horiz-adv-x="590" 
d="M343 670q-31 0 -68.5 22t-52.5 22q-20 0 -30.5 -7.5t-26.5 -29.5l-29 15q37 60 86 60q22 0 60 -22t58 -22q27 0 56 43l29 -15q-32 -66 -82 -66zM255 532q75 0 115.5 -44t60.5 -159l43 193h45l-60 -256l31 -183q7 -37 41 -50l-16 -39q-58 13 -68 73l-18 125
q-43 -203 -181 -203q-86 0 -133 69t-47 204q0 121 50.5 195.5t136.5 74.5zM257 493q-62 0 -101.5 -61t-39.5 -170q0 -233 136 -233q57 0 99 53t66 186q-26 130 -61.5 177.5t-98.5 47.5z" />
    <glyph glyph-name="uni1FB8" unicode="&#x1fb8;" horiz-adv-x="562" 
d="M279 767q-48 0 -82 26.5t-41 65.5l32 8q22 -61 91 -61t91 61l32 -8q-7 -39 -41 -65.5t-82 -26.5zM428 192h-297l-63 -192h-48l231 684h60l231 -684h-51zM415 234l-134 411l-136 -411h270z" />
    <glyph glyph-name="uni1FB9" unicode="&#x1fb9;" horiz-adv-x="562" 
d="M394 803h-229v39h229v-39zM428 192h-297l-63 -192h-48l231 684h60l231 -684h-51zM415 234l-134 411l-136 -411h270z" />
    <glyph glyph-name="uni1FBA" unicode="&#x1fba;" horiz-adv-x="562" 
d="M362 759l-192 77l22 44l183 -92zM428 192h-297l-63 -192h-48l231 684h60l231 -684h-51zM415 234l-134 411l-136 -411h270z" />
    <glyph glyph-name="uni1FBB" unicode="&#x1fbb;" horiz-adv-x="562" 
d="M194 759l-13 29l183 92l22 -44zM428 192h-297l-63 -192h-48l231 684h60l231 -684h-51zM415 234l-134 411l-136 -411h270z" />
    <glyph glyph-name="uni1FC0" unicode="&#x1fc0;" horiz-adv-x="349" 
d="M237 670q-31 0 -68.5 22t-52.5 22q-20 0 -30.5 -7.5t-26.5 -29.5l-29 15q37 60 86 60q22 0 60 -22t58 -22q27 0 56 43l29 -15q-32 -66 -82 -66z" />
    <glyph glyph-name="uni1FC6" unicode="&#x1fc6;" horiz-adv-x="586" 
d="M223 714q-20 0 -30.5 -7.5t-26.5 -29.5l-29 15q37 60 86 60q22 0 60 -22t58 -22q27 0 56 43l29 -15q-32 -66 -82 -66q-31 0 -68.5 22t-52.5 22zM338 532q71 0 107 -41.5t36 -118.5v-575l-46 8v561q0 128 -104 128q-95 0 -172 -113v-381h-46v355q0 89 -23 168l42 6
q17 -45 23 -104q72 107 183 107z" />
    <glyph glyph-name="uni1FC8" unicode="&#x1fc8;" horiz-adv-x="504" 
d="M384 788l-13 -29l-192 77l22 44zM448 643h-286v-266h247v-41h-247v-295h298v-41h-345v684h339z" />
    <glyph glyph-name="uni1FC9" unicode="&#x1fc9;" horiz-adv-x="504" 
d="M396 836l-192 -77l-13 29l183 92zM448 643h-286v-266h247v-41h-247v-295h298v-41h-345v684h339z" />
    <glyph glyph-name="uni1FCA" unicode="&#x1fca;" horiz-adv-x="667" 
d="M428 788l-13 -29l-192 77l22 44zM504 339h-342v-339h-47v684h47v-303h342v303h48v-684h-48v339z" />
    <glyph glyph-name="uni1FCB" unicode="&#x1fcb;" horiz-adv-x="667" 
d="M439 836l-192 -77l-13 29l183 92zM504 339h-342v-339h-47v684h47v-303h342v303h48v-684h-48v339z" />
    <glyph glyph-name="uni1FD0" unicode="&#x1fd0;" horiz-adv-x="259" 
d="M128 656q-49 0 -82.5 28t-40.5 75l32 7q20 -70 91 -70t91 70l32 -7q-7 -46 -40.5 -74.5t-82.5 -28.5zM151 118q0 -40 10.5 -58.5t36.5 -29.5l-14 -37q-44 13 -61.5 40.5t-17.5 81.5v407h46v-404z" />
    <glyph glyph-name="uni1FD1" unicode="&#x1fd1;" horiz-adv-x="259" 
d="M13 679v39h229v-39h-229zM151 118q0 -40 10.5 -58.5t36.5 -29.5l-14 -37q-44 13 -61.5 40.5t-17.5 81.5v407h46v-404z" />
    <glyph glyph-name="uni1FD2" unicode="&#x1fd2;" horiz-adv-x="259" 
d="M234 789l-16 -28l-189 84l21 44zM36 715q15 0 24.5 -9.5t9.5 -23.5t-9.5 -24t-24.5 -10q-14 0 -23.5 10t-9.5 24t9.5 23.5t23.5 9.5zM218 715q15 0 24.5 -9.5t9.5 -23.5t-9.5 -24t-24.5 -10t-24.5 10t-9.5 24t9.5 23.5t24.5 9.5zM151 118q0 -40 10.5 -58.5t36.5 -29.5
l-14 -37q-44 13 -61.5 40.5t-17.5 81.5v407h46v-404z" />
    <glyph glyph-name="uni1FD3" unicode="&#x1fd3;" horiz-adv-x="259" 
d="M226 845l-190 -84l-15 28l184 100zM36 715q15 0 24.5 -9.5t9.5 -23.5t-9.5 -24t-24.5 -10q-14 0 -23.5 10t-9.5 24t9.5 23.5t23.5 9.5zM218 715q15 0 24.5 -9.5t9.5 -23.5t-9.5 -24t-24.5 -10t-24.5 10t-9.5 24t9.5 23.5t24.5 9.5zM151 118q0 -40 10.5 -58.5t36.5 -29.5
l-14 -37q-44 13 -61.5 40.5t-17.5 81.5v407h46v-404z" />
    <glyph glyph-name="uni1FD6" unicode="&#x1fd6;" horiz-adv-x="259" 
d="M190 670q-31 0 -68.5 22t-52.5 22q-20 0 -30.5 -7.5t-26.5 -29.5l-29 15q37 60 86 60q22 0 60 -22t58 -22q27 0 56 43l29 -15q-32 -66 -82 -66zM151 118q0 -40 10.5 -58.5t36.5 -29.5l-14 -37q-44 13 -61.5 40.5t-17.5 81.5v407h46v-404z" />
    <glyph glyph-name="uni1FD7" unicode="&#x1fd7;" horiz-adv-x="259" 
d="M190 790q-31 0 -68.5 22t-52.5 22q-20 0 -30.5 -7.5t-26.5 -29.5l-29 15q37 60 86 60q22 0 60 -22t58 -22q27 0 56 43l29 -15q-32 -66 -82 -66zM37 732q15 0 24.5 -9.5t9.5 -23.5t-9.5 -23.5t-24.5 -9.5t-24.5 9.5t-9.5 23.5t9.5 23.5t24.5 9.5zM219 732q14 0 23.5 -9.5
t9.5 -23.5t-9.5 -23.5t-23.5 -9.5q-15 0 -24.5 9.5t-9.5 23.5t9.5 23.5t24.5 9.5zM151 118q0 -40 10.5 -58.5t36.5 -29.5l-14 -37q-44 13 -61.5 40.5t-17.5 81.5v407h46v-404z" />
    <glyph glyph-name="uni1FD8" unicode="&#x1fd8;" horiz-adv-x="277" 
d="M138 767q-48 0 -82 26.5t-41 65.5l32 8q22 -61 91 -61t91 61l32 -8q-7 -39 -41 -65.5t-82 -26.5zM163 0h-48v684h48v-684z" />
    <glyph glyph-name="uni1FD9" unicode="&#x1fd9;" horiz-adv-x="277" 
d="M24 803v39h229v-39h-229zM163 0h-48v684h48v-684z" />
    <glyph glyph-name="uni1FDA" unicode="&#x1fda;" horiz-adv-x="277" 
d="M234 788l-13 -29l-192 77l22 44zM163 0h-48v684h48v-684z" />
    <glyph glyph-name="uni1FDB" unicode="&#x1fdb;" horiz-adv-x="277" 
d="M245 836l-192 -77l-13 29l183 92zM163 0h-48v684h48v-684z" />
    <glyph glyph-name="uni1FE0" unicode="&#x1fe0;" horiz-adv-x="561" 
d="M279 656q-49 0 -82.5 28t-40.5 75l32 7q20 -70 91 -70t91 70l32 -7q-7 -46 -40.5 -74.5t-82.5 -28.5zM451 522q26 -158 26 -260q0 -135 -59 -204t-148 -69q-73 0 -119 43.5t-46 125.5v364h46v-361q0 -67 33 -99.5t88 -32.5q66 0 112 55.5t46 179.5q0 106 -26 258h47z" />
    <glyph glyph-name="uni1FE1" unicode="&#x1fe1;" horiz-adv-x="561" 
d="M165 679v39h229v-39h-229zM451 522q26 -158 26 -260q0 -135 -59 -204t-148 -69q-73 0 -119 43.5t-46 125.5v364h46v-361q0 -67 33 -99.5t88 -32.5q66 0 112 55.5t46 179.5q0 106 -26 258h47z" />
    <glyph glyph-name="uni1FE2" unicode="&#x1fe2;" horiz-adv-x="561" 
d="M386 789l-16 -28l-189 84l21 44zM188 715q15 0 24.5 -9.5t9.5 -23.5t-9.5 -24t-24.5 -10q-14 0 -23.5 10t-9.5 24t9.5 23.5t23.5 9.5zM370 715q15 0 24.5 -9.5t9.5 -23.5t-9.5 -24t-24.5 -10t-24.5 10t-9.5 24t9.5 23.5t24.5 9.5zM451 522q26 -158 26 -260
q0 -135 -59 -204t-148 -69q-73 0 -119 43.5t-46 125.5v364h46v-361q0 -67 33 -99.5t88 -32.5q66 0 112 55.5t46 179.5q0 106 -26 258h47z" />
    <glyph glyph-name="uni1FE3" unicode="&#x1fe3;" horiz-adv-x="561" 
d="M378 845l-190 -84l-15 28l184 100zM188 715q15 0 24.5 -9.5t9.5 -23.5t-9.5 -24t-24.5 -10q-14 0 -23.5 10t-9.5 24t9.5 23.5t23.5 9.5zM370 715q15 0 24.5 -9.5t9.5 -23.5t-9.5 -24t-24.5 -10t-24.5 10t-9.5 24t9.5 23.5t24.5 9.5zM451 522q26 -158 26 -260
q0 -135 -59 -204t-148 -69q-73 0 -119 43.5t-46 125.5v364h46v-361q0 -67 33 -99.5t88 -32.5q66 0 112 55.5t46 179.5q0 106 -26 258h47z" />
    <glyph glyph-name="uni1FE6" unicode="&#x1fe6;" horiz-adv-x="561" 
d="M342 670q-31 0 -68.5 22t-52.5 22q-20 0 -30.5 -7.5t-26.5 -29.5l-29 15q37 60 86 60q22 0 60 -22t58 -22q27 0 56 43l29 -15q-32 -66 -82 -66zM451 522q26 -158 26 -260q0 -135 -59 -204t-148 -69q-73 0 -119 43.5t-46 125.5v364h46v-361q0 -67 33 -99.5t88 -32.5
q66 0 112 55.5t46 179.5q0 106 -26 258h47z" />
    <glyph glyph-name="uni1FE7" unicode="&#x1fe7;" horiz-adv-x="561" 
d="M342 790q-31 0 -68.5 22t-52.5 22q-20 0 -30.5 -7.5t-26.5 -29.5l-29 15q37 60 86 60q22 0 60 -22t58 -22q27 0 56 43l29 -15q-32 -66 -82 -66zM188 732q15 0 24.5 -9.5t9.5 -23.5t-9.5 -23.5t-24.5 -9.5t-24.5 9.5t-9.5 23.5t9.5 23.5t24.5 9.5zM370 732q14 0 23.5 -9.5
t9.5 -23.5t-9.5 -23.5t-23.5 -9.5q-15 0 -24.5 9.5t-9.5 23.5t9.5 23.5t24.5 9.5zM451 522q26 -158 26 -260q0 -135 -59 -204t-148 -69q-73 0 -119 43.5t-46 125.5v364h46v-361q0 -67 33 -99.5t88 -32.5q66 0 112 55.5t46 179.5q0 106 -26 258h47z" />
    <glyph glyph-name="uni1FE8" unicode="&#x1fe8;" horiz-adv-x="513" 
d="M254 767q-48 0 -82 26.5t-41 65.5l32 8q22 -61 91 -61t91 61l32 -8q-7 -39 -41 -65.5t-82 -26.5zM281 269v-269h-47v268l-218 416h53l190 -374l186 374h52z" />
    <glyph glyph-name="uni1FE9" unicode="&#x1fe9;" horiz-adv-x="513" 
d="M140 803v39h229v-39h-229zM281 269v-269h-47v268l-218 416h53l190 -374l186 374h52z" />
    <glyph glyph-name="uni1FEA" unicode="&#x1fea;" horiz-adv-x="513" 
d="M350 788l-13 -29l-192 77l22 44zM281 269v-269h-47v268l-218 416h53l190 -374l186 374h52z" />
    <glyph glyph-name="uni1FEB" unicode="&#x1feb;" horiz-adv-x="513" 
d="M361 836l-192 -77l-13 29l183 92zM281 269v-269h-47v268l-218 416h53l190 -374l186 374h52z" />
    <glyph glyph-name="uni1FF6" unicode="&#x1ff6;" horiz-adv-x="772" 
d="M451 670q-31 0 -68.5 22t-52.5 22q-20 0 -30.5 -7.5t-26.5 -29.5l-29 15q37 60 86 60q22 0 60 -22t58 -22q27 0 56 43l29 -15q-32 -66 -82 -66zM637 522q55 -136 55 -286q0 -132 -49 -189.5t-123 -57.5q-55 0 -91 31t-43 94q-20 -125 -137 -125q-78 0 -123.5 61
t-45.5 188q0 138 57 284h47q-57 -146 -57 -283q0 -210 125 -210q111 0 111 150v173l46 7v-181q0 -149 107 -149q129 0 129 206q0 151 -55 287h47z" />
    <glyph glyph-name="uni1FF8" unicode="&#x1ff8;" horiz-adv-x="691" 
d="M431 788l-13 -29l-192 77l22 44zM345 694q126 0 201 -92t75 -261q0 -166 -74.5 -259t-201.5 -93q-125 0 -200 92t-75 259q0 166 75.5 260t199.5 94zM345 653q-104 0 -164.5 -79.5t-60.5 -233.5q0 -151 61 -230t164 -79q107 0 166.5 78.5t59.5 231.5q0 154 -60 233
t-166 79z" />
    <glyph glyph-name="uni1FF9" unicode="&#x1ff9;" horiz-adv-x="691" 
d="M442 836l-192 -77l-13 29l183 92zM345 694q126 0 201 -92t75 -261q0 -166 -74.5 -259t-201.5 -93q-125 0 -200 92t-75 259q0 166 75.5 260t199.5 94zM345 653q-104 0 -164.5 -79.5t-60.5 -233.5q0 -151 61 -230t164 -79q107 0 166.5 78.5t59.5 231.5q0 154 -60 233
t-166 79z" />
    <glyph glyph-name="uni1FFA" unicode="&#x1ffa;" horiz-adv-x="691" 
d="M441 788l-13 -29l-192 77l22 44zM345 694q126 0 201 -91t75 -259q0 -121 -37 -192.5t-111 -108.5h126v-43h-193v42q165 61 165 302q0 152 -60 230.5t-166 78.5q-104 0 -164.5 -79t-60.5 -231q0 -123 41 -194.5t123 -106.5v-42h-192v43h124q-75 40 -110.5 110.5
t-35.5 189.5q0 164 75.5 257.5t199.5 93.5z" />
    <glyph glyph-name="uni1FFB" unicode="&#x1ffb;" horiz-adv-x="691" 
d="M452 836l-192 -77l-13 29l183 92zM345 694q126 0 201 -91t75 -259q0 -121 -37 -192.5t-111 -108.5h126v-43h-193v42q165 61 165 302q0 152 -60 230.5t-166 78.5q-104 0 -164.5 -79t-60.5 -231q0 -123 41 -194.5t123 -106.5v-42h-192v43h124q-75 40 -110.5 110.5
t-35.5 189.5q0 164 75.5 257.5t199.5 93.5z" />
    <glyph glyph-name="uni2007" unicode="&#x2007;" 
 />
    <glyph glyph-name="uni2008" unicode="&#x2008;" horiz-adv-x="705" 
 />
    <glyph glyph-name="zerowidthspace" unicode="&#x200b;" horiz-adv-x="0" 
 />
    <glyph glyph-name="uni200C" unicode="&#x200c;" horiz-adv-x="0" 
d="M8 -150h-16v900h16v-900z" />
    <glyph glyph-name="uni200D" unicode="&#x200d;" horiz-adv-x="0" 
d="M65 804l-54 -54l57 -57l-11 -11l-49 49v-881h-16v881l-49 -49l-11 11l57 57l-54 54l11 11l54 -54l54 54z" />
    <glyph glyph-name="uni200E" unicode="&#x200e;" horiz-adv-x="0" 
d="M128 750l-55 -72l-13 9l43 55h-95v-892h-16v908h111l-43 55l13 9z" />
    <glyph glyph-name="uni200F" unicode="&#x200f;" horiz-adv-x="0" 
d="M-60 813l-43 -55h111v-908h-16v892h-95l43 -55l-13 -9l-55 72l55 72z" />
    <glyph glyph-name="figuredash" unicode="&#x2012;" 
d="M38 353h484v-40h-484v40z" />
    <glyph glyph-name="endash" unicode="&#x2013;" horiz-adv-x="520" 
d="M42 333h436v-40h-436v40z" />
    <glyph glyph-name="emdash" unicode="&#x2014;" horiz-adv-x="780" 
d="M42 333h696v-40h-696v40z" />
    <glyph glyph-name="uni2015" unicode="&#x2015;" horiz-adv-x="520" 
d="M42 333h436v-40h-436v40z" />
    <glyph glyph-name="quoteleft" unicode="&#x2018;" horiz-adv-x="215" 
d="M105 540q-18 0 -28.5 11t-10.5 27t13 42l52 117h32l-37 -127q18 -11 18 -32q0 -16 -10.5 -27t-28.5 -11z" />
    <glyph glyph-name="quoteright" unicode="&#x2019;" horiz-adv-x="215" 
d="M109 737q18 0 28.5 -10.5t10.5 -26.5t-12 -42l-53 -118h-32l37 128q-18 11 -18 32q0 16 10.5 26.5t28.5 10.5z" />
    <glyph glyph-name="quotesinglbase" unicode="&#x201a;" horiz-adv-x="215" 
d="M109 64q18 0 28.5 -11t10.5 -27q0 -15 -12 -41l-53 -118h-32l37 128q-18 11 -18 31q0 16 10.5 27t28.5 11z" />
    <glyph glyph-name="quotedblleft" unicode="&#x201c;" horiz-adv-x="359" 
d="M91 540q-18 0 -29 11t-11 27q0 12 13 41l53 118h32l-37 -128q18 -11 18 -31q0 -16 -11 -27t-28 -11zM234 540q-18 0 -28.5 11t-10.5 27q0 15 12 41l53 118h32l-37 -128q18 -11 18 -31q0 -16 -10.5 -27t-28.5 -11z" />
    <glyph glyph-name="quotedblright" unicode="&#x201d;" horiz-adv-x="359" 
d="M109 737q18 0 28.5 -11t10.5 -27q0 -15 -12 -41l-53 -118h-32l37 128q-18 11 -18 31q0 16 10.5 27t28.5 11zM252 737q18 0 29 -11t11 -27q0 -12 -13 -41l-53 -118h-32l37 128q-18 11 -18 31q0 16 11 27t28 11z" />
    <glyph glyph-name="quotedblbase" unicode="&#x201e;" horiz-adv-x="359" 
d="M109 64q18 0 28.5 -11t10.5 -27q0 -15 -12 -41l-53 -118h-32l37 128q-18 11 -18 31q0 16 10.5 27t28.5 11zM252 64q18 0 29 -11t11 -27q0 -12 -13 -41l-53 -118h-32l37 128q-18 11 -18 31q0 16 11 27t28 11z" />
    <glyph glyph-name="dagger" unicode="&#x2020;" horiz-adv-x="505" 
d="M275 508h176v-41h-176v-467h-45v467h-176v41h176v156h45v-156z" />
    <glyph glyph-name="daggerdbl" unicode="&#x2021;" horiz-adv-x="509" 
d="M455 179h-178v-179h-46v179h-177v40h177v248h-176v41h176v156h46v-156h175v-41h-175v-248h178v-40z" />
    <glyph glyph-name="bullet" unicode="&#x2022;" horiz-adv-x="274" 
d="M137 408q27 0 44 -17.5t17 -43.5t-17 -43t-44 -17t-44 17.5t-17 42.5q0 26 17 43.5t44 17.5z" />
    <glyph glyph-name="ellipsis" unicode="&#x2026;" horiz-adv-x="591" 
d="M97 69q18 0 29.5 -11.5t11.5 -28.5t-11.5 -28.5t-29.5 -11.5q-17 0 -28.5 11.5t-11.5 28.5t11.5 28.5t28.5 11.5zM295 69q18 0 29.5 -11.5t11.5 -28.5t-11.5 -28.5t-29.5 -11.5q-17 0 -28.5 11.5t-11.5 28.5t11.5 28.5t28.5 11.5zM493 69q18 0 29 -11.5t11 -28.5
t-11 -28.5t-29 -11.5q-17 0 -28.5 11.5t-11.5 28.5t11.5 28.5t28.5 11.5z" />
    <glyph glyph-name="perthousand" unicode="&#x2030;" horiz-adv-x="1127" 
d="M644 678l-463 -699l-35 22l463 700zM201 675q65 0 105 -43.5t40 -115.5q0 -74 -39 -118t-106 -44q-65 0 -105 43.5t-40 116.5t39.5 117t105.5 44zM201 640q-52 0 -76.5 -35t-24.5 -91q0 -54 25 -89t76 -35q52 0 76.5 35t24.5 91q0 54 -25 89t-76 35zM580 310
q65 0 105 -43.5t40 -115.5q0 -74 -39 -118t-106 -44q-64 0 -104.5 44t-40.5 116q0 73 39.5 117t105.5 44zM926 310q65 0 105 -43.5t40 -115.5q0 -74 -39 -118t-106 -44q-65 0 -105 44t-40 116q0 74 39 117.5t106 43.5zM580 275q-51 0 -76 -35.5t-25 -90.5q0 -54 25 -89
t76 -35q52 0 76.5 35t24.5 91q0 54 -24.5 89t-76.5 35zM926 275q-52 0 -76.5 -35t-24.5 -91q0 -54 25 -89t76 -35q52 0 76.5 35t24.5 91q0 54 -25 89t-76 35z" />
    <glyph glyph-name="guilsinglleft" unicode="&#x2039;" horiz-adv-x="343" 
d="M266 495l-138 -207l138 -207l-29 -19l-160 210v31l160 211z" />
    <glyph glyph-name="guilsinglright" unicode="&#x203a;" horiz-adv-x="343" 
d="M266 303v-31l-160 -210l-29 19l138 207l-138 207l29 19z" />
    <glyph glyph-name="fraction" unicode="&#x2044;" horiz-adv-x="108" 
d="M275 730l-408 -798l-34 16l408 798z" />
    <glyph glyph-name="zerosuperior" unicode="&#x2070;" horiz-adv-x="400" 
d="M200 743q65 0 100.5 -54.5t35.5 -160.5q0 -104 -35.5 -158.5t-100.5 -54.5t-101 55t-36 160q0 104 36 158.5t101 54.5zM200 708q-94 0 -94 -178q0 -179 94 -179q93 0 93 177q0 180 -93 180z" />
    <glyph glyph-name="foursuperior" unicode="&#x2074;" horiz-adv-x="400" 
d="M343 429h-57v-106h-41v106h-189v31l130 283l36 -14l-122 -265h145l5 119h36v-119h57v-35z" />
    <glyph glyph-name="fivesuperior" unicode="&#x2075;" horiz-adv-x="400" 
d="M312 701h-174v-133q32 19 71 19q57 0 90.5 -35t33.5 -95q0 -63 -38.5 -102.5t-102.5 -39.5q-72 0 -126 52l28 24q42 -40 99 -40q43 0 70 28.5t27 77.5q0 48 -24.5 72t-64.5 24q-36 0 -73 -20h-31v203h222z" />
    <glyph glyph-name="sixsuperior" unicode="&#x2076;" horiz-adv-x="400" 
d="M219 593q49 0 81.5 -33.5t32.5 -97.5q0 -67 -36.5 -107t-91.5 -40q-73 0 -106 52.5t-33 138.5q0 113 42.5 175t115.5 62q45 0 82 -24l-17 -29q-34 19 -65 19q-52 0 -81.5 -47t-33.5 -129q43 60 110 60zM205 350q41 0 63.5 31.5t22.5 79.5q0 49 -21.5 73t-56.5 24
q-64 0 -104 -64q5 -144 96 -144z" />
    <glyph glyph-name="sevensuperior" unicode="&#x2077;" horiz-adv-x="400" 
d="M322 704l-170 -386l-39 13l164 369h-200v36h245v-32z" />
    <glyph glyph-name="eightsuperior" unicode="&#x2078;" horiz-adv-x="400" 
d="M243 543q52 -20 75.5 -45.5t23.5 -66.5q0 -53 -40 -84.5t-104 -31.5t-102 31.5t-38 81.5q0 83 93 116q-38 18 -56 39t-18 56q0 48 36 76t87 28t86.5 -27t35.5 -76q0 -60 -79 -97zM118 641q0 -30 15.5 -46.5t58.5 -31.5l20 -8q69 32 69 84q0 34 -22.5 52.5t-58.5 18.5
t-59 -18t-23 -51zM199 350q45 0 72.5 20t27.5 61q0 34 -19 53t-67 36l-26 9q-47 -15 -67 -38.5t-20 -61.5q0 -40 27 -59.5t72 -19.5z" />
    <glyph glyph-name="ninesuperior" unicode="&#x2079;" horiz-adv-x="400" 
d="M200 743q67 0 100.5 -43.5t33.5 -123.5q0 -79 -27 -132t-72.5 -82.5t-121.5 -52.5l-11 32q89 26 135.5 70t53.5 121q-42 -57 -106 -57q-51 0 -85 36t-34 95q0 63 37.5 100t96.5 37zM193 509q53 0 99 62q-2 71 -23 104.5t-68 33.5q-43 0 -67.5 -26.5t-24.5 -76.5
q0 -47 22 -72t62 -25z" />
    <glyph glyph-name="plussuperior" unicode="&#x207a;" horiz-adv-x="400" 
d="M220 535h97v-35h-97v-93h-39v93h-97v35h97v94h39v-94z" />
    <glyph glyph-name="uni207B" unicode="&#x207b;" horiz-adv-x="400" 
d="M84 535h232v-35h-232v35z" />
    <glyph glyph-name="equalsuperior" unicode="&#x207c;" horiz-adv-x="400" 
d="M84 587h232v-35h-232v35zM84 487h232v-35h-232v35z" />
    <glyph glyph-name="parenleftsuperior" unicode="&#x207d;" horiz-adv-x="400" 
d="M270 763q-33 -50 -50 -82.5t-31.5 -88t-14.5 -121.5t14.5 -121.5t31.5 -88t50 -82.5l-28 -19q-38 54 -57 86.5t-37 93.5t-18 131t18 131t37 93.5t57 86.5z" />
    <glyph glyph-name="parenrightsuperior" unicode="&#x207e;" horiz-adv-x="400" 
d="M158 782q38 -54 57 -86.5t37 -93.5t18 -131t-18 -131t-37 -93.5t-57 -86.5l-28 19q33 50 50 82.5t31.5 88t14.5 121.5t-14.5 121.5t-31.5 88t-50 82.5z" />
    <glyph glyph-name="zeroinferior" unicode="&#x2080;" horiz-adv-x="400" 
d="M200 225q65 0 100.5 -54.5t35.5 -160.5q0 -104 -35.5 -158.5t-100.5 -54.5t-101 55t-36 160q0 104 36 158.5t101 54.5zM200 190q-94 0 -94 -178q0 -179 94 -179q93 0 93 177q0 180 -93 180z" />
    <glyph glyph-name="oneinferior" unicode="&#x2081;" horiz-adv-x="400" 
d="M252 -195h-41v366l-105 -61l-19 30l131 78h34v-413z" />
    <glyph glyph-name="twoinferior" unicode="&#x2082;" horiz-adv-x="400" 
d="M197 223q56 0 88.5 -31t32.5 -79q0 -57 -36.5 -106.5t-153.5 -164.5h202l-7 -37h-245v35q125 125 160.5 173t35.5 97q0 37 -21 57t-58 20q-56 0 -95 -45l-30 21q51 60 127 60z" />
    <glyph glyph-name="threeinferior" unicode="&#x2083;" horiz-adv-x="400" 
d="M200 225q55 0 88 -28.5t33 -74.5q0 -40 -23.5 -65.5t-61.5 -31.5q42 -2 69 -29.5t27 -74.5q0 -55 -38 -89.5t-102 -34.5q-75 0 -125 55l26 23q42 -42 97 -42q48 0 73.5 24t25.5 64q0 84 -95 84h-28l5 34h20q36 0 62 20t26 59q0 34 -22 53t-59 19q-52 0 -97 -38l-23 26
q55 47 122 47z" />
    <glyph glyph-name="fourinferior" unicode="&#x2084;" horiz-adv-x="400" 
d="M343 -89h-57v-106h-41v106h-189v31l130 283l36 -14l-122 -265h145l5 119h36v-119h57v-35z" />
    <glyph glyph-name="fiveinferior" unicode="&#x2085;" horiz-adv-x="400" 
d="M312 183h-174v-133q32 19 71 19q57 0 90.5 -35t33.5 -95q0 -63 -38.5 -102.5t-102.5 -39.5q-72 0 -126 52l28 24q42 -40 99 -40q43 0 70 28.5t27 77.5q0 48 -24.5 72t-64.5 24q-36 0 -73 -20h-31v203h222z" />
    <glyph glyph-name="sixinferior" unicode="&#x2086;" horiz-adv-x="400" 
d="M219 75q49 0 81.5 -33.5t32.5 -97.5q0 -67 -36.5 -107t-91.5 -40q-73 0 -106 52.5t-33 138.5q0 113 42.5 175t115.5 62q45 0 82 -24l-17 -29q-34 19 -65 19q-52 0 -81.5 -47t-33.5 -129q43 60 110 60zM205 -168q41 0 63.5 31.5t22.5 79.5q0 49 -21.5 73t-56.5 24
q-64 0 -104 -64q5 -144 96 -144z" />
    <glyph glyph-name="seveninferior" unicode="&#x2087;" horiz-adv-x="400" 
d="M322 186l-170 -386l-39 13l164 369h-200v36h245v-32z" />
    <glyph glyph-name="eightinferior" unicode="&#x2088;" horiz-adv-x="400" 
d="M243 25q52 -20 75.5 -45.5t23.5 -66.5q0 -53 -40 -84.5t-104 -31.5t-102 31.5t-38 81.5q0 83 93 116q-38 18 -56 39t-18 56q0 48 36 76t87 28t86.5 -27t35.5 -76q0 -60 -79 -97zM118 123q0 -30 15.5 -46.5t58.5 -31.5l20 -8q69 32 69 84q0 34 -22.5 52.5t-58.5 18.5
t-59 -18t-23 -51zM199 -168q45 0 72.5 20t27.5 61q0 34 -19 53t-67 36l-26 9q-47 -15 -67 -38.5t-20 -61.5q0 -40 27 -59.5t72 -19.5z" />
    <glyph glyph-name="nineinferior" unicode="&#x2089;" horiz-adv-x="400" 
d="M200 225q67 0 100.5 -43.5t33.5 -123.5q0 -79 -27 -132t-72.5 -82.5t-121.5 -52.5l-11 32q89 26 135.5 70t53.5 121q-42 -57 -106 -57q-51 0 -85 36t-34 95q0 63 37.5 100t96.5 37zM193 -9q53 0 99 62q-2 71 -23 104.5t-68 33.5q-43 0 -67.5 -26.5t-24.5 -76.5
q0 -47 22 -72t62 -25z" />
    <glyph glyph-name="uni208A" unicode="&#x208a;" horiz-adv-x="400" 
d="M220 13h97v-35h-97v-93h-39v93h-97v35h97v94h39v-94z" />
    <glyph glyph-name="uni208B" unicode="&#x208b;" horiz-adv-x="400" 
d="M84 13h232v-35h-232v35z" />
    <glyph glyph-name="uni208C" unicode="&#x208c;" horiz-adv-x="400" 
d="M84 65h232v-35h-232v35zM84 -35h232v-35h-232v35z" />
    <glyph glyph-name="uni208D" unicode="&#x208d;" horiz-adv-x="400" 
d="M270 279q-33 -50 -50 -82.5t-31.5 -88t-14.5 -121.5t14.5 -121.5t31.5 -88t50 -82.5l-28 -19q-38 54 -57 86.5t-37 93.5t-18 131t18 131t37 93.5t57 86.5z" />
    <glyph glyph-name="uni208E" unicode="&#x208e;" horiz-adv-x="400" 
d="M158 298q38 -54 57 -86.5t37 -93.5t18 -131t-18 -131t-37 -93.5t-57 -86.5l-28 19q33 50 50 82.5t31.5 88t14.5 121.5t-14.5 121.5t-31.5 88t-50 82.5z" />
    <glyph glyph-name="Euro" unicode="&#x20ac;" horiz-adv-x="570" 
d="M366 634q-74 0 -125 -52.5t-71 -154.5h278l-9 -37h-272v-108h252l-8 -36h-242q26 -215 198 -215q67 0 139 43v-45q-70 -40 -145 -40q-99 0 -161.5 66t-78.5 191h-81l9 36h70v108h-79l9 37h73q22 118 86.5 183t156.5 65q86 0 165 -53l-20 -35q-72 47 -144 47z" />
    <glyph glyph-name="uni2116" unicode="&#x2116;" horiz-adv-x="1103" 
d="M842 694q83 0 133.5 -57.5t50.5 -157.5q0 -99 -50.5 -157t-133.5 -58t-134 58t-51 157t51 157t134 58zM554 0h-61l-339 631q6 -88 6 -224v-407h-45v684h61l339 -631q-6 99 -6 200v431h45v-684zM842 657q-65 0 -102 -44.5t-37 -133.5q0 -88 38 -132.5t101 -44.5
q64 0 101 44.5t37 132.5t-37.5 133t-100.5 45zM668 41h347v-41h-347v41z" />
    <glyph glyph-name="trademark" unicode="&#x2122;" horiz-adv-x="859" 
d="M340 648h-126v-348h-41v348h-131v36h305zM767 300h-40l-11 192q-4 91 -2 147h-1l-116 -295h-38l-119 300h-1q1 -67 -3 -152l-9 -192h-40l20 384h54l117 -301l118 301h51z" />
    <glyph glyph-name="Ohm" unicode="&#x2126;" horiz-adv-x="691" 
d="M345 694q126 0 201 -91t75 -259q0 -121 -37 -192.5t-111 -108.5h126v-43h-193v42q165 61 165 302q0 152 -60 230.5t-166 78.5q-104 0 -164.5 -79t-60.5 -231q0 -123 41 -194.5t123 -106.5v-42h-192v43h124q-75 40 -110.5 110.5t-35.5 189.5q0 164 75.5 257.5t199.5 93.5z
" />
    <glyph glyph-name="estimated" unicode="&#x212e;" horiz-adv-x="945" 
d="M218 121q30 -45 104.5 -71t150.5 -26q75 0 147.5 25.5t112.5 72.5h58q-118 -137 -319 -137q-172 0 -287 102.5t-115 259.5q0 156 117.5 262t284.5 106q165 0 284 -106.5t119 -269.5h-657v-218zM727 574q-94 102 -254 102q-172 0 -255 -101v-196h509v195z" />
    <glyph glyph-name="uni2153" unicode="&#x2153;" horiz-adv-x="908" 
d="M675 730l-408 -798l-34 16l408 798zM252 271h-41v366l-105 -61l-19 30l131 78h34v-413zM708 420q55 0 88 -28.5t33 -74.5q0 -40 -23.5 -65.5t-61.5 -31.5q42 -2 69 -29t27 -75q0 -55 -38 -89.5t-102 -34.5q-75 0 -125 55l26 23q42 -42 97 -42q48 0 73.5 24t25.5 64
q0 84 -95 84h-28l5 34h20q36 0 62 20t26 59q0 34 -22 53t-59 19q-52 0 -97 -38l-23 26q55 47 122 47z" />
    <glyph glyph-name="uni2154" unicode="&#x2154;" horiz-adv-x="908" 
d="M675 730l-408 -798l-34 16l408 798zM197 689q56 0 88.5 -31t32.5 -79q0 -57 -36.5 -106.5t-153.5 -164.5h202l-7 -37h-245v35q125 125 160.5 173t35.5 97q0 37 -21 57t-58 20q-56 0 -95 -45l-30 21q51 60 127 60zM708 420q55 0 88 -28.5t33 -74.5q0 -40 -23.5 -65.5
t-61.5 -31.5q42 -2 69 -29t27 -75q0 -55 -38 -89.5t-102 -34.5q-75 0 -125 55l26 23q42 -42 97 -42q48 0 73.5 24t25.5 64q0 84 -95 84h-28l5 34h20q36 0 62 20t26 59q0 34 -22 53t-59 19q-52 0 -97 -38l-23 26q55 47 122 47z" />
    <glyph glyph-name="uni2155" unicode="&#x2155;" horiz-adv-x="908" 
d="M675 730l-408 -798l-34 16l408 798zM252 271h-41v366l-105 -61l-19 30l131 78h34v-413zM820 378h-174v-133q32 19 71 19q57 0 90.5 -35t33.5 -95q0 -63 -38.5 -102.5t-102.5 -39.5q-72 0 -126 52l28 24q42 -40 99 -40q43 0 70 28.5t27 77.5q0 48 -24.5 72t-64.5 24
q-36 0 -73 -20h-31v203h222z" />
    <glyph glyph-name="uni2156" unicode="&#x2156;" horiz-adv-x="908" 
d="M675 730l-408 -798l-34 16l408 798zM197 689q56 0 88.5 -31t32.5 -79q0 -57 -36.5 -106.5t-153.5 -164.5h202l-7 -37h-245v35q125 125 160.5 173t35.5 97q0 37 -21 57t-58 20q-56 0 -95 -45l-30 21q51 60 127 60zM820 378h-174v-133q32 19 71 19q57 0 90.5 -35t33.5 -95
q0 -63 -38.5 -102.5t-102.5 -39.5q-72 0 -126 52l28 24q42 -40 99 -40q43 0 70 28.5t27 77.5q0 48 -24.5 72t-64.5 24q-36 0 -73 -20h-31v203h222z" />
    <glyph glyph-name="uni2157" unicode="&#x2157;" horiz-adv-x="908" 
d="M675 730l-408 -798l-34 16l408 798zM200 691q55 0 88 -28.5t33 -74.5q0 -40 -23.5 -65.5t-61.5 -31.5q42 -2 69 -29.5t27 -74.5q0 -55 -38 -89.5t-102 -34.5q-75 0 -125 55l26 23q42 -42 97 -42q48 0 73.5 24t25.5 64q0 84 -95 84h-28l5 34h20q36 0 62 20t26 59
q0 34 -22 53t-59 19q-52 0 -97 -38l-23 26q55 47 122 47zM820 378h-174v-133q32 19 71 19q57 0 90.5 -35t33.5 -95q0 -63 -38.5 -102.5t-102.5 -39.5q-72 0 -126 52l28 24q42 -40 99 -40q43 0 70 28.5t27 77.5q0 48 -24.5 72t-64.5 24q-36 0 -73 -20h-31v203h222z" />
    <glyph glyph-name="uni2158" unicode="&#x2158;" horiz-adv-x="908" 
d="M675 730l-408 -798l-34 16l408 798zM245 377h-189v31l130 283l36 -14l-122 -265h145l5 119h36v-119h57v-35h-57v-106h-41v106zM717 264q57 0 90.5 -35t33.5 -95q0 -63 -38.5 -102.5t-102.5 -39.5q-72 0 -126 52l28 24q42 -40 99 -40q43 0 70 28.5t27 77.5q0 48 -24.5 72
t-64.5 24q-36 0 -73 -20h-31v203h222l-7 -35h-174v-133q32 19 71 19z" />
    <glyph glyph-name="uni2159" unicode="&#x2159;" horiz-adv-x="908" 
d="M675 730l-408 -798l-34 16l408 798zM211 271v366l-105 -61l-19 30l131 78h34v-413h-41zM727 270q49 0 81.5 -33.5t32.5 -97.5q0 -67 -36.5 -107t-91.5 -40q-73 0 -106 52.5t-33 138.5q0 113 42.5 175t115.5 62q45 0 82 -24l-17 -29q-34 19 -65 19q-52 0 -81.5 -47
t-33.5 -129q43 60 110 60zM713 27q41 0 63.5 31.5t22.5 79.5q0 49 -21.5 73t-56.5 24q-64 0 -104 -64q5 -144 96 -144z" />
    <glyph glyph-name="uni215A" unicode="&#x215a;" horiz-adv-x="908" 
d="M675 730l-408 -798l-34 16l408 798zM333 405q0 -63 -38.5 -102.5t-102.5 -39.5q-72 0 -126 52l28 24q42 -40 99 -40q43 0 70 28.5t27 77.5q0 48 -24.5 72t-64.5 24q-36 0 -73 -20h-31v203h222l-7 -35h-174v-133q32 19 71 19q57 0 90.5 -35t33.5 -95zM727 270
q49 0 81.5 -33.5t32.5 -97.5q0 -67 -36.5 -107t-91.5 -40q-73 0 -106 52.5t-33 138.5q0 113 42.5 175t115.5 62q45 0 82 -24l-17 -29q-34 19 -65 19q-52 0 -81.5 -47t-33.5 -129q43 60 110 60zM713 27q41 0 63.5 31.5t22.5 79.5q0 49 -21.5 73t-56.5 24q-64 0 -104 -64
q5 -144 96 -144z" />
    <glyph glyph-name="oneeighth" unicode="&#x215b;" horiz-adv-x="908" 
d="M675 730l-408 -798l-34 16l408 798zM211 271v366l-105 -61l-19 30l131 78h34v-413h-41zM751 220q52 -20 75.5 -45.5t23.5 -66.5q0 -53 -40 -84.5t-104 -31.5t-102 31.5t-38 81.5q0 83 93 116q-38 18 -56 39t-18 56q0 48 36 76t87 28t86.5 -27t35.5 -76q0 -60 -79 -97z
M626 318q0 -30 15.5 -46.5t58.5 -31.5l20 -8q69 32 69 84q0 34 -22.5 52.5t-58.5 18.5t-59 -18t-23 -51zM707 27q45 0 72.5 20t27.5 61q0 34 -19 53t-67 36l-26 9q-47 -15 -67 -38.5t-20 -61.5q0 -40 27 -59.5t72 -19.5z" />
    <glyph glyph-name="threeeighths" unicode="&#x215c;" horiz-adv-x="908" 
d="M675 730l-408 -798l-34 16l408 798zM332 387q0 -55 -38 -89.5t-102 -34.5q-75 0 -125 55l26 23q42 -42 97 -42q48 0 73.5 24t25.5 64q0 84 -95 84h-28l5 34h20q36 0 62 20t26 59q0 34 -22 53t-59 19q-52 0 -97 -38l-23 26q55 47 122 47q55 0 88 -28.5t33 -74.5
q0 -40 -23.5 -65.5t-61.5 -31.5q42 -2 69 -29.5t27 -74.5zM751 220q52 -20 75.5 -45.5t23.5 -66.5q0 -53 -40 -84.5t-104 -31.5t-102 31.5t-38 81.5q0 83 93 116q-38 18 -56 39t-18 56q0 48 36 76t87 28t86.5 -27t35.5 -76q0 -60 -79 -97zM626 318q0 -30 15.5 -46.5
t58.5 -31.5l20 -8q69 32 69 84q0 34 -22.5 52.5t-58.5 18.5t-59 -18t-23 -51zM707 27q45 0 72.5 20t27.5 61q0 34 -19 53t-67 36l-26 9q-47 -15 -67 -38.5t-20 -61.5q0 -40 27 -59.5t72 -19.5z" />
    <glyph glyph-name="fiveeighths" unicode="&#x215d;" horiz-adv-x="908" 
d="M675 730l-408 -798l-34 16l408 798zM333 405q0 -63 -38.5 -102.5t-102.5 -39.5q-72 0 -126 52l28 24q42 -40 99 -40q43 0 70 28.5t27 77.5q0 48 -24.5 72t-64.5 24q-36 0 -73 -20h-31v203h222l-7 -35h-174v-133q32 19 71 19q57 0 90.5 -35t33.5 -95zM751 220
q52 -20 75.5 -45.5t23.5 -66.5q0 -53 -40 -84.5t-104 -31.5t-102 31.5t-38 81.5q0 83 93 116q-38 18 -56 39t-18 56q0 48 36 76t87 28t86.5 -27t35.5 -76q0 -60 -79 -97zM626 318q0 -30 15.5 -46.5t58.5 -31.5l20 -8q69 32 69 84q0 34 -22.5 52.5t-58.5 18.5t-59 -18
t-23 -51zM707 27q45 0 72.5 20t27.5 61q0 34 -19 53t-67 36l-26 9q-47 -15 -67 -38.5t-20 -61.5q0 -40 27 -59.5t72 -19.5z" />
    <glyph glyph-name="seveneighths" unicode="&#x215e;" horiz-adv-x="841" 
d="M608 730l-408 -798l-34 16l408 798zM322 652l-170 -386l-39 13l164 369h-200v36h245v-32zM684 220q52 -20 75.5 -45.5t23.5 -66.5q0 -53 -40.5 -84.5t-104.5 -31.5t-102 31.5t-38 81.5q0 83 94 116q-38 18 -56 39t-18 56q0 48 35.5 76t87.5 28q51 0 86.5 -27t35.5 -76
q0 -60 -79 -97zM559 318q0 -30 15 -46.5t58 -31.5l21 -8q69 32 69 84q0 34 -22.5 52.5t-58.5 18.5t-59 -18t-23 -51zM639 27q45 0 73 20t28 61q0 34 -19 53t-67 36l-26 9q-47 -15 -67 -38.5t-20 -61.5q0 -40 27 -59.5t71 -19.5z" />
    <glyph glyph-name="onefraction" unicode="&#x215f;" horiz-adv-x="508" 
d="M675 730l-408 -798l-34 16l408 798zM252 271h-41v366l-105 -61l-19 30l131 78h34v-413z" />
    <glyph glyph-name="arrowleft" unicode="&#x2190;" horiz-adv-x="900" 
d="M430 579l-141 -158q-42 -48 -75 -71h537v-42h-537q36 -26 75 -71l141 -158l-33 -29l-252 279l252 279z" />
    <glyph glyph-name="arrowup" unicode="&#x2191;" horiz-adv-x="900" 
d="M427 572q-22 -32 -71 -75l-170 -150l-30 32l294 261l294 -261l-30 -32l-170 150q-49 43 -71 75v-572h-46v572z" />
    <glyph glyph-name="arrowright" unicode="&#x2192;" horiz-adv-x="900" 
d="M755 329l-252 -279l-33 29l141 158q39 45 75 71h-537v42h537q-33 23 -75 71l-141 158l33 29z" />
    <glyph glyph-name="arrowdown" unicode="&#x2193;" horiz-adv-x="900" 
d="M473 47q23 34 71 74l170 150l30 -31l-294 -261l-294 261l30 31l170 -150q48 -40 71 -74v572h46v-572z" />
    <glyph glyph-name="uni2194" unicode="&#x2194;" horiz-adv-x="1280" 
d="M1135 329l-252 -279l-33 29l141 158q39 45 75 71h-852q36 -26 75 -71l141 -158l-33 -29l-252 279l252 279l33 -29l-141 -158q-42 -48 -75 -71h852q-33 23 -75 71l-141 158l33 29z" />
    <glyph glyph-name="arrowupdn" unicode="&#x2195;" horiz-adv-x="900" 
d="M744 585l-30 -32l-170 151q-48 40 -71 74v-876q22 32 71 75l170 150l30 -32l-294 -261l-294 261l30 32l170 -150q49 -43 71 -75v876q-23 -34 -71 -74l-170 -151l-30 32l294 261z" />
    <glyph glyph-name="uni2196" unicode="&#x2196;" horiz-adv-x="900" 
d="M266 464q6 -46 3 -101l-12 -232l-45 3l20 393l386 21l2 -42l-229 -13q-51 -3 -94 2l391 -395l-31 -31z" />
    <glyph glyph-name="uni2197" unicode="&#x2197;" horiz-adv-x="900" 
d="M212 136l391 395q-43 -5 -94 -2l-229 13l2 42l386 -21l20 -393l-45 -3l-12 232q-3 55 3 101l-391 -395z" />
    <glyph glyph-name="uni2198" unicode="&#x2198;" horiz-adv-x="900" 
d="M634 143q-6 46 -3 101l12 232l45 -3l-20 -393l-386 -21l-2 42l229 13q51 3 94 -2l-391 395l31 31z" />
    <glyph glyph-name="uni2199" unicode="&#x2199;" horiz-adv-x="900" 
d="M688 507l-391 -395q43 5 94 2l229 -13l-2 -42l-386 21l-20 393l45 3l12 -232q3 -55 -3 -101l391 395z" />
    <glyph glyph-name="arrowleftwhite" unicode="&#x21e6;" horiz-adv-x="960" 
d="M920 239q0 -23 -14 -36.5t-36 -13.5h-532v-176l-298 300l298 300v-176h532q22 0 36 -13.5t14 -36.5v-148zM293 393v111l-189 -191l189 -191v111h583v160h-583z" />
    <glyph glyph-name="arrowupwhite" unicode="&#x21e7;" horiz-adv-x="720" 
d="M279 -12q-23 0 -36.5 14t-13.5 36v496h-169l300 298l300 -298h-169v-496q0 -22 -13.5 -36t-36.5 -14h-162zM444 579h107l-191 189l-191 -189h107v-547h168v547z" />
    <glyph glyph-name="arrowrightwhite" unicode="&#x21e8;" horiz-adv-x="960" 
d="M40 387q0 23 14 36.5t36 13.5h532v176l298 -300l-298 -300v176h-532q-22 0 -36 13.5t-14 36.5v148zM84 233h583v-111l189 191l-189 191v-111h-583v-160z" />
    <glyph glyph-name="arrowdownwhite" unicode="&#x21e9;" horiz-adv-x="720" 
d="M441 750q23 0 36.5 -14t13.5 -36v-496h169l-300 -298l-300 298h169v496q0 22 13.5 36t36.5 14h162zM276 159h-107l191 -189l191 189h-107v547h-168v-547z" />
    <glyph glyph-name="capslock" unicode="&#x21ea;" horiz-adv-x="720" 
d="M229 534h-169l300 298l300 -298h-169v-279h-262v279zM444 579h107l-191 189l-191 -189h107v-282h168v282zM491 38q0 -22 -13.5 -36t-36.5 -14h-162q-23 0 -36.5 14t-13.5 36v117h262v-117zM276 32h168v81h-168v-81z" />
    <glyph glyph-name="partialdiff" unicode="&#x2202;" horiz-adv-x="503" 
d="M128 694q159 -51 234.5 -152t75.5 -279q0 -127 -52.5 -200.5t-147.5 -73.5q-80 0 -136.5 57t-56.5 160q0 92 52.5 148.5t125.5 56.5q105 0 168 -100q-5 135 -72 217t-201 130zM239 29q74 0 112.5 59.5t38.5 172.5q-35 59 -72.5 85t-89.5 26q-57 0 -96 -44.5t-39 -121.5
q0 -85 40.5 -131t105.5 -46z" />
    <glyph glyph-name="emptyset" unicode="&#x2205;" horiz-adv-x="900" 
d="M676 639q65 -50 102.5 -126t37.5 -164q0 -153 -106 -259t-259 -106q-116 0 -210 65l-45 -61h-45l61 83q-60 51 -94 123t-34 155q0 153 107 260t260 107q108 0 195 -56l38 52h45zM124 349q0 -73 29 -137.5t81 -110.5l390 529q-78 50 -173 50q-137 0 -232 -96.5t-95 -234.5
zM451 20q137 0 231 95.5t94 233.5q0 79 -32.5 146.5t-90.5 113.5l-390 -530q85 -59 188 -59z" />
    <glyph glyph-name="increment" unicode="&#x2206;" horiz-adv-x="572" 
d="M552 0h-532l236 684h60zM81 41h408l-203 604z" />
    <glyph glyph-name="product" unicode="&#x220f;" horiz-adv-x="595" 
d="M446 623v-820l-46 -6v826h-204v-820l-45 -6v826h-77v41h447v-41h-75z" />
    <glyph glyph-name="summation" unicode="&#x2211;" horiz-adv-x="482" 
d="M425 623h-307l204 -277v-22l-205 -283h308v-41h-368v31l219 303l-219 298v32h368v-41z" />
    <glyph glyph-name="minus" unicode="&#x2212;" horiz-adv-x="491" 
d="M72 352h347v-42h-347v42z" />
    <glyph glyph-name="divisionslash" unicode="&#x2215;" horiz-adv-x="108" 
d="M275 730l-408 -798l-34 16l408 798z" />
    <glyph glyph-name="bulletoperator" unicode="&#x2219;" horiz-adv-x="240" 
d="M97 361q19 0 30 -11.5t11 -28.5t-11.5 -28t-29.5 -11q-17 0 -28.5 11t-11.5 28t11.5 28.5t28.5 11.5z" />
    <glyph glyph-name="radical" unicode="&#x221a;" 
d="M675 788h-155l-224 -788h-52l-175 455l41 13l158 -419l219 779h188v-40z" />
    </font>
</defs>
</svg>
